<svg width="103" height="14" viewBox="0 0 103 14" fill="none" xmlns="http://www.w3.org/2000/svg">
<path d="M14.3729 0.213001L9.64036 13.8645H4.75202L0 0.213001H4.08985L7.20593 10.0692L10.3025 0.213001H14.3729Z" fill="#111111"/>
<path d="M19.3795 3.25311V5.47994H23.7614V8.36514H19.3795V10.8243H24.3457V13.8645H15.5623V0.213001H24.3457V3.25311H19.3795Z" fill="#111111"/>
<path d="M25.7645 7.00968C25.7645 5.66713 26.0437 4.47303 26.602 3.42739C27.1733 2.36883 27.9782 1.5491 29.0169 0.968189C30.0556 0.374367 31.2501 0.0774556 32.6004 0.0774556C34.3143 0.0774556 35.7555 0.535731 36.924 1.45228C38.0925 2.35592 38.8456 3.58875 39.1831 5.15076H35.0738C34.8271 4.63439 34.4831 4.24066 34.0416 3.96957C33.6131 3.69848 33.1133 3.56293 32.542 3.56293C31.6591 3.56293 30.9515 3.87921 30.4192 4.51176C29.8998 5.1314 29.6402 5.96404 29.6402 7.00968C29.6402 8.06823 29.8998 8.91378 30.4192 9.54634C30.9515 10.166 31.6591 10.4758 32.542 10.4758C33.1133 10.4758 33.6131 10.3402 34.0416 10.0692C34.4831 9.79806 34.8271 9.40433 35.0738 8.88797H39.1831C38.8456 10.45 38.0925 11.6893 36.924 12.6058C35.7555 13.5095 34.3143 13.9613 32.6004 13.9613C31.2501 13.9613 30.0556 13.6708 29.0169 13.0899C27.9782 12.4961 27.1733 11.6763 26.602 10.6307C26.0437 9.57215 25.7645 8.36515 25.7645 7.00968Z" fill="#111111"/>
<path d="M51.3322 0.213001V3.23375H47.6708V13.8645H43.8536V3.23375H40.2312V0.213001H51.3322Z" fill="#111111"/>
<path d="M59.3272 14C58.0418 14 56.8603 13.7031 55.7826 13.1093C54.705 12.5025 53.8481 11.6699 53.2119 10.6113C52.5886 9.53988 52.277 8.33287 52.277 6.99032C52.277 5.64776 52.5886 4.44721 53.2119 3.38866C53.8481 2.3172 54.705 1.48456 55.7826 0.890733C56.8603 0.296911 58.0418 0 59.3272 0C60.6255 0 61.807 0.296911 62.8717 0.890733C63.9493 1.48456 64.7998 2.3172 65.423 3.38866C66.0462 4.44721 66.3578 5.64776 66.3578 6.99032C66.3578 8.33287 66.0462 9.53988 65.423 10.6113C64.7998 11.6699 63.9493 12.5025 62.8717 13.1093C61.7941 13.7031 60.6125 14 59.3272 14ZM59.3272 10.4758C60.3009 10.4758 61.067 10.1595 61.6253 9.52697C62.1966 8.89442 62.4822 8.04887 62.4822 6.99032C62.4822 5.90595 62.1966 5.05394 61.6253 4.4343C61.067 3.80175 60.3009 3.48548 59.3272 3.48548C58.3404 3.48548 57.5679 3.80175 57.0096 4.4343C56.4513 5.05394 56.1721 5.90595 56.1721 6.99032C56.1721 8.06178 56.4513 8.91378 57.0096 9.54634C57.5679 10.166 58.3404 10.4758 59.3272 10.4758Z" fill="#111111"/>
<path d="M75.0265 13.8645L72.3 8.82988H71.891V13.8645H68.0738V0.213001H74.0917C75.1953 0.213001 76.1301 0.406639 76.8962 0.793915C77.6622 1.16828 78.24 1.6911 78.6295 2.36238C79.019 3.02075 79.2138 3.76302 79.2138 4.58921C79.2138 5.51867 78.9541 6.33841 78.4347 7.04841C77.9284 7.7455 77.1818 8.24251 76.1951 8.53942L79.2917 13.8645H75.0265ZM71.891 6.23513H73.7801C74.2994 6.23513 74.689 6.11249 74.9486 5.86722C75.2083 5.62195 75.3381 5.26694 75.3381 4.80221C75.3381 4.3633 75.2018 4.02121 74.9292 3.77593C74.6695 3.51775 74.2865 3.38866 73.7801 3.38866H71.891V6.23513Z" fill="#111111"/>
<path d="M84.7669 10.9599H89.032V13.8645H80.9497V0.213001H84.7669V10.9599Z" fill="#111111"/>
<path d="M103 0.213001L98.1701 9.52697V13.8645H94.3334V9.52697L89.5035 0.213001H93.866L96.281 5.47994L98.6959 0.213001H103Z" fill="#111111"/>
</svg>
