<?xml version="1.0" encoding="UTF-8" standalone="no"?>
<svg
   xmlns:dc="http://purl.org/dc/elements/1.1/"
   xmlns:cc="http://creativecommons.org/ns#"
   xmlns:rdf="http://www.w3.org/1999/02/22-rdf-syntax-ns#"
   xmlns:svg="http://www.w3.org/2000/svg"
   xmlns="http://www.w3.org/2000/svg"
   xmlns:xlink="http://www.w3.org/1999/xlink"
   xmlns:sodipodi="http://sodipodi.sourceforge.net/DTD/sodipodi-0.dtd"
   xmlns:inkscape="http://www.inkscape.org/namespaces/inkscape"
   viewBox="0 0 70 70"
   version="1.1"
   id="svg858"
   sodipodi:docname="02d230dd-6f06-4745-9d72-e8bc430290af.svg"
   inkscape:version="1.0.1 (c497b03c, 2020-09-10)"
   width="70"
   height="70">
  <metadata
     id="metadata862">
    <rdf:RDF>
      <cc:Work
         rdf:about="">
        <dc:format>image/svg+xml</dc:format>
        <dc:type
           rdf:resource="http://purl.org/dc/dcmitype/StillImage" />
        <dc:title></dc:title>
      </cc:Work>
    </rdf:RDF>
  </metadata>
  <sodipodi:namedview
     pagecolor="#ffffff"
     bordercolor="#666666"
     borderopacity="1"
     objecttolerance="10"
     gridtolerance="10"
     guidetolerance="10"
     inkscape:pageopacity="0"
     inkscape:pageshadow="2"
     inkscape:window-width="1751"
     inkscape:window-height="1291"
     id="namedview860"
     showgrid="false"
     inkscape:zoom="2.37"
     inkscape:cx="58.855707"
     inkscape:cy="139.67255"
     inkscape:window-x="467"
     inkscape:window-y="28"
     inkscape:window-maximized="0"
     inkscape:current-layer="layer2"
     inkscape:document-rotation="0"
     fit-margin-top="0"
     fit-margin-left="0"
     fit-margin-right="0"
     fit-margin-bottom="0" />
  <defs
     id="defs4">
    <linearGradient
       id="linearGradient3153">
      <stop
         id="stop3155"
         stop-color="#fff"
         offset="0" />
      <stop
         id="stop3157"
         stop-color="#fff"
         stop-opacity="0"
         offset="1" />
    </linearGradient>
    <filter
       id="filter3315">
      <feGaussianBlur
         id="feGaussianBlur3317"
         stdDeviation="3.7000001" />
    </filter>
    <radialGradient
       id="radialGradient3328"
       xlink:href="#linearGradient3153"
       gradientUnits="userSpaceOnUse"
       cy="209.67"
       cx="289.42999"
       gradientTransform="matrix(-0.86959,0.86959,-1.9615,-1.9615,651.7297,148.35953)"
       r="92.5" />
    <radialGradient
       id="radialGradient3331"
       xlink:href="#linearGradient3153"
       gradientUnits="userSpaceOnUse"
       cy="209.67"
       cx="289.42999"
       gradientTransform="matrix(0.86959,-0.86959,1.9615,1.9615,-281.51,221.86)"
       r="92.5" />
    <radialGradient
       id="radialGradient3349"
       gradientUnits="userSpaceOnUse"
       cy="192.84"
       cx="199.28"
       gradientTransform="matrix(0,2.8729,-1,0,363.0597,-402.29047)"
       r="53.688">
      <stop
         id="stop3265"
         stop-color="#f7f7f7"
         offset="0" />
      <stop
         id="stop3267"
         stop-color="#e1e1e1"
         offset="1" />
    </radialGradient>
    <radialGradient
       id="radialGradient3352"
       gradientUnits="userSpaceOnUse"
       cy="192.84"
       cx="199.28"
       gradientTransform="matrix(0,2.7782,-0.82388,0,329.0997,-383.43047)"
       r="68.844002">
      <stop
         id="stop3275"
         stop-color="#6c6c6c"
         offset="0" />
      <stop
         id="stop3277"
         stop-color="#3e3e3e"
         offset="1" />
    </radialGradient>
    <radialGradient
       inkscape:collect="always"
       xlink:href="#linearGradient3153"
       id="radialGradient861"
       gradientUnits="userSpaceOnUse"
       gradientTransform="matrix(0.86959,-0.86959,1.9615,1.9615,-311.2903,192.07953)"
       cx="289.42999"
       cy="209.67"
       r="92.5" />
  </defs>
  <g
     id="layer2"
     fill-rule="evenodd"
     transform="matrix(0.18468467,0,0,0.18468467,3.5625673,3.3243241)">
    <path
       id="path3309"
       filter="url(#filter3315)"
       d="m 172.9297,-10.780487 c -102.120154,0 -185.000171,82.880011 -185.000171,185.000017 0.004,102.12 82.880017,185 185.000171,185 102.12,0 185,-82.88 185,-185 0,-102.120006 -82.88,-185.000017 -185,-185.000017 z m 0,179.810017 c 2.87,0 5.19,2.32 5.19,5.19 0,2.87 -2.32,5.19 -5.19,5.19 -2.86,0 -5.18,-2.32 -5.18,-5.19 0,-2.87 2.32,-5.19 5.18,-5.19 z"
       style="color:#000000"
       fill-opacity="0.50857" />
    <path
       id="path3191"
       style="color:#000000"
       d="m 170.2197,-14.780487 c -102.120158,0 -185.000168,82.880001 -185.000168,185.000017 0,102.12 82.88001,185 185.000168,185 102.12,0 185,-82.88 185,-185 0,-102.120016 -82.88,-185.000017 -185,-185.000017 z m 0,179.810017 c 2.87,0 5.19,2.32 5.19,5.19 0,2.87 -2.32,5.19 -5.19,5.19 -2.87,0 -5.19,-2.32 -5.19,-5.19 0,-2.87 2.32,-5.19 5.19,-5.19 z" />
    <path
       id="path3271"
       d="m 170.2197,102.87953 c -37.16,0 -67.34,30.18 -67.34,67.34 0,37.16 30.18,67.34 67.34,67.34 37.16,0 67.34,-30.18 67.34,-67.34 0,-37.16 -30.18,-67.34 -67.34,-67.34 z m 0,62.9 c 2.45,0 4.44,1.99 4.44,4.44 0,2.45 -1.99,4.44 -4.44,4.44 -2.45,0 -4.44,-1.99 -4.44,-4.44 0,-2.45 1.99,-4.44 4.44,-4.44 z"
       style="color:#000000"
       fill="#333333" />
    <path
       id="path3176"
       style="color:#000000"
       d="m 170.2197,-14.780487 c -102.120158,0 -185.000168,82.880001 -185.000168,185.000017 0,102.12 82.88001,185 185.000168,185 102.12,0 185,-82.88 185,-185 0,-102.120016 -82.88,-185.000017 -185,-185.000017 z m 0,3.594 c 100.15,0 181.44,81.257001 181.44,181.410017 0,100.153 -81.29,181.44 -181.44,181.44 -100.150158,0 -181.440171,-81.29 -181.440171,-181.44 0.003,-100.150016 81.291013,-181.410017 181.440171,-181.410017 z" />
    <path
       id="path3151"
       d="m 263.7797,170.21953 c 0,51.65 -41.91,93.59 -93.56,93.59 v 87.85 c 100.15,0 181.44,-81.29 181.44,-181.44 z"
       style="color:#000000;fill:url(#radialGradient861)"
       fill="url(#radialGradient3331)" />
    <path
       id="path3193"
       d="m 76.659576,170.21953 c 0,-51.65 41.910124,-93.589994 93.560124,-93.589994 v -87.848023 c -100.150158,0 -181.440171,81.289001 -181.440171,181.440017 h 87.880047 z"
       style="color:#000000;fill:url(#radialGradient3328)"
       fill="url(#radialGradient3328)" />
    <path
       id="path3215"
       d="m 218.8997,121.53953 c -26.87,-26.870005 -70.49,-26.870005 -97.36,0 -26.870027,26.87 -26.870027,70.49 0,97.36 26.87,26.87 70.49,26.87 97.36,0 26.87,-26.87 26.87,-70.49 0,-97.36 z m -2.14,2.14 c 25.68,25.69 25.68,67.39 0,93.08 -25.69,25.68 -67.39,25.68 -93.08,0 -25.680009,-25.69 -25.680009,-67.39 0,-93.08 25.69,-25.679997 67.39,-25.679997 93.08,0 z"
       style="color:#000000;fill:url(#radialGradient3352)"
       fill="url(#radialGradient3352)" />
    <path
       id="path3223"
       d="m 208.1797,132.25953 c -20.95,-20.96 -54.97,-20.96 -75.92,0 -20.96,20.95 -20.96,54.97 0,75.92 20.95,20.96 54.97,20.96 75.92,0 20.96,-20.95 20.96,-54.97 0,-75.92 z m -34.29,34.29 c 2.03,2.03 2.03,5.31 0,7.34 -2.03,2.03 -5.31,2.03 -7.34,0 -2.03,-2.03 -2.03,-5.31 0,-7.34 2.03,-2.02 5.31,-2.02 7.34,0 z"
       style="color:#000000;fill:url(#radialGradient3349)"
       fill="url(#radialGradient3349)" />
    <path
       id="path3230"
       opacity="0.74257"
       d="m 214.1697,126.26953 c -7.06,-7.06 -15.41,-12.05 -24.28,-15.01 l -1.24,3.72 c 8.31,2.76 16.12,7.46 22.74,14.07 8.05,8.06 13.25,17.89 15.6,28.24 l 3.82,-0.86 c -2.5,-11.05 -8.04,-21.56 -16.64,-30.16 z"
       style="color:#000000"
       fill="#ffffff" />
    <path
       id="path3232"
       opacity="0.74257"
       d="m 112.8297,160.47953 -3.89,-0.67 c -3.23,19.18 2.54,39.58 17.33,54.36 14.74,14.75 35.07,20.53 54.2,17.35 l -0.64,-3.87 c -17.92,2.98 -36.96,-2.45 -50.78,-16.26 -13.85,-13.86 -19.25,-32.95 -16.22,-50.91 z"
       style="color:#000000"
       fill="#ffffff" />
  </g>
</svg>
