<?xml version="1.0" encoding="UTF-8" standalone="no"?>
<svg
   xmlns:dc="http://purl.org/dc/elements/1.1/"
   xmlns:cc="http://creativecommons.org/ns#"
   xmlns:rdf="http://www.w3.org/1999/02/22-rdf-syntax-ns#"
   xmlns:svg="http://www.w3.org/2000/svg"
   xmlns="http://www.w3.org/2000/svg"
   xmlns:xlink="http://www.w3.org/1999/xlink"
   xmlns:sodipodi="http://sodipodi.sourceforge.net/DTD/sodipodi-0.dtd"
   xmlns:inkscape="http://www.inkscape.org/namespaces/inkscape"
   id="svg2054"
   viewBox="0 0 75.231552 82"
   version="1.0"
   sodipodi:docname="7545496c-5ef6-4a39-a0c7-f258b5bd7459.svg"
   width="75.231552"
   height="82"
   inkscape:version="1.0.1 (c497b03c, 2020-09-10)">
  <sodipodi:namedview
     pagecolor="#ffffff"
     bordercolor="#666666"
     borderopacity="1"
     objecttolerance="10"
     gridtolerance="10"
     guidetolerance="10"
     inkscape:pageopacity="0"
     inkscape:pageshadow="2"
     inkscape:window-width="1977"
     inkscape:window-height="1206"
     id="namedview910"
     showgrid="false"
     fit-margin-top="0"
     fit-margin-left="0"
     fit-margin-right="0"
     fit-margin-bottom="0"
     inkscape:zoom="3.1001996"
     inkscape:cx="107.735"
     inkscape:cy="115.82"
     inkscape:window-x="422"
     inkscape:window-y="150"
     inkscape:window-maximized="0"
     inkscape:current-layer="svg2054" />
  <defs
     id="defs2056">
    <linearGradient
       id="linearGradient2927">
      <stop
         id="stop2929"
         stop-color="#fff"
         offset="0" />
      <stop
         id="stop2931"
         stop-color="#fff"
         stop-opacity="0"
         offset="1" />
    </linearGradient>
    <linearGradient
       id="linearGradient2965">
      <stop
         id="stop2967"
         stop-color="#cbf9ff"
         stop-opacity=".66327"
         offset="0" />
      <stop
         id="stop2969"
         stop-color="#fff2f2"
         stop-opacity="0"
         offset="1" />
    </linearGradient>
    <radialGradient
       id="radialGradient3222"
       fx="-212.82001"
       fy="-1987.7"
       xlink:href="#linearGradient2927"
       gradientUnits="userSpaceOnUse"
       cy="-2034.8"
       cx="-240.85001"
       gradientTransform="matrix(-0.65815,-0.17586,0.5135,-0.16844,642.11,-2400.2)"
       r="127.14" />
    <linearGradient
       id="linearGradient2881">
      <stop
         id="stop2883"
         stop-color="#999"
         offset="0" />
      <stop
         id="stop2885"
         stop-color="#999"
         stop-opacity="0"
         offset="1" />
    </linearGradient>
    <radialGradient
       id="radialGradient2912"
       gradientUnits="userSpaceOnUse"
       cy="302.75"
       cx="66.015999"
       gradientTransform="matrix(1,0,0,0.87234,0,38.649)"
       r="18.358999">
      <stop
         id="stop2908"
         stop-color="#e3b36a"
         offset="0" />
      <stop
         id="stop2910"
         stop-color="#e3b36a"
         stop-opacity="0"
         offset="1" />
    </radialGradient>
    <radialGradient
       id="radialGradient2937"
       xlink:href="#linearGradient2927"
       gradientUnits="userSpaceOnUse"
       cy="-2546.8999"
       cx="-520.71002"
       gradientTransform="matrix(1,0,0,0.83784,0,-413.01)"
       r="26.429001" />
    <linearGradient
       id="linearGradient3176"
       x1="300.66"
       gradientUnits="userSpaceOnUse"
       y1="-95.043999"
       gradientTransform="matrix(0.46981,0.5587,-0.11703,0.72053,-50.501,21.644)"
       x2="313.01999"
       y2="-95.297997">
      <stop
         id="stop2999"
         stop-color="#e6e6e6"
         offset="0" />
      <stop
         id="stop3001"
         stop-color="#e6e6e6"
         stop-opacity="0"
         offset="1" />
    </linearGradient>
    <linearGradient
       id="linearGradient3179"
       x1="179.97"
       gradientUnits="userSpaceOnUse"
       y1="194.62"
       gradientTransform="matrix(0.72998,0,0.17708,0.70911,-53.455,20.031)"
       x2="184.48"
       y2="194.62">
      <stop
         id="stop2953"
         stop-color="#e6e6e6"
         offset="0" />
      <stop
         id="stop2955"
         stop-color="#e6e6e6"
         stop-opacity="0"
         offset="1" />
    </linearGradient>
    <linearGradient
       id="linearGradient3186"
       x1="-343.16"
       gradientUnits="userSpaceOnUse"
       y1="652.23999"
       gradientTransform="matrix(0.2264,0,0.037977,0.22082,113.79,-6.2884)"
       x2="-140.67"
       y2="588.09998">
      <stop
         id="stop3021"
         stop-color="#999"
         offset="0" />
      <stop
         id="stop3027"
         stop-color="#fff"
         stop-opacity=".49804"
         offset=".5" />
      <stop
         id="stop3023"
         stop-color="#999"
         offset="1" />
    </linearGradient>
    <linearGradient
       id="linearGradient3190"
       x1="287.92001"
       xlink:href="#linearGradient2965"
       gradientUnits="userSpaceOnUse"
       y1="-119.21"
       gradientTransform="matrix(0.72998,0,0,0.72998,-43.657,35.331)"
       x2="282.03"
       y2="130.78999" />
    <linearGradient
       id="linearGradient3193"
       x1="232.3"
       xlink:href="#linearGradient2965"
       gradientUnits="userSpaceOnUse"
       y1="-6.7105999"
       gradientTransform="matrix(0.72998,0,0,0.72998,-59.625,26.206)"
       x2="289.25"
       y2="129.85001" />
    <linearGradient
       id="linearGradient3200"
       x1="678.73999"
       xlink:href="#linearGradient2881"
       gradientUnits="userSpaceOnUse"
       y1="318.04001"
       gradientTransform="matrix(-0.21042,0,0,0.21042,244.84,46.36)"
       x2="564.28998"
       y2="253.78999" />
    <linearGradient
       id="linearGradient3206"
       x1="678.73999"
       xlink:href="#linearGradient2881"
       gradientUnits="userSpaceOnUse"
       y1="278.04001"
       gradientTransform="matrix(0.21042,0,0,0.21042,87.788,47.563)"
       x2="390"
       y2="262.35999" />
    <radialGradient
       id="radialGradient3210"
       fx="-314.60999"
       fy="-2371.3"
       xlink:href="#linearGradient2927"
       gradientUnits="userSpaceOnUse"
       cy="-2031.6"
       cx="-265.85999"
       gradientTransform="matrix(-0.26233,0.0079604,-0.0072074,-0.049817,85.475,33.733)"
       r="127.14" />
    <radialGradient
       id="radialGradient3213"
       fx="-312.14001"
       fy="-2205.1001"
       gradientUnits="userSpaceOnUse"
       cy="-2076.2"
       cx="-309.29001"
       gradientTransform="matrix(0.33282,-5.7844e-4,-0.0015784,-0.363,268.82,-588.85)"
       r="150.71001">
      <stop
         id="stop3172"
         stop-color="#fff"
         offset="0" />
      <stop
         id="stop3174"
         stop-color="#fff"
         stop-opacity="0"
         offset="1" />
    </radialGradient>
    <linearGradient
       id="linearGradient3216"
       x1="92.857002"
       gradientUnits="userSpaceOnUse"
       y1="635.21997"
       gradientTransform="matrix(0.21042,0,0,0.21042,76.666,30.428)"
       x2="297.14001"
       y2="635.21997">
      <stop
         id="stop3097"
         stop-color="#999"
         offset="0" />
      <stop
         id="stop3099"
         stop-color="#999"
         stop-opacity="0"
         offset="1" />
    </linearGradient>
    <radialGradient
       id="radialGradient3225"
       fx="118.3"
       fy="227.89999"
       gradientUnits="userSpaceOnUse"
       cy="250.81"
       cx="137.38"
       gradientTransform="matrix(1,0,0,0.3319,0,167.56)"
       r="117.18">
      <stop
         id="stop2879"
         stop-opacity=".69072"
         offset="0" />
      <stop
         id="stop2881"
         stop-opacity="0"
         offset="1" />
    </radialGradient>
    <radialGradient
       id="radialGradient2947"
       fx="103.98"
       fy="159.87"
       gradientUnits="userSpaceOnUse"
       cy="172.5"
       cx="101.51"
       gradientTransform="matrix(-0.88064,-1.4631,1.2303,-0.74053,-22.655,403.87)"
       r="31.117001">
      <stop
         id="stop2943"
         stop-color="#e6e6e6"
         offset="0" />
      <stop
         id="stop2949"
         stop-color="#e6e6e6"
         offset=".5" />
      <stop
         id="stop2951"
         stop-color="#e6e6e6"
         offset=".75" />
      <stop
         id="stop2945"
         stop-color="#e6e6e6"
         stop-opacity="0"
         offset="1" />
    </radialGradient>
    <radialGradient
       inkscape:collect="always"
       xlink:href="#linearGradient2927"
       id="radialGradient912"
       gradientUnits="userSpaceOnUse"
       gradientTransform="matrix(1,0,0,0.83784,0,-413.01)"
       cx="-520.71002"
       cy="-2546.8999"
       r="26.429001" />
  </defs>
  <g
     id="layer1"
     transform="matrix(0.37847371,0,0,0.37847371,-21.137356,-9.4239954)">
    <path
       id="path1988"
       fill-rule="evenodd"
       fill="url(#radialGradient3225)"
       transform="matrix(0.70503,0,0,0.94449,58.38,-32.06)"
       d="m 278.35,250.81 a 140.97,38.891 0 1 1 -281.94,0 140.97,38.891 0 1 1 281.94,0 z"
       style="fill:url(#radialGradient3225)" />
    <path
       id="path3116"
       fill-rule="evenodd"
       fill="#999999"
       transform="matrix(3.513,0,0,2.1336,46.53,-212.52)"
       d="m 45.714,193.08 a 11.429,12.143 0 1 1 0,-0.04 l -11.428,0.04 z" />
    <g
       id="g2813"
       transform="matrix(0.21042,0,0,0.21042,87.788,47.563)"
       fill="#cccccc">
      <g
         id="g2836"
         fill="#cccccc"
         fill-rule="evenodd">
        <path
           id="path2790"
           d="m 374.91,68.393 c -190.84,0 -345.72,79.767 -345.72,178.07 -0.002,14.22 3.276,28.07 9.404,41.34 l 131.97,420.41 c 14.37,70.8 100.09,125.25 203.6,125.25 31.38,0 61.12,-5.01 87.74,-13.96 61.11,-20.54 105.73,-61.85 115.82,-111.11 h 0.19 l 137.12,-426.09 h -1.41 c 4.6,-11.58 7,-23.57 7,-35.84 0,-98.3 -154.88,-178.07 -345.71,-178.07 z" />
        <path
           id="path2808"
           stroke="#dadada"
           stroke-width="2.5392px"
           d="m 713.33,283.59 3.06,-12.65 2.42,-14.53" />
      </g>
    </g>
    <path
       id="path2760"
       d="m -1434.7,145.17 c 251.1,145.14 553.38,-31.26 544,-321.18 -9.57,-295.49 -308.4,-457.46 -564.5,-309.75 -251.3,144.93 -249.7,494.91 6.1,631.74 260.7,139.47 550.39,-38.38 550.51,-334.02 0.12,-290.07 -303.81,-463.64 -550.21,-310.56 -251.1,156.02 -241.9,495.84 14.1,643.77 z"
       transform="matrix(0.18723,0,0,0.091773,403.51,114.52)"
       fill="#ffffff"
       fill-rule="evenodd" />
    <path
       id="rect3076"
       fill-rule="evenodd"
       fill="url(#linearGradient3216)"
       d="m 96.204,108.48 c 0,0 5.576,10.45 18.636,18.34 21.85,8.95 23.45,7.81 23.45,7.81 l 9.92,85.07 c 0,0 -7.93,-2.95 -13.64,-6.93 -5.71,-3.98 -9.81,-12.31 -9.81,-12.31 z"
       style="fill:url(#linearGradient3216)" />
    <path
       id="rect3168"
       fill-rule="evenodd"
       fill="url(#radialGradient3213)"
       d="m 124.23,210.98 42.79,10.66 50.4,-11.26 1.43,-74.85 c 0,0 -34.39,2.98 -53.88,3.12 -20.92,0 -45.02,-3.72 -45.02,-3.72 z"
       style="fill:url(#radialGradient3213)" />
    <path
       id="path3181"
       fill-rule="evenodd"
       fill="url(#radialGradient3210)"
       d="m 163.24,149.36 c -14.77,0 -26.76,-8.48 -26.76,-18.94 0,-10.45 12.43,-22.52 26.76,-18.93 l 51.7,12.92 c -17.86,8.73 -28.71,21.95 -51.7,24.95 z"
       style="fill:url(#radialGradient3210)" />
    <path
       id="path3220"
       fill-rule="evenodd"
       fill="url(#radialGradient3222)"
       transform="matrix(0.20599,0.012887,0,0.4087,212.13,900.79)"
       d="m -124.29,-2016.9 a 127.14,45 0 1 1 0,-0.2 l -127.14,0.2 z"
       style="fill:url(#radialGradient3222)" />
    <path
       id="path2819"
       fill-rule="evenodd"
       fill="url(#linearGradient3206)"
       d="m 199.89,86.522 c -30.69,-2.405 -92.87,5.362 -94.86,19.768 5.54,11.49 33.2,23.83 62.86,23.83 30.09,0 65.14,-16.23 62.59,-27.63 -0.15,3.18 -0.63,-12.662 -30.59,-15.968 z"
       style="fill:url(#linearGradient3206)" />
    <path
       id="path3231"
       fill-rule="evenodd"
       fill="#ffffff"
       transform="matrix(0.23847,0,0,0.046029,232.38,249.72)"
       d="m -192.86,-2513.4 a 64.286,45.714 0 1 1 0,-0.1 l -64.28,0.1 z" />
    <path
       id="rect3233"
       d="m 161.18,142.51 h 20.6 l -8.73,69.31 -9.27,-3 z"
       fill-rule="evenodd"
       stroke="#ffffff"
       stroke-dasharray="0.294583, 0.294583"
       stroke-width="2.9458"
       fill="#ffffff" />
    <path
       id="path3244"
       fill-rule="evenodd"
       fill="#ffffff"
       transform="matrix(0.12859,0,0,0.020065,196.6,115.71)"
       d="m -192.86,-2513.4 a 64.286,45.714 0 1 1 0,-0.1 l -64.28,0.1 z" />
    <path
       id="path2050"
       fill-rule="evenodd"
       fill="url(#linearGradient3200)"
       d="m 153.78,67.885 c 26.46,0 61.92,17.624 71.45,31.673 1.31,1.932 2.13,3.792 2.37,5.532 -5.54,11.48 -33.2,23.83 -62.86,23.83 -30.09,0 -63.64,-17.13 -61.09,-28.54 4.06,-15.454 28.28,-17.766 50.13,-32.495 z"
       style="fill:url(#linearGradient3200)" />
    <g
       id="g2015"
       transform="matrix(0.72998,0,0,0.72998,9.9506,-110.66)"
       fill-rule="evenodd">
      <path
         id="path2012"
         fill="#be8124"
         d="m 216.61,280.46 c -33.15,0 -55.8,10.2 -73.96,26.3 10.42,11.77 39.84,-11.9 73,-11.9 34.45,0 67.3,23.56 76.68,11.08 -20.55,-18.48 -41.24,-25.48 -75.72,-25.48 z" />
      <path
         id="path1965"
         fill="#28170b"
         d="m 215.91,283.91 c -32.24,0 -53.9,10.61 -70.41,25.6 14.56,10.61 36.6,17.61 68.86,17.61 33.51,0 59.76,-6.81 75.23,-19.23 -18.89,-17.28 -42.74,-23.98 -73.68,-23.98 z" />
    </g>
    <path
       id="path2019"
       opacity="0.5"
       d="m 84.375,302.75 a 18.359,16.016 0 1 1 0,-0.05 l -18.359,0.05 z"
       fill-rule="evenodd"
       transform="matrix(1.0561,0,0,0.72998,88.7,-113.15)"
       fill="url(#radialGradient2912)"
       style="fill:url(#radialGradient2912)" />
    <path
       id="rect2929"
       fill-rule="evenodd"
       fill="url(#linearGradient3193)"
       d="m 150.4,24.9 c 30.42,11.706 5.26,91.39 3.43,96.1 -10.61,-5.94 -8.82,-44.031 -24.82,-40.768 -25.26,5.152 39.55,-34.487 21.39,-55.332 z"
       style="fill:url(#linearGradient3193)" />
    <path
       id="rect2926"
       fill-rule="evenodd"
       fill="url(#linearGradient3190)"
       d="m 146.79,38.863 c 7.19,-24.17 -14.31,38.357 -27.32,54.133 10.93,27.674 36.12,21.824 47.05,44.434 0,0 -27.76,-39.345 -19.72,-56.429 8.04,-17.085 -0.01,-42.138 -0.01,-42.138 z"
       style="fill:url(#linearGradient3190)" />
    <path
       id="path2935"
       fill-rule="evenodd"
       fill="url(#radialGradient2937)"
       transform="matrix(0.1449,-0.056785,0.014618,0.083536,206.83,333.76)"
       d="m -494.29,-2546.9 a 26.429,22.143 0 1 1 0,-0.1 l -26.42,0.1 z"
       style="fill:url(#radialGradient912)" />
    <path
       id="path2945"
       fill-rule="evenodd"
       fill="url(#linearGradient3186)"
       d="m 73.089,107.46 c -6.18,1.81 -16.234,8.65 -16.753,22.43 0.335,9.76 7.547,22.02 22.095,25.04 15.032,3.13 27.959,-8.67 25.549,-22.68 -1.06,-6.19 1.06,-5.49 -2.35,-10.35 -0.54,-0.76 -3.177,-9.17 -4.533,-11.56 -0.498,-0.88 -0.255,0.83 -0.61,1.35 -0.607,0.31 -1.202,-0.04 -1.693,-0.44 -3.558,-2.93 -11.412,-6.09 -21.705,-3.79 z m 4.043,7.89 c 9.819,0 18.567,4.24 20.133,13.35 1.567,9.11 -6.697,18.52 -16.685,15.88 -11.512,-3.06 -11.467,-10.37 -11.604,-11.62 -1.05,-9.63 -1.664,-17.61 8.156,-17.61 z"
       style="fill:url(#linearGradient3186)" />
    <path
       id="path2931"
       d="m 81.78,112.33 c -13.381,0.36 -24.786,11.39 -21.991,24.93 5.105,20.81 25.144,18.61 38.552,29.79 13.019,13.4 18.979,25.69 18.979,25.69 l 4.15,2.49 c -5.13,-21.79 -10.58,-43.49 -16.1,-65.18 -3.44,-13.64 -8.26,-17.46 -22.29,-17.72 -0.438,-0.01 -0.869,-0.01 -1.3,0 z m 2.175,6.9 c 9.735,0 17.525,5.65 18.375,14.61 0.85,8.96 -6.367,16.24 -16.102,16.24 -9.736,0 -16.294,-6.47 -17.146,-15.43 -0.851,-8.96 5.137,-15.42 14.873,-15.42 z"
       fill-rule="evenodd"
       stroke="#dadada"
       stroke-width="0.068708"
       fill="url(#radialGradient2947)"
       style="fill:url(#radialGradient2947)" />
    <path
       id="path2048"
       fill-rule="evenodd"
       fill="url(#radialGradient2937)"
       transform="matrix(0.1449,-0.056785,0.014618,0.083536,186.67,297.47)"
       d="m -494.29,-2546.9 a 26.429,22.143 0 1 1 0,-0.1 l -26.42,0.1 z"
       style="fill:url(#radialGradient2937)" />
    <path
       id="rect2941"
       fill-rule="evenodd"
       fill="url(#linearGradient3179)"
       d="m 101.73,120.43 c 0,0 2.91,3.25 3.1,3.43 13.38,13.06 18.68,71.78 18.68,71.78 l -2.29,-0.6 z"
       style="fill:url(#linearGradient3179)" />
    <path
       id="rect2986"
       fill-rule="evenodd"
       fill="url(#linearGradient3176)"
       d="m 98.368,116.31 c 0,0 1.502,0.87 3.182,2.68 1.63,1.75 4.25,5.25 4.25,5.25 l 1.91,2.94 -6.93,-7.83 z"
       style="fill:url(#linearGradient3176)" />
    <path
       id="path3033"
       fill-rule="evenodd"
       fill="#e6e6e6"
       d="m 84.533,159.03 c 4.444,1.89 8.871,4.02 12.802,7.24 13.635,13.66 20.155,26.2 20.155,26.2 l 4.27,2.54 c -3.32,-12.01 -6.74,-24 -10.2,-35.98 z" />
  </g>
  <metadata
     id="metadata907">
    <rdf:RDF>
      <cc:Work>
        <dc:format>image/svg+xml</dc:format>
        <dc:type
           rdf:resource="http://purl.org/dc/dcmitype/StillImage" />
        <cc:license
           rdf:resource="http://creativecommons.org/publicdomain/zero/1.0/" />
        <dc:publisher>
          <cc:Agent
             rdf:about="http://openclipart.org/">
            <dc:title>Openclipart</dc:title>
          </cc:Agent>
        </dc:publisher>
        <dc:title></dc:title>
      </cc:Work>
      <cc:License
         rdf:about="http://creativecommons.org/publicdomain/zero/1.0/">
        <cc:permits
           rdf:resource="http://creativecommons.org/ns#Reproduction" />
        <cc:permits
           rdf:resource="http://creativecommons.org/ns#Distribution" />
        <cc:permits
           rdf:resource="http://creativecommons.org/ns#DerivativeWorks" />
      </cc:License>
    </rdf:RDF>
  </metadata>
</svg>
