<?xml version="1.0" encoding="UTF-8" standalone="no"?>
<svg
   xmlns:dc="http://purl.org/dc/elements/1.1/"
   xmlns:cc="http://creativecommons.org/ns#"
   xmlns:rdf="http://www.w3.org/1999/02/22-rdf-syntax-ns#"
   xmlns:svg="http://www.w3.org/2000/svg"
   xmlns="http://www.w3.org/2000/svg"
   xmlns:sodipodi="http://sodipodi.sourceforge.net/DTD/sodipodi-0.dtd"
   xmlns:inkscape="http://www.inkscape.org/namespaces/inkscape"
   version="1.0"
   width="81.691498"
   height="82"
   viewBox="0 0 81.6915 82.000001"
   id="Layer_1"
   xml:space="preserve"
   sodipodi:docname="af4925ab-0087-441b-b1de-8ece6c0905d2.svg"
   inkscape:version="1.0.1 (c497b03c, 2020-09-10)"><sodipodi:namedview
   pagecolor="#ffffff"
   bordercolor="#666666"
   borderopacity="1"
   objecttolerance="10"
   gridtolerance="10"
   guidetolerance="10"
   inkscape:pageopacity="0"
   inkscape:pageshadow="2"
   inkscape:window-width="1848"
   inkscape:window-height="1027"
   id="namedview848"
   showgrid="false"
   fit-margin-top="0"
   fit-margin-left="0"
   fit-margin-right="0"
   fit-margin-bottom="0"
   inkscape:zoom="2.1561046"
   inkscape:cx="154.91089"
   inkscape:cy="155.49139"
   inkscape:window-x="533"
   inkscape:window-y="136"
   inkscape:window-maximized="0"
   inkscape:current-layer="Layer_1" /><defs
   id="defs28" />


<g
   id="g5"
   transform="matrix(0.26367423,0,0,0.26367423,4.9999504e-4,-0.00108204)">
	<path
   d="m 147.686,303.741 v -31.931 0 c 4.14,0.036 8.28,1.188 12.852,3.6 4.5,2.269 9.145,6.912 13.933,10.477 4.644,3.563 10.188,8.712 13.716,10.728 3.348,1.944 5.436,1.261 6.66,0.721 1.224,-0.648 1.439,-2.341 0.647,-4.788 v 0 c 5.185,3.815 11.376,7.092 18.864,10.26 7.452,3.096 20.556,7.271 25.704,8.1 4.896,0.576 3.708,-2.664 4.067,-4.031 0.36,-1.404 -3.06,-3.816 -1.907,-4.32 1.151,-0.504 4.859,0.144 8.352,0.972 3.456,0.721 7.561,2.809 11.772,3.349 3.96,0.359 10.08,0.468 12.239,-0.505 2.017,-1.044 1.188,-3.636 0.433,-5.004 -0.864,-1.403 -2.484,-2.556 -5.148,-3.312 v 0 c 5.256,-0.72 10.296,-1.836 15.66,-3.348 5.22,-1.585 13.284,-3.996 15.84,-5.977 2.484,-2.196 3.24,-4.212 -1.08,-6.192 -4.644,-1.943 -21.815,-3.348 -25.704,-5.472 -3.815,-2.304 1.765,-4.968 2.988,-7.848 1.188,-3.024 5.185,-7.776 4.068,-9.54 -1.188,-1.729 -5.868,-0.54 -11.124,-0.72 -5.508,-0.324 -16.38,0.035 -20.809,-0.721 -4.319,-0.828 -4.788,-2.447 -5.147,-4.031 -0.468,-1.729 3.636,-5.148 2.592,-5.977 -1.224,-0.899 -4.14,-0.216 -9.432,0.937 -5.437,1.044 -17.064,4.5 -22.104,5.508 -4.932,0.899 -6.588,0.72 -7.488,0 -0.972,-0.864 1.944,-4.032 1.513,-4.788 -0.685,-0.828 -1.261,-0.828 -4.933,0 -3.779,0.792 -11.376,4.355 -16.956,5.004 -5.688,0.504 -14.615,-0.396 -16.487,-1.188 -1.765,-0.899 2.735,-2.231 5.58,-3.563 2.556,-1.368 5.651,-4.032 10.691,-4.536 5.04,-0.576 14.58,0.72 19.729,0.972 4.968,0.072 7.992,0.36 10.728,-0.252 2.664,-0.792 3.024,-2.447 5.796,-3.563 2.736,-1.044 9.036,-1.477 10.692,-3.097 1.512,-1.728 1.188,-4.247 -1.26,-7.416 v 0 c 4.644,1.297 9.18,1.332 14.147,0.505 4.824,-0.973 10.008,-4.86 14.977,-5.977 4.859,-1.152 9.972,-0.54 14.363,-0.936 4.248,-0.54 11.088,-0.612 11.376,-2.16 0.108,-1.764 -6.695,-5.472 -9.863,-7.632 -3.204,-2.232 -8.532,-3.024 -8.784,-5.004 -0.288,-2.017 3.384,-5.112 7.271,-6.912 3.96,-2.053 11.196,-3.349 15.876,-4.284 4.429,-0.864 8.028,0.144 10.944,-0.72 2.916,-1.009 6.876,-3.349 6.192,-4.933 -0.937,-1.764 -6.912,-3.527 -11.124,-4.752 -4.393,-1.151 -12.24,-1.116 -14.364,-2.376 -2.088,-1.404 2.556,-4.824 1.692,-5.976 -1.116,-1.188 -4.356,-1.08 -7.488,-1.188 -3.132,-0.252 -7.704,-0.288 -10.944,-0.252 -3.312,-0.036 -8.136,0.972 -8.784,0.252 -0.72,-0.899 4.86,-3.456 4.5,-4.752 -0.54,-1.26 -2.592,-2.916 -7.271,-2.628 -4.86,0.288 -14.904,1.764 -20.809,4.032 -5.796,2.088 -10.439,6.948 -13.932,8.604 -3.6,1.44 -5.58,1.801 -7.056,0.937 -1.477,-0.973 -0.9,-5.94 -1.729,-5.725 -0.972,0.217 -1.584,4.248 -3.636,7.381 -2.196,3.023 -5.796,6.911 -9,11.231 -3.168,4.32 -5.832,10.26 -10.08,14.508 -4.464,4.141 -12.924,8.856 -16.092,10.261 -3.204,1.224 -4.356,0.071 -2.772,-2.629 1.656,-2.915 6.444,-7.848 11.988,-13.823 5.292,-6.084 16.668,-17.604 19.944,-21.924 3.023,-4.429 -1.152,-2.664 -0.864,-4.032 0.252,-1.44 0.612,-2.017 2.592,-4.068 1.872,-2.088 7.344,-5.652 8.784,-8.352 1.296,-2.809 -1.728,-5.904 -0.864,-8.316 0.864,-2.628 4.896,-4.859 5.58,-6.696 0.468,-1.836 -1.548,-3.636 -2.592,-4.032 -1.296,-0.504 -3.744,2.16 -4.284,1.188 -0.576,-1.152 0.18,-5.22 1.296,-7.632 1.116,-2.448 3.204,-3.6 5.148,-6.912 1.836,-3.6 5.508,-10.44 6.012,-13.284 0.36,-2.772 -2.988,-0.936 -3.24,-3.096 -0.252,-2.376 1.368,-7.092 1.944,-10.26 0.432,-3.24 2.16,-9.144 0.864,-8.568 -1.404,0.612 -6.372,9.216 -9.216,11.916 -2.952,2.484 -6.12,1.98 -7.956,3.348 -1.836,1.296 -1.98,1.656 -3.204,4.284 -1.368,2.484 -1.944,8.28 -4.5,10.729 -2.7,2.376 -9.216,4.896 -10.944,3.816 -1.692,-1.26 1.908,-10.296 0.648,-10.728 -1.477,-0.396 -6.444,5.04 -9.217,8.1 -2.916,2.88 -5.508,8.136 -7.92,9.54 -2.376,1.26 -5.22,-2.88 -6.443,-1.188 -1.368,1.692 -0.612,5.688 -1.477,11.412 -1.08,5.688 -2.592,16.272 -4.104,22.429 -1.548,6.084 -3.097,10.224 -4.933,13.824 -1.908,3.42 -3.924,5.724 -6.192,6.912 v 0 c 1.404,-16.849 2.448,-32.4 2.988,-47.197 0.54,-14.904 0.612,-28.368 0.216,-41.22 v 0 c 3.384,3.888 7.272,6.48 11.809,7.38 4.5,0.864 10.116,0.252 15.192,-1.692 5.004,-2.016 11.952,-6.048 14.58,-10.008 2.304,-4.104 1.907,-9.936 0.216,-14.04 -1.729,-4.104 -5.112,-7.596 -10.296,-10.476 v 0 c 2.808,0.18 5.544,-1.044 8.604,-3.816 2.952,-2.844 7.272,-7.704 9.216,-12.636 1.944,-5.04 2.772,-12.06 2.341,-17.172 -0.721,-5.184 -2.053,-11.232 -5.797,-13.572 -3.888,-2.376 -11.556,-2.016 -16.487,-0.72 -4.896,1.296 -8.929,4.104 -12.637,7.884 -3.815,3.528 -7.128,8.1 -10.079,13.572 v 0 c 1.331,-4.5 1.836,-9.684 1.512,-15.552 -0.324,-5.976 -1.225,-14.004 -3.672,-19.764 -2.665,-5.976 -7.237,-12.204 -11.773,-14.796 -4.752,-2.556 -11.34,-2.412 -15.444,0 -4.104,2.376 -6.912,7.74 -8.568,14.292 -1.656,6.479 -2.088,14.616 -1.296,24.552 v 0 c -3.6,-3.456 -7.956,-6.12 -13.5,-7.848 -5.616,-1.8 -14.58,-4.104 -19.512,-2.88 -4.932,1.044 -10.152,4.356 -9.828,9.54 0.108,5.256 7.56,15.696 11.124,21.456 3.564,5.544 6.552,9 10.08,12.168 3.42,3.168 6.876,5.292 10.512,6.66 v 0 c -8.388,3.96 -13.896,8.28 -16.524,13.104 -2.628,4.752 -2.412,11.16 0.648,15.48 3.024,4.176 12.276,7.308 16.92,9.792 4.428,2.412 6.3,4.176 9.648,4.752 3.204,0.396 5.724,-0.18 9.648,-2.124 3.96,-2.016 8.352,-5.148 13.716,-9.54 v 0 c 0.576,12.708 0.792,25.416 0.648,38.664 -0.144,13.212 -0.756,26.28 -1.692,40.032 v 0 c -1.692,-2.412 -2.916,-5.328 -3.672,-8.604 -0.792,-3.492 0.108,-9.469 -1.044,-11.412 -1.296,-1.836 -4.968,1.943 -6.444,0.216 -1.476,-2.052 -1.332,-8.82 -2.772,-11.412 -1.728,-2.556 -5.508,-3.708 -6.876,-3.601 -1.368,0.036 -0.684,3.709 -1.296,4.068 -0.648,0.324 -1.512,0.504 -2.988,-2.376 -1.692,-3.024 -4.608,-12.636 -6.66,-15.516 -2.088,-2.988 -4.284,-1.872 -5.76,-1.908 -1.548,-0.036 -1.656,3.168 -3.24,1.692 -1.8,-1.656 -4.752,-8.748 -6.624,-10.728 -1.908,-1.908 -3.816,-2.088 -4.068,-0.972 -0.18,1.044 3.708,6.084 2.772,6.912 -1.152,0.648 -5.796,-1.548 -9.216,-2.844 -3.456,-1.404 -6.66,-3.528 -11.16,-5.256 -4.68,-1.908 -12.6,-4.896 -16.272,-5.22 -3.78,-0.216 -6.012,1.368 -5.58,3.78 0.504,2.232 7.452,7.812 8.352,9.792 0.684,1.728 -4.68,0.432 -3.852,1.656 0.72,1.224 7.272,4.536 8.568,6.192 1.152,1.512 -1.368,2.16 -1.044,3.6 0.36,1.368 1.296,3.492 3.204,5.004 1.8,1.476 7.236,2.701 7.704,3.816 0.432,0.937 -3.6,1.656 -5.148,2.592 -1.692,0.973 -4.788,1.44 -4.716,3.349 -0.036,1.836 1.476,4.104 4.932,7.632 3.456,3.528 12.888,10.116 15.66,13.356 2.556,3.06 -1.152,3.132 0,5.22 1.116,2.052 3.636,4.355 6.444,6.912 2.7,2.34 7.812,5.363 9.648,7.416 1.656,1.907 -1.008,2.664 0.612,4.5 1.692,1.764 4.896,2.987 9.216,6.443 4.176,3.42 12.888,10.656 15.876,14.221 2.736,3.527 2.268,6.3 1.512,6.912 -0.828,0.539 -1.908,-0.505 -6.012,-3.816 -4.248,-3.492 -14.976,-13.356 -18.864,-16.416 -3.888,-3.061 -2.268,-0.288 -4.284,-1.692 -2.16,-1.512 -6.012,-4.319 -8.352,-6.912 -2.448,-2.699 -4.428,-8.1 -5.796,-8.819 -1.44,-0.685 -1.44,5.04 -2.772,4.536 -1.512,-0.685 -3.996,-6.013 -5.796,-8.353 -1.908,-2.483 -3.672,-4.968 -5.148,-5.939 -1.44,-0.973 -2.376,0.863 -3.636,0.252 -1.332,-0.721 -1.512,-2.736 -4.284,-4.536 -2.952,-1.944 -8.82,-4.176 -12.888,-6.696 -4.068,-2.7 -8.352,-6.66 -11.34,-8.568 -3.24,-1.979 -6.804,-4.248 -7.092,-2.628 -0.18,1.692 4.716,9.54 5.796,12.42 1.008,2.664 1.476,3.385 0,3.816 -1.656,0.36 -5.976,-1.044 -9.648,-1.44 -3.852,-0.539 -8.388,-1.26 -12.636,-1.188 -4.212,-0.036 -10.584,0.432 -12.456,1.404 -2.016,0.936 -0.756,2.195 0.864,4.319 1.548,2.017 6.552,5.148 8.784,7.849 2.232,2.592 1.692,5.508 4.5,7.632 2.772,1.979 8.208,2.592 11.592,4.752 3.312,2.124 7.38,5.22 7.92,7.884 0.252,2.557 -3.384,5.292 -5.364,7.38 -2.016,1.944 -4.932,2.88 -5.976,4.752 -1.152,1.872 -1.296,4.716 -0.432,6.192 0.792,1.26 2.16,1.296 5.364,1.908 3.132,0.54 7.632,1.151 13.5,1.691 v 0 c -3.06,2.809 -3.276,4.717 -0.648,5.725 2.592,0.972 10.692,0.071 16.092,0.216 5.292,-0.036 10.728,-0.324 15.624,0.252 4.752,0.54 9.108,1.656 13.068,3.348 v 0 c -4.284,3.061 -6.444,5.761 -6.624,8.101 -0.144,2.268 2.088,4.968 5.58,5.724 3.384,0.576 10.476,-1.872 14.76,-1.908 4.248,-0.107 6.336,0.216 10.728,1.404 4.356,1.08 10.548,2.88 15.228,5.256 4.644,2.196 8.532,5.004 12.204,8.28 v 0 31.68 0 c 3.278,0.138 6.554,0.282 9.866,0.461 z"
   style="fill-rule:evenodd;stroke:#000000;stroke-width:0.036;stroke-miterlimit:10"
   id="path7" />
	<path
   d="m 139.55,270.874 5.58,0.72 v 0 c 0.18,4.788 0.324,9.504 0.432,14.544 0.108,4.932 0.18,10.008 0.216,15.228 v 0 c -0.72,-0.144 -1.584,-0.216 -2.592,-0.216 -1.008,0 -2.196,0.072 -3.42,0.216 v 0 c -0.072,-10.152 -0.144,-20.304 -0.216,-30.492 z"
   style="fill:#00c200;fill-rule:evenodd;stroke:#000000;stroke-width:0.036;stroke-miterlimit:10"
   id="path9" />
	<path
   d="m 143.402,267.777 c -3.924,-1.296 -8.136,-2.7 -12.636,-4.752 -4.572,-2.088 -10.548,-5.724 -14.58,-7.164 -4.176,-1.476 -6.192,-1.403 -10.08,-1.439 -3.996,-0.036 -9.648,0.611 -13.068,0.972 -3.42,0.108 -5.328,0.504 -7.092,0.216 -1.872,-0.359 -3.456,-0.936 -3.636,-2.124 -0.252,-1.368 1.116,-3.456 2.592,-5.004 1.44,-1.512 3.456,-2.736 6.192,-3.815 v 0 c -3.132,-1.872 -6.624,-3.097 -10.476,-4.068 -3.96,-0.937 -7.812,-1.224 -12.672,-1.404 -5.004,-0.18 -12.276,-0.036 -16.272,0 -3.888,-0.036 -5.832,-0.072 -7.092,-0.504 -1.332,-0.684 -0.972,-1.908 -0.864,-2.844 0,-0.864 0.36,-1.656 1.08,-2.376 v 0 c -4.824,-0.324 -8.748,-0.756 -11.772,-1.44 -3.168,-0.792 -5.904,-1.296 -6.66,-2.628 -0.756,-1.476 0.288,-3.168 2.16,-5.472 1.872,-2.304 7.272,-5.796 8.568,-8.1 1.152,-2.341 0.324,-4.032 -1.512,-6.192 -2.052,-2.304 -6.768,-5.616 -9.864,-7.164 -3.132,-1.729 -6.192,-0.756 -8.352,-2.484 -2.196,-1.907 -2.988,-6.084 -4.716,-8.1 -1.836,-2.088 -4.14,-2.196 -5.796,-3.816 -1.656,-1.8 -4.68,-4.859 -4.068,-5.976 0.504,-1.008 2.916,-0.576 7.092,-0.252 4.032,0.252 12.06,0.828 17.136,1.439 4.968,0.433 11.016,1.944 12.852,1.188 1.62,-0.937 -1.548,-3.924 -2.556,-6.192 -1.044,-2.376 -3.6,-6.407 -3.204,-7.38 0.288,-0.936 2.664,-0.18 5.328,1.44 2.664,1.476 6.516,5.184 10.296,7.38 3.6,2.016 8.964,3.636 11.376,5.256 2.196,1.692 1.152,2.988 2.556,4.284 1.368,1.044 4.464,0.864 6.228,2.376 1.692,1.62 2.592,4.032 4.5,6.66 1.836,2.376 5.364,7.128 6.84,7.884 1.368,0.612 0.9,-4.032 1.944,-3.816 0.972,0.252 2.448,2.845 4.284,5.004 1.836,2.124 4.428,5.328 6.66,7.129 2.052,1.584 3.888,1.044 6.192,2.411 2.232,1.297 4.608,2.664 7.524,5.221 2.88,2.412 6.696,6.983 9.648,9.54 2.916,2.412 5.364,5.075 7.488,5.472 2.016,0.36 3.816,-1.548 4.284,-3.096 0.288,-1.656 0.036,-3.744 -2.124,-6.408 -2.304,-2.772 -6.732,-6.048 -10.944,-9.54 -4.248,-3.528 -11.736,-8.784 -14.148,-11.196 -2.484,-2.448 0.432,-2.088 -0.432,-3.348 -0.972,-1.368 -2.34,-2.412 -4.932,-4.536 -2.772,-2.232 -8.892,-6.156 -10.728,-8.568 -1.8,-2.447 0.72,-4.392 0.216,-5.976 -0.648,-1.692 -0.756,-1.512 -3.636,-4.032 -2.988,-2.7 -10.944,-8.64 -13.716,-11.448 -2.808,-2.808 -3.348,-3.96 -2.988,-5.256 0.252,-1.332 3.168,-2.088 4.716,-3.096 1.476,-1.188 2.952,-2.412 4.284,-3.816 v 0 c -1.692,-1.188 -3.528,-2.556 -5.364,-3.96 -1.944,-1.512 -4.896,-3.06 -5.796,-4.788 -0.828,-1.8 1.476,-3.996 0.648,-5.472 -1.152,-1.62 -5.76,-2.592 -6.444,-3.348 -0.648,-0.72 3.132,0.072 3.024,-0.936 -0.216,-1.188 -2.124,-3.384 -3.636,-5.472 -1.656,-2.088 -5.184,-5.472 -5.58,-6.696 -0.324,-1.26 0.36,-1.44 3.42,-0.936 2.952,0.36 9.612,1.872 14.148,3.564 4.5,1.764 8.784,4.608 12.42,6.444 3.42,1.584 6.444,3.42 8.388,3.564 1.8,0 2.196,-2.34 2.988,-2.844 0.756,-0.504 1.008,-0.828 1.728,0 0.576,0.72 1.188,3.096 2.124,4.5 0.972,1.404 2.16,3.024 3.42,3.348 1.116,0.072 2.268,-2.376 3.456,-2.628 0.972,-0.468 1.872,-0.684 2.988,0.72 1.152,1.368 2.484,5.04 3.852,8.1 1.26,2.988 2.592,7.849 3.852,10.008 1.152,1.944 2.232,2.736 3.24,2.376 0.9,-0.432 1.476,-3.924 2.556,-4.5 0.972,-0.611 2.556,-0.252 3.636,0.937 0.972,1.116 1.764,3.78 2.376,6.192 0.432,2.376 -0.252,6.623 0.864,7.884 1.152,1.044 4.716,-1.62 5.976,-1.188 1.044,0.433 0.756,1.836 1.08,3.816 0.216,1.872 0.252,4.5 1.08,7.596 0.9,3.061 2.16,6.588 4.068,10.729 v 0 c -0.648,2.052 -1.008,6.084 -1.08,12.096 -0.072,6.048 0.144,13.86 0.648,23.832 v 0 c -4.176,-9.792 -8.676,-19.116 -13.932,-28.656 -5.364,-9.54 -11.844,-19.908 -17.352,-27.899 -5.508,-8.028 -9.072,-13.465 -15.012,-19.765 -6.084,-6.48 -19.224,-17.1 -20.808,-18.108 -1.512,-0.9 6.372,6.732 11.592,12.636 5.076,5.76 13.86,15.516 18.864,21.924 4.86,6.264 7.092,9.864 10.728,15.948 3.6,6.048 6.876,12.096 11.34,20.52 4.392,8.496 9.468,18.145 15.228,29.772 v 0 c 0.144,0.611 0.144,1.908 0,4.284 -0.216,2.304 -0.576,5.436 -1.08,9.54 v 0 c -8.82,-1.801 -16.344,-4.104 -22.716,-6.912 -6.408,-2.988 -9.936,-6.301 -15.444,-10.225 -5.688,-3.96 -12.06,-8.892 -18,-13.14 -5.976,-4.356 -11.16,-9.18 -17.352,-12.384 -6.408,-3.24 -18.288,-6.084 -19.944,-6.444 -1.548,-0.432 6.444,2.484 10.512,4.32 3.888,1.764 7.776,3.06 13.068,6.66 5.148,3.527 11.088,9.071 18.216,14.544 7.128,5.436 18.072,13.68 24.228,17.64 5.94,3.708 6.948,3.384 11.772,5.004 4.752,1.656 10.404,2.988 16.956,4.536 v 0 c 2.484,2.124 6.804,4.608 13.5,7.74 6.661,3.06 16.129,7.739 25.921,10.728 9.576,2.844 20.735,4.32 31.536,6.66 10.8,2.304 24.084,5.796 32.76,7.128 8.532,1.152 18.18,0.685 18.252,0.252 -0.144,-0.432 -10.44,-1.332 -18.648,-2.844 -8.352,-1.656 -21.348,-4.86 -30.672,-6.696 -9.323,-1.943 -15.804,-2.052 -24.876,-4.5 -9.216,-2.592 -22.536,-7.308 -29.556,-10.26 -7.021,-2.952 -11.053,-5.364 -12.241,-7.38 v 0 c 1.836,-1.98 6.048,-4.824 13.069,-8.82 6.948,-4.104 19.188,-10.584 28.512,-15.012 9.216,-4.428 14.652,-6.048 26.604,-11.232 12.023,-5.363 42.336,-18.863 44.567,-20.231 1.872,-1.26 -21.204,7.596 -32.58,12.132 -11.412,4.392 -25.02,9.54 -35.136,14.076 -10.152,4.464 -18.432,9 -25.524,12.636 -7.199,3.636 -12.78,6.444 -17.136,8.82 v 0 l -0.216,-9.54 v 0 c 6.552,-9.685 11.953,-19.368 16.489,-29.448 4.428,-10.116 7.02,-22.5 10.296,-30.744 3.132,-8.352 5.292,-12.96 9,-18.828 3.672,-5.976 12.204,-14.364 13.5,-16.417 1.224,-2.088 -2.664,0.036 -5.977,4.032 -3.491,3.924 -10.476,12.348 -14.147,19.296 -3.672,6.84 -5.508,14.725 -7.74,21.708 -2.376,6.804 -2.376,12.204 -5.976,19.548 -3.672,7.309 -8.641,15.444 -15.445,24.408 v 0 c -0.216,-4.716 -0.288,-8.712 -0.216,-12.132 -0.036,-3.492 0.432,-4.932 0.432,-8.353 0,-3.491 -0.144,-7.416 -0.432,-12.168 v 0 c 2.664,-0.144 5.04,-1.907 7.271,-5.58 2.197,-3.707 4.177,-10.224 5.796,-16.199 1.44,-6.12 2.557,-14.256 3.204,-19.548 0.648,-5.293 0.108,-9.865 0.864,-11.917 0.612,-2.16 1.944,-0.648 3.024,-0.72 1.044,-0.108 1.439,1.26 2.987,0.216 1.404,-1.224 3.168,-4.392 5.58,-7.02 2.34,-2.736 7.092,-8.316 8.568,-8.82 1.332,-0.396 -1.08,4.284 -0.432,5.976 0.504,1.584 1.691,3.348 3.852,3.348 2.16,-0.18 6.732,-2.556 9,-4.068 2.088,-1.62 2.7,-2.916 4.068,-5.256 1.332,-2.484 2.376,-7.164 4.104,-9.036 1.62,-1.908 3.744,-0.972 5.544,-1.908 1.656,-1.008 3.276,-2.232 4.716,-3.816 1.44,-1.728 3.204,-5.904 3.889,-5.724 0.396,0.216 -0.288,4.644 -0.648,6.912 -0.36,2.196 -1.764,4.284 -1.296,5.976 0.252,1.512 3.384,1.296 3.42,3.096 -0.072,1.728 -1.512,4.464 -3.204,7.38 -1.836,2.88 -5.544,6.012 -7.092,9.54 -1.584,3.384 -2.34,8.712 -2.124,10.728 0.252,1.908 2.268,0.648 3.42,0.936 1.08,0.144 3.096,-0.396 2.988,0.468 -0.252,0.936 -3.42,2.484 -4.068,4.788 -0.792,2.196 0.36,6.12 0,8.316 -0.359,1.98 -0.288,1.944 -2.124,4.068 -2.016,2.16 -7.775,6.443 -9.216,8.819 -1.44,2.196 0.72,3.456 0.648,4.752 -0.181,1.225 0.539,-0.035 -1.729,2.881 -2.52,2.88 -8.172,9.575 -12.636,14.544 -4.572,4.859 -10.908,10.619 -14.148,14.76 -3.348,4.032 -5.436,7.812 -5.147,9.54 0.288,1.691 3.384,2.124 7.056,0.72 3.6,-1.584 10.656,-5.832 14.796,-9.54 3.996,-3.852 6.696,-8.892 9.648,-12.636 2.808,-3.744 5.508,-6.696 7.704,-9.54 2.159,-2.952 4.067,-5.472 5.58,-7.848 v 0 c -0.145,1.403 0.504,2.195 1.943,2.376 1.368,0.071 3.528,-0.433 6.624,-1.656 3.096,-1.296 7.956,-4.212 11.809,-5.977 3.672,-1.907 6.731,-3.852 10.296,-5.004 3.491,-1.296 7.596,-1.836 10.512,-2.16 2.771,-0.359 5.832,-0.647 6.408,0.252 0.432,0.9 -2.7,3.816 -2.988,5.005 -0.288,1.008 -0.396,1.367 1.476,1.655 1.872,0.181 5.473,-0.144 9.433,0 3.815,0.036 10.8,-0.071 13.319,0.504 2.412,0.505 1.08,1.549 1.261,2.593 0.107,0.972 -1.836,2.412 -0.433,3.348 1.332,0.756 5.148,1.08 8.389,1.656 3.096,0.468 7.956,1.116 10.691,1.943 2.809,0.973 4.896,2.305 5.58,3.313 0.433,0.756 0,1.26 -2.556,1.656 -2.772,0.216 -8.244,-0.396 -13.068,0.504 -4.932,0.899 -11.916,3.239 -15.66,5.22 -3.815,1.872 -5.58,4.392 -6.659,6.192 -1.08,1.691 -1.332,3.06 0.216,4.535 1.548,1.404 5.651,2.484 8.567,4.068 2.809,1.477 7.776,3.924 7.956,5.004 0,0.9 -3.996,0.973 -7.523,1.188 -3.672,0.107 -9.54,-0.648 -13.716,0.252 -4.141,0.936 -7.452,3.96 -10.908,5.472 -3.601,1.44 -6.265,2.844 -10.08,3.096 -3.924,0.108 -7.92,-0.611 -12.672,-2.159 v 0 c 1.08,1.943 1.8,3.6 2.16,5.256 0.359,1.691 1.476,3.168 0,4.283 -1.584,0.828 -7.272,0.612 -9.433,1.44 -2.268,0.828 -1.188,2.844 -3.852,3.564 -2.845,0.611 -7.2,0.323 -12.24,0.252 -5.076,-0.181 -13.248,-1.152 -17.568,-0.973 -4.319,0.072 -5.111,0.433 -8.352,1.908 -3.528,1.512 -10.008,5.112 -11.808,6.912 -1.692,1.656 0.18,2.268 1.296,3.096 0.899,0.756 1.619,1.261 4.5,1.656 2.844,0.36 8.712,0.756 12.456,0.504 3.672,-0.468 6.264,-1.62 9.432,-2.628 3.132,-1.152 7.38,-3.24 9,-3.348 1.296,-0.108 -0.72,1.512 -0.216,2.628 0.468,0.972 1.008,2.916 3.42,3.348 2.304,0.288 5.832,-0.288 10.728,-1.188 4.824,-1.044 14.256,-3.708 18.433,-4.536 3.96,-0.973 5.436,-1.404 5.976,-0.721 0.468,0.685 -2.7,3.744 -2.556,5.005 0.144,1.151 1.08,1.439 3.204,2.376 2.052,0.827 5.004,2.34 9,2.88 3.924,0.396 10.655,0.071 14.796,0 4.104,-0.145 7.775,-1.008 9.647,-0.504 1.656,0.504 0.9,1.943 0.648,3.348 -0.324,1.26 -1.62,2.88 -2.34,4.284 -0.756,1.332 -1.477,2.483 -2.16,3.6 -1.008,0.973 -2.628,1.116 -2.772,2.376 -0.107,1.188 -0.071,3.564 2.34,4.752 2.305,0.973 7.813,0.973 11.809,1.656 3.96,0.684 9.432,1.44 11.988,2.412 2.483,0.756 4.355,1.656 2.987,2.844 -1.548,1.08 -7.848,2.88 -11.556,4.284 -3.744,1.332 -6.876,2.916 -10.512,4.068 -3.708,1.044 -7.561,1.836 -11.557,2.376 v 0 c 1.44,1.296 2.772,2.699 3.853,4.067 1.116,1.368 3.384,3.492 2.771,4.284 -0.756,0.612 -4.607,0.288 -7.271,0 -2.809,-0.396 -6.336,-1.224 -9.216,-1.908 -2.881,-0.756 -5.257,-2.052 -7.956,-2.376 -2.845,-0.576 -7.488,-1.115 -8.784,-0.252 -1.296,0.973 0.612,4.176 0.864,5.725 0.071,1.332 0.647,2.34 -0.217,2.628 -0.936,0.216 -0.828,0.359 -5.363,-1.225 -4.752,-1.728 -15.372,-5.508 -22.284,-8.567 -6.948,-3.097 -13.141,-6.301 -18.864,-9.756 v 0 c -0.036,1.691 -0.324,2.987 -0.864,4.031 -0.575,1.008 -0.107,2.809 -2.34,1.908 -2.34,-1.188 -7.308,-4.644 -11.16,-7.848 -3.96,-3.204 -7.812,-7.885 -11.987,-10.729 -4.248,-2.771 -8.82,-4.788 -12.889,-6.191 -4.103,-1.618 -7.955,-2.374 -11.555,-2.807 z"
   style="fill:#00c200;fill-rule:evenodd;stroke:#000000;stroke-width:0.036;stroke-miterlimit:10"
   id="path11" />
	<path
   d="m 131.81,56.997 c -1.692,-1.008 -3.42,-2.232 -5.328,-3.816 -2.016,-1.656 -4.716,-4.068 -6.012,-5.724 -1.296,-1.764 -1.8,-3.276 -1.512,-4.536 v 0 c -3.564,-2.7 -7.632,-4.788 -12.204,-6.408 -4.752,-1.728 -11.016,-3.024 -15.444,-3.348 -4.392,-0.396 -8.568,0 -10.728,1.188 -2.304,1.044 -2.988,2.196 -2.34,5.256 0.648,3.06 4.212,8.82 6.408,12.852 2.16,3.852 2.484,6.048 6.66,10.476 4.176,4.428 10.116,9.504 18.216,15.768 v 0 c 0.288,-0.288 1.764,-0.72 4.284,-1.44 2.556,-0.72 6.156,-1.728 10.944,-2.88 v 0 c -0.18,-2.88 0.324,-5.688 1.512,-8.568 1.188,-2.952 2.988,-5.796 5.544,-8.82 z"
   style="fill:#fbffd6;fill-rule:evenodd;stroke:#000000;stroke-width:0.036;stroke-miterlimit:10"
   id="path13" />
	<path
   d="m 126.266,76.761 c 1.188,1.404 2.412,2.628 4.068,4.068 1.548,1.404 3.06,2.952 5.364,4.068 2.232,0.936 4.824,1.62 7.92,1.908 v 0 c 1.908,3.384 2.448,6.696 1.908,10.224 -0.612,3.528 -3.06,7.308 -5.544,10.512 -2.628,3.096 -6.3,5.58 -9.648,7.848 -3.528,2.124 -7.776,4.572 -10.512,5.004 -2.736,0.216 -3.096,-1.656 -5.364,-2.844 -2.376,-1.26 -5.112,-2.52 -8.352,-4.068 -3.348,-1.62 -8.82,-2.772 -11.16,-5.004 -2.448,-2.268 -2.772,-5.652 -2.772,-8.352 -0.036,-2.808 0.504,-5.58 2.988,-8.316 2.376,-2.88 6.372,-6.12 11.592,-8.604 5.256,-2.484 11.628,-4.68 19.512,-6.444 z"
   style="fill:#fbffd6;fill-rule:evenodd;stroke:#000000;stroke-width:0.036;stroke-miterlimit:10"
   id="path15" />
	<path
   d="m 147.47,87.741 c 0.504,0.324 0.72,1.728 0.648,4.068 -0.144,2.304 -0.576,5.688 -1.296,10.008 v 0 c 2.484,1.944 5.22,3.636 8.353,5.22 3.06,1.512 6.228,3.708 10.079,4.068 3.744,0.252 8.353,-0.864 12.456,-2.376 3.925,-1.584 9.576,-3.924 11.557,-7.164 1.872,-3.384 1.62,-9.252 0.216,-12.888 -1.548,-3.78 -5.472,-7.02 -9,-9.036 -3.672,-2.016 -8.388,-2.196 -12.204,-2.88 -3.852,-0.792 -7.308,-1.296 -10.512,-1.656 v 0 c -0.504,2.232 -1.44,4.284 -3.205,6.444 -1.8,2.088 -4.032,4.104 -7.092,6.192 z"
   style="fill:#fbffd6;fill-rule:evenodd;stroke:#000000;stroke-width:0.036;stroke-miterlimit:10"
   id="path17" />
	<path
   d="m 156.902,72.009 c 3.024,0.396 5.94,1.008 9.432,1.44 3.385,0.396 7.561,1.152 10.729,1.44 2.88,0.144 4.464,1.44 7.271,0 2.952,-1.548 7.309,-5.256 9.864,-8.604 2.34,-3.42 3.744,-6.912 4.5,-11.448 0.576,-4.716 1.08,-12.384 -0.432,-16.2 -1.656,-3.852 -5.004,-6.12 -8.784,-6.66 -3.888,-0.576 -9.612,1.008 -13.716,3.348 -4.177,2.124 -7.236,5.832 -10.729,10.008 -3.6,4.212 -6.731,9.072 -10.081,15.012 v 0 c 1.081,1.368 1.801,2.988 2.161,5.004 0.289,1.98 0.217,4.104 -0.215,6.66 z"
   style="fill:#fbffd6;fill-rule:evenodd;stroke:#000000;stroke-width:0.036;stroke-miterlimit:10"
   id="path19" />
	<path
   d="m 151.97,57.429 c 1.512,-1.26 2.7,-4.392 3.421,-9.54 0.72,-5.292 2.195,-14.904 1.08,-21.204 -1.225,-6.408 -5.113,-12.276 -8.353,-16.2 -3.456,-4.032 -7.92,-6.372 -11.592,-7.164 -3.708,-0.792 -7.524,-0.396 -10.044,2.844 -2.664,3.24 -4.104,11.124 -5.148,16.452 -1.008,5.292 -1.296,10.944 -0.864,15.012 0.288,3.924 0.684,5.544 2.988,8.604 2.232,2.952 5.688,6.048 10.512,9.288 v 0 c 3.528,-2.124 6.516,-2.952 9.648,-2.628 2.916,0.288 5.832,1.8 8.352,4.536 z"
   style="fill:#fbffd6;fill-rule:evenodd;stroke:#000000;stroke-width:0.036;stroke-miterlimit:10"
   id="path21" />
	<path
   d="m 133.538,60.273 c -1.98,1.656 -3.204,2.628 -4.068,5.004 -1.008,2.376 -2.484,5.76 -1.512,8.604 1.08,2.592 4.536,5.652 7.308,7.38 2.592,1.62 5.832,2.7 8.352,2.844 2.376,0.144 4.212,-0.54 6.192,-1.908 1.944,-1.548 4.572,-3.96 5.365,-6.66 0.72,-2.88 -0.325,-6.804 -1.045,-9.54 -0.828,-2.7 -1.8,-4.752 -3.888,-6.444 -2.196,-1.8 -6.3,-4.212 -9,-4.032 -2.808,0.036 -5.796,3.096 -7.704,4.752 z"
   style="fill:#f3ec63;fill-rule:evenodd;stroke:#000000;stroke-width:0.036;stroke-miterlimit:10"
   id="path23" />
	<path
   d="m 142.97,252.657 3.636,-3.6 v 0 c -0.828,-12.708 -1.26,-24.264 -1.296,-35.496 -0.036,-11.231 0.468,-21.96 1.08,-31.212 0.468,-9.324 1.692,-16.236 2.16,-24.336 0.396,-8.137 0.36,-15.697 0.432,-24.229 0,-8.64 -0.144,-17.604 -0.432,-27.18 v 0 l -2.16,-1.908 -3.636,5.004 v 0 c 0.54,7.74 0.828,17.028 0.864,28.152 -0.036,11.124 -0.324,27.216 -0.864,38.125 -0.576,10.764 -2.052,18.9 -2.34,26.208 -0.432,7.164 0.252,11.16 0.396,16.848 0.144,5.725 0.684,11.412 0.648,16.92 -0.18,5.292 -0.468,10.297 -1.26,15.013 v 0 c 0.9,0.54 1.836,1.116 2.772,1.691 z"
   style="fill:#00c200;fill-rule:evenodd;stroke:#000000;stroke-width:0.036;stroke-miterlimit:10"
   id="path25" />
</g>
<metadata
   id="metadata845"><rdf:RDF><cc:Work><dc:format>image/svg+xml</dc:format><dc:type
         rdf:resource="http://purl.org/dc/dcmitype/StillImage" /><cc:license
         rdf:resource="http://creativecommons.org/publicdomain/zero/1.0/" /><dc:publisher><cc:Agent
           rdf:about="http://openclipart.org/"><dc:title>Open Clip Art Library</dc:title></cc:Agent></dc:publisher><dc:title>GG anemone canadensis</dc:title><dc:date>2006-09-21T08:23:33</dc:date><dc:description>Colored anemone flower.</dc:description><dc:source>http://openclipart.org/detail/184/gg-anemone-canadensis-by-gerald_g</dc:source><dc:creator><cc:Agent><dc:title>Gerald_G</dc:title></cc:Agent></dc:creator><dc:subject><rdf:Bag><rdf:li>anemone</rdf:li><rdf:li>clip art</rdf:li><rdf:li>clipart</rdf:li><rdf:li>flower</rdf:li><rdf:li>nature</rdf:li><rdf:li>outline</rdf:li><rdf:li>plant</rdf:li></rdf:Bag></dc:subject></cc:Work><cc:License
       rdf:about="http://creativecommons.org/publicdomain/zero/1.0/"><cc:permits
         rdf:resource="http://creativecommons.org/ns#Reproduction" /><cc:permits
         rdf:resource="http://creativecommons.org/ns#Distribution" /><cc:permits
         rdf:resource="http://creativecommons.org/ns#DerivativeWorks" /></cc:License></rdf:RDF></metadata></svg>
