<?xml version="1.0" encoding="UTF-8" standalone="no"?>
<svg
   xmlns:dc="http://purl.org/dc/elements/1.1/"
   xmlns:cc="http://creativecommons.org/ns#"
   xmlns:rdf="http://www.w3.org/1999/02/22-rdf-syntax-ns#"
   xmlns:svg="http://www.w3.org/2000/svg"
   xmlns="http://www.w3.org/2000/svg"
   xmlns:sodipodi="http://sodipodi.sourceforge.net/DTD/sodipodi-0.dtd"
   xmlns:inkscape="http://www.inkscape.org/namespaces/inkscape"
   id="Layer_1"
   xml:space="preserve"
   overflow="visible"
   viewBox="0 0 72.000001 72.012943"
   version="1.1"
   enable-background="new 0 0 294.275 294.343"
   sodipodi:docname="120e0628-bfbc-441c-bd1a-06a1aa1132dc.svg"
   width="72"
   height="72.012939"
   inkscape:version="1.0.1 (c497b03c, 2020-09-10)"><defs
   id="defs934" /><sodipodi:namedview
   pagecolor="#ffffff"
   bordercolor="#666666"
   borderopacity="1"
   objecttolerance="10"
   gridtolerance="10"
   guidetolerance="10"
   inkscape:pageopacity="0"
   inkscape:pageshadow="2"
   inkscape:window-width="2473"
   inkscape:window-height="1574"
   id="namedview932"
   showgrid="false"
   fit-margin-top="0"
   fit-margin-left="0"
   fit-margin-right="0"
   fit-margin-bottom="0"
   inkscape:zoom="2.2699856"
   inkscape:cx="147.1365"
   inkscape:cy="147.15938"
   inkscape:window-x="0"
   inkscape:window-y="25"
   inkscape:window-maximized="0"
   inkscape:current-layer="Layer_1" />
<g
   id="g905"
   transform="matrix(0.24466494,0,0,0.24466494,-2.4466494e-4,-0.00296549)">
	<path
   d="m 147.71,0.067 h 5.682 c 9.702,3.174 18.554,7.2 21.587,17.043 40.445,-17.262 45.035,30.309 79.533,32.95 5.352,9.799 15.13,15.17 13.636,31.813 6.798,7.594 16.372,12.412 21.588,21.588 -0.202,10.806 -0.404,21.613 4.545,27.269 v 13.635 c -96.53,45.51 -173.01,111.05 -276.1,149.98 h -6.817 c -3.248,-6.22 -9.143,-9.79 -11.363,-17.04 v -6.816 c 0.488,-13.215 5.952,-19.678 9.09,-30.679 3.296,-11.556 4.7,-24.88 6.817,-37.494 2.292,-13.653 1.688,-29.438 5.681,-39.767 2.494,-6.455 10.077,-9.91 13.634,-15.907 10.752,-18.126 13.975,-40.632 23.86,-56.811 4.331,-0.849 7.476,5.329 7.954,-1.136 -0.072,-7.918 -2.03,-13.243 0,-20.452 6.418,-2.966 12.407,-6.164 13.634,-13.635 1.54,-9.383 -7.112,-20.859 -4.545,-30.677 2.134,-8.158 12.896,-13.488 21.588,-14.771 8.21,-1.213 16.156,4.114 23.861,3.408 11.52,-1.045 14.78,-13.577 26.14,-12.489 z m 10.22,5.681 C 135.264,1.261 132.626,16.803 119.3,21.655 109.63,8.1 80.134,13.048 80.67,31.88 c 2.307,6.025 8.482,8.181 6.816,18.18 12.466,-3.442 23.456,-8.359 36.359,-11.362 8.956,12.695 22.297,4.001 35.221,5.681 8.834,1.148 17.807,11.939 27.271,14.771 16.326,4.884 31.666,4.363 44.312,12.498 5.612,6.61 4.297,13.984 10.227,20.452 7.138,7.787 16.979,7.908 21.587,17.043 4.55,9.021 3.894,19.845 17.044,19.315 14.307,-15.786 -2.07,-37.986 -15.907,-43.175 2.808,-25.955 -18.473,-41.281 -45.448,-37.495 4.32,-23.746 -27.565,-35.483 -46.584,-22.724 0.89,-11.867 -7.79,-14.176 -13.63,-19.318 z M 78.398,69.375 c 4.125,0.041 8.97,-0.637 10.227,2.272 v 6.817 c -3.989,1.693 -10.069,1.294 -14.771,2.272 -1.413,3.511 -1.769,8.078 -2.271,12.498 39.257,21.768 4.585,90.946 -40.903,67.036 -10.596,13.267 -8.539,45.237 -11.362,62.489 5.837,-5.522 9.445,-13.276 11.362,-22.723 9.392,1.971 13.417,9.308 15.907,18.178 -8.873,7.416 -22.947,9.627 -31.814,17.045 -2.433,13.476 -9.416,22.396 -9.089,38.632 9.885,-8.476 18.248,-5.302 31.813,-7.953 17.971,-3.513 25.478,-23.278 37.495,-27.271 3.783,-1.256 8.95,0.545 12.498,0 23.897,-3.666 28.093,-26.418 44.312,-39.767 3.183,0.604 5.907,1.667 9.09,2.271 22.82,-8.357 47.945,-23.188 69.31,-37.493 6.648,-4.454 21.007,-20.24 23.86,-12.499 7.319,-11.238 29.566,-7.549 34.085,-21.587 -3.29,-4.664 -8.12,-7.785 -11.361,-12.499 3.835,-11.832 -7.598,-17.092 -18.179,-18.179 -5.42,-7.079 -7.081,-17.917 -12.499,-24.997 -14.569,-1.885 -27.381,-11.02 -43.176,-7.953 -12.42,-8.789 -24.578,-17.841 -48.855,-14.771 -5.166,-1.652 -6.434,-7.203 -12.498,-7.953 -13.94,9.151 -35.908,10.289 -43.162,26.138 z m -7.954,7.954 c 6.04,-0.399 13.912,1.035 14.771,-4.545 -5.977,0.295 -10.586,-0.776 -14.771,-2.272 z m -9.089,17.043 c -9.233,20.308 -18.158,40.924 -26.133,62.491 39.294,23.14 73.548,-53.78 26.133,-62.488 z m 207.92,42.038 c -15.718,12.862 -35.521,18.872 -54.536,28.405 -12.008,6.018 -24.092,16.762 -37.495,23.859 -14.914,7.9 -32.403,11.466 -44.312,18.181 -11.024,6.218 -15.767,20.247 -23.86,28.405 -10.598,5.385 -22.454,5.992 -32.95,10.225 -13.038,5.26 -22.085,18.896 -36.358,23.861 -12.532,4.357 -24.31,2.251 -32.95,13.634 4.408,7.62 10.209,5.503 17.043,3.41 21.554,-6.604 40.803,-15.479 57.946,-24.996 59.827,-33.211 112.92,-67.992 173.84,-101.12 11.384,-6.189 39.656,-16.375 32.951,-29.542 -3.34,0.48 -11.15,6.26 -19.31,5.69 z m -249.96,92.03 c 7.793,-3.946 15.111,-8.37 23.86,-11.362 -4.521,-3.435 -5.029,-10.877 -10.226,-13.635 -0.977,11.91 -8.299,17.46 -13.634,25 z"
   id="path833" />
	<path
   d="m 171.57,25.063 c 19.019,-12.759 50.904,-1.022 46.584,22.724 26.977,-3.786 48.255,11.54 45.448,37.495 13.837,5.189 30.214,27.39 15.907,43.175 -13.15,0.529 -12.494,-10.294 -17.044,-19.315 -4.606,-9.135 -14.449,-9.256 -21.587,-17.043 -5.93,-6.468 -4.613,-13.842 -10.227,-20.452 -12.646,-8.135 -27.985,-7.614 -44.312,-12.498 -9.464,-2.832 -18.437,-13.622 -27.271,-14.771 -12.924,-1.68 -26.265,7.014 -35.221,-5.681 -12.903,3.003 -23.894,7.92 -36.359,11.362 1.666,-9.999 -4.51,-12.154 -6.816,-18.18 -0.536,-18.833 28.957,-23.78 38.631,-10.226 13.326,-4.852 15.964,-20.394 38.63,-15.907 5.83,5.146 14.51,7.455 13.63,19.319 z"
   fill="#cbb676"
   id="path835" />
	<path
   d="m 164.75,56.877 c 4.04,2.398 8.469,4.408 11.361,7.954 -2.295,6.038 -7.977,8.688 -10.227,14.771 -3.491,-0.295 -5.108,-2.465 -7.953,-3.409 0.64,-8.07 4.97,-12.456 6.82,-19.316 z m 0,19.315 c 1.186,-4.496 5.627,-5.735 5.681,-11.362 -2.257,-0.015 -1.445,-3.1 -4.545,-2.272 -1.4,3.067 -6.34,11.076 -1.13,13.634 z"
   id="path837" />
	<path
   d="m 144.3,61.422 c 13.621,6.95 4.042,29.119 -3.408,35.222 -1.15,-9.489 5.87,-20.634 3.41,-35.222 z"
   fill="#5d9732"
   id="path839" />
	<path
   d="m 165.88,62.558 c 3.1,-0.828 2.288,2.258 4.545,2.272 -0.054,5.626 -4.495,6.866 -5.681,11.362 -5.2,-2.558 -0.26,-10.567 1.14,-13.634 z"
   fill="#fbf290"
   id="path841" />
	<path
   d="m 70.444,70.511 c 4.186,1.496 8.795,2.568 14.771,2.272 -0.859,5.58 -8.731,4.146 -14.771,4.545 z"
   fill="#fbf290"
   id="path843" />
	<path
   d="M 130.66,78.465 C 129.759,96.388 104.334,104.486 87.483,95.508 80.491,74.058 117.54,65.768 130.66,78.465 Z M 92.032,90.963 c 11.802,8.289 30.259,0.109 32.948,-11.362 -8.66,-8.086 -34.93,-5.112 -32.948,11.362 z"
   id="path845" />
	<path
   d="M 124.98,79.601 C 122.291,91.072 103.834,99.251 92.032,90.963 90.05,74.489 116.32,71.515 124.98,79.601 Z m -24.994,5.681 c 0.362,2.667 3.517,2.543 4.545,4.544 6.829,-1.125 10.89,-5.017 13.634,-10.226 -6.86,-2.923 -17.71,-3.519 -18.174,5.682 z"
   fill="#8a7967"
   id="path847" />
	<path
   d="m 209.06,75.056 c 13.987,0.025 18.065,9.962 17.044,24.997 3.291,3.905 7.62,6.771 11.362,10.226 v -6.817 c 6.184,1.012 9.931,4.46 17.041,4.545 -2.744,7.858 -5.793,15.414 -9.088,22.724 -4.176,-0.369 -6.286,-2.803 -10.227,-3.408 -0.458,-5.382 2.027,-7.819 1.137,-13.635 -2.076,1.711 -2.674,4.901 -4.545,6.817 -5.265,-2.312 -10.356,-4.793 -14.771,-7.954 -5.355,0.704 -6.966,5.155 -12.499,5.681 -0.6,-16.51 0.71,-31.108 4.55,-43.174 z m 1.14,38.634 c -0.769,-7.521 24.84,-29.398 1.137,-34.086 -1.3,9.05 -7.06,25.356 -1.14,34.086 z m 7.95,-4.55 c 5.125,1.314 6.698,6.181 13.636,5.681 2.711,-7.299 -6.998,-9.85 -11.362,-13.634 -0.96,2.46 -2.95,3.87 -2.28,7.95 z m 25,17.05 c 1.651,-4.786 3.854,-9.023 4.545,-14.771 -2.377,-0.653 -3.243,-2.817 -6.817,-2.272 -0.06,5.72 -6.15,16.02 2.27,17.04 z"
   id="path849" />
	<path
   d="m 118.16,79.601 c -2.744,5.208 -6.806,9.101 -13.634,10.226 -1.028,-2.001 -4.183,-1.877 -4.545,-4.544 0.465,-9.202 11.315,-8.606 18.175,-5.682 z"
   id="path851" />
	<path
   d="m 211.33,79.601 c 23.703,4.688 -1.904,26.564 -1.137,34.086 -5.91,-8.73 -0.15,-25.036 1.14,-34.089 z"
   fill="#e9d3a2"
   id="path853" />
	<path
   d="m 128.39,109.14 c -6.41,3.817 -11.273,9.179 -18.181,12.499 -5.815,-1.38 -7.215,-7.176 -11.361,-10.226 7.571,-7.64 24.881,-19.6 29.541,-2.27 z m -23.86,2.28 c 2.513,0.896 2.844,3.975 4.545,5.681 5.384,-2.57 9.898,-6.007 13.634,-10.226 -6.64,-5.65 -13.49,1.45 -18.18,4.55 z"
   id="path855" />
	<path
   d="m 220.42,101.19 c 4.364,3.785 14.073,6.335 11.362,13.634 -6.938,0.5 -8.511,-4.367 -13.636,-5.681 -0.66,-4.08 1.33,-5.49 2.28,-7.95 z"
   fill="#fbf290"
   id="path857" />
	<path
   d="m 122.71,106.87 c -3.734,4.218 -8.25,7.656 -13.634,10.226 -1.701,-1.707 -2.032,-4.785 -4.545,-5.681 4.68,-3.1 11.53,-10.2 18.17,-4.55 z"
   fill="#fbf290"
   id="path859" />
	<path
   d="m 240.88,109.14 c 3.574,-0.544 4.44,1.619 6.817,2.272 -0.691,5.748 -2.894,9.985 -4.545,14.771 -8.43,-1.01 -2.34,-11.31 -2.28,-17.04 z"
   fill="#fbf290"
   id="path861" />
	<path
   d="m 53.401,120.5 h 3.409 c 0.824,3.475 -1.96,3.342 -1.136,6.817 -4.297,0.98 -4.021,-5.08 -2.273,-6.82 z"
   id="path863" />
	<path
   d="m 151.12,138.68 c -12.146,3.35 -29.249,0.775 -37.495,4.545 -9.448,12.452 -21.946,26.858 -43.177,23.86 12.181,-14.332 29.77,-23.254 37.494,-42.041 2.722,1.447 4.627,3.706 4.545,7.953 4.62,-2.576 2.802,-11.592 9.092,-12.498 9.45,6.47 19.92,11.91 29.55,18.19 z m -36.36,1.14 c 6.332,-5.432 20.37,-1.305 28.404,-3.409 -9.177,-2.186 -14.741,-7.982 -21.587,-12.498 -1.71,5.87 -6.25,8.89 -6.81,15.91 z m -32.953,23.86 c 10.888,-8.052 32.229,-11.699 26.132,-32.95 -4.45,14.49 -20.104,23.83 -26.133,32.95 z"
   id="path865" />
	<path
   d="m 121.57,123.91 c 6.846,4.516 12.41,10.312 21.587,12.498 -8.034,2.104 -22.072,-2.023 -28.404,3.409 0.56,-7.02 5.1,-10.04 6.81,-15.91 z"
   fill="#e9d3a2"
   id="path867" />
	<path
   d="m 288.6,130.73 c 6.705,13.167 -21.567,23.352 -32.951,29.542 -60.918,33.131 -114.01,67.913 -173.84,101.12 -17.145,9.516 -36.394,18.391 -57.946,24.996 -6.833,2.093 -12.635,4.21 -17.043,-3.41 8.641,-11.383 20.417,-9.275 32.95,-13.634 14.273,-4.964 23.321,-18.603 36.358,-23.861 10.496,-4.231 22.353,-4.84 32.95,-10.225 8.095,-8.158 12.836,-22.188 23.86,-28.405 11.907,-6.715 29.396,-10.279 44.312,-18.18 13.403,-7.1 25.487,-17.842 37.495,-23.86 19.017,-9.534 38.818,-15.543 54.536,-28.405 8.16,0.56 15.97,-5.22 19.32,-5.69 z"
   fill="#e7d8ac"
   id="path869" />
	<path
   d="m 65.9,131.87 c 3.265,0.145 5.396,1.421 4.544,5.681 -4.425,-2.9 -6.587,2.306 -4.544,6.817 -5.124,-2.08 -0.371,-8.92 0,-12.5 z"
   id="path871" />
	<path
   d="m 31.813,169.36 c 4.569,1.87 10.202,2.678 14.771,4.545 -1.537,8.311 -6.296,13.396 -9.09,20.452 -5.054,0.509 -8.282,-0.81 -11.362,-2.272 2.469,-7 3.031,-15.9 5.681,-22.72 z m 2.273,20.45 c 4.745,-2.072 6.393,-7.241 6.816,-13.635 -3.326,0.298 -3.49,-2.567 -6.816,-2.271 -0.264,3.93 -5.611,13.51 0,15.9 z"
   id="path873" />
	<path
   d="m 113.62,201.17 c -6.569,2.904 -12.692,2.117 -17.043,-2.271 0.322,4.601 1.949,7.897 2.271,12.498 5.272,-3.438 11.603,-5.819 15.907,-10.228 3.476,22.677 -36.431,47.957 -48.857,23.859 8.155,-0.554 13.978,-3.441 20.452,-5.68 -6.175,-1.23 -18.487,1.189 -27.269,1.135 0.893,-6.301 3.214,-11.177 4.545,-17.042 -6.158,4.056 -19.995,4.628 -21.588,-5.681 -4.48,-28.94 91.947,-40.01 71.577,3.41 z m -2.27,-19.31 c -12.169,-15.854 -90.336,2.27 -57.946,22.725 4.825,-1.236 6.944,-5.178 10.227,-7.953 7.48,3.684 0.741,14.558 0,20.451 11.271,-0.092 21.274,-1.449 31.812,-2.272 -0.682,-7.363 -5.798,-20.302 3.409,-21.588 6.268,17.53 19.688,-1.99 12.498,-11.36 z m -39.769,46.58 c 15.594,9.372 32.656,-8.817 36.357,-18.18 -8.456,9.73 -23.346,13.02 -36.359,18.18 z"
   id="path875" />
	<path
   d="m 34.086,173.91 c 3.326,-0.296 3.491,2.57 6.816,2.272 -0.424,6.394 -2.071,11.562 -6.816,13.634 -5.611,-2.39 -0.264,-11.97 0,-15.9 z"
   fill="#fbf290"
   id="path877" />
	<path
   d="m 98.85,193.22 c -9.207,1.286 -4.09,14.225 -3.409,21.588 -10.538,0.823 -20.543,2.183 -31.812,2.272 0.741,-5.895 7.48,-16.769 0,-20.451 -3.282,2.775 -5.401,6.717 -10.227,7.953 -32.39,-20.455 45.777,-38.578 57.946,-22.725 7.19,9.37 -6.23,28.89 -12.5,11.36 z"
   fill="#c5c19d"
   id="path879" />
	<path
   d="m 102.33,166.17 c 5.299,-4.594 9.725,-13.155 15.121,-17.301 2.232,1.428 4.466,2.857 6.697,4.286 -2.465,6.849 -6.27,13.989 -10.947,21.323 -1.13,-3.32 -7.3,-5.53 -10.87,-8.31 z m 10.45,2.64 c 2.772,-5.544 7.661,-11.554 4.746,-15.849 -3.358,3.433 -6.302,8.77 -9.876,11.216 2.27,1.42 1.77,3.45 5.13,4.63 z"
   id="path881" />
	<path
   d="m 107.66,164.18 c 3.574,-2.446 6.518,-7.783 9.876,-11.215 2.915,4.295 -1.974,10.305 -4.746,15.849 -3.37,-1.18 -2.87,-3.21 -5.13,-4.63 z"
   fill="#fbf290"
   id="path883" />
	<path
   d="m 32.95,203.45 c 5.196,2.758 5.707,10.2 10.226,13.635 -8.75,2.992 -16.067,7.416 -23.86,11.362 5.334,-7.54 12.656,-13.09 13.634,-24.99 z"
   fill="#e9d3a2"
   id="path885" />
	<path
   d="m 107.94,210.26 c -3.701,9.362 -20.764,27.552 -36.357,18.18 13.011,-5.16 27.901,-8.45 36.357,-18.18 z"
   fill="#5d9732"
   id="path887" />
	<path
   d="m 57.946,229.58 c 0.912,24.016 -15.119,31.086 -37.494,31.815 -20.089,-18.18 17.343,-43.22 37.494,-31.82 z m -38.631,20.45 c 4.016,12.932 36.781,0.387 32.95,-17.043 -11.192,-9.07 -36.678,5.03 -32.95,17.04 z"
   id="path889" />
	<path
   d="m 52.265,232.99 c 3.832,17.43 -28.935,29.975 -32.95,17.043 -3.728,-12.01 21.758,-26.11 32.95,-17.04 z m -24.996,13.63 c 8.025,1.776 18.282,-2.517 18.18,-12.498 -9.394,-2.66 -18.298,2.17 -18.18,12.5 z"
   fill="#8a7967"
   id="path891" />
	<path
   d="m 45.448,234.12 c 0.103,9.981 -10.154,14.274 -18.18,12.498 -0.117,-10.33 8.787,-15.16 18.18,-12.5 z"
   id="path893" />
	<path
   d="m 121.57,43.243 c 6.064,0.75 7.331,6.301 12.497,7.953 24.278,-3.07 36.438,5.982 48.856,14.771 15.795,-3.067 28.605,6.068 43.176,7.953 5.418,7.079 7.079,17.917 12.499,24.997 10.581,1.087 22.014,6.348 18.178,18.179 3.242,4.713 8.072,7.835 11.362,12.499 -4.519,14.038 -26.766,10.35 -34.085,21.587 -2.854,-7.741 -17.212,8.044 -23.861,12.499 -21.362,14.307 -46.487,29.136 -69.309,37.494 -3.183,-0.604 -5.907,-1.668 -9.09,-2.271 -16.219,13.35 -20.414,36.102 -44.312,39.766 -3.547,0.545 -8.715,-1.256 -12.499,0 -12.017,3.992 -19.522,23.76 -37.494,27.271 -13.565,2.65 -21.929,-0.521 -31.813,7.953 -0.327,-16.234 6.657,-25.156 9.089,-38.631 8.867,-7.42 22.941,-9.629 31.814,-17.045 -2.491,-8.871 -6.516,-16.207 -15.907,-18.178 -1.917,9.444 -5.524,17.199 -11.362,22.723 2.823,-17.254 0.767,-49.223 11.362,-62.49 45.488,23.91 80.161,-45.269 40.903,-67.036 0.503,-4.42 0.858,-8.987 2.271,-12.498 4.702,-0.979 10.782,-0.579 14.771,-2.272 V 71.65 C 87.359,68.741 82.513,69.419 78.389,69.378 85.645,53.529 107.613,52.391 121.563,43.246 Z m 12.5,62.487 c 19.805,-3.909 32.929,-45.188 5.683,-51.129 -1.498,3.522 3.366,6.302 0,7.954 -5.513,-15.794 -39.664,-16.889 -42.041,2.272 19.583,-1.782 32.151,3.451 43.175,10.226 -0.53,11.218 -7.27,22.254 -6.81,30.677 z m 23.86,-29.538 c 2.845,0.943 4.462,3.114 7.953,3.409 2.25,-6.083 7.932,-8.732 10.227,-14.771 -2.894,-3.545 -7.321,-5.556 -11.361,-7.954 -1.85,6.861 -6.18,11.247 -6.82,19.316 z M 87.488,95.508 c 16.851,8.978 42.275,0.88 43.177,-17.043 -13.12,-12.697 -50.169,-4.407 -43.172,17.043 z m 117.03,22.722 c 5.533,-0.526 7.144,-4.978 12.499,-5.681 4.414,3.16 9.507,5.642 14.771,7.954 1.871,-1.916 2.469,-5.106 4.545,-6.817 0.892,5.815 -1.595,8.253 -1.137,13.635 3.939,0.605 6.051,3.039 10.227,3.408 3.295,-7.31 6.344,-14.866 9.088,-22.724 -7.11,-0.084 -10.857,-3.533 -17.041,-4.545 v 6.817 c -3.742,-3.454 -8.071,-6.321 -11.362,-10.226 1.021,-15.035 -3.057,-24.971 -17.044,-24.997 -3.86,12.069 -5.17,26.667 -4.56,43.177 z m -105.67,-6.81 c 4.146,3.05 5.546,8.846 11.361,10.226 6.906,-3.32 11.771,-8.681 18.181,-12.499 -4.66,-17.34 -21.97,-5.38 -29.54,2.27 z m 22.72,9.08 c -6.29,0.906 -4.472,9.922 -9.092,12.498 0.082,-4.247 -1.823,-6.506 -4.545,-7.953 -7.726,18.785 -25.313,27.708 -37.494,42.041 21.229,2.998 33.729,-11.409 43.177,-23.86 8.246,-3.77 25.349,-1.195 37.495,-4.545 -9.63,-6.28 -20.1,-11.72 -29.55,-18.18 z m -95.437,71.58 c 3.08,1.463 6.309,2.779 11.362,2.271 2.794,-7.055 7.553,-12.143 9.09,-20.451 -4.569,-1.869 -10.202,-2.676 -14.771,-4.546 -2.651,6.83 -3.213,15.73 -5.681,22.73 z m 15.907,5.69 c 1.593,10.308 15.43,9.735 21.588,5.681 -1.331,5.865 -3.652,10.741 -4.545,17.043 8.782,0.055 21.094,-2.367 27.269,-1.136 -6.475,2.237 -12.296,5.126 -20.452,5.681 12.427,24.096 52.333,-1.185 48.857,-23.859 -4.306,4.406 -10.635,6.789 -15.907,10.227 -0.323,-4.602 -1.95,-7.898 -2.271,-12.498 4.351,4.389 10.474,5.176 17.043,2.271 20.37,-43.42 -76.057,-32.35 -71.58,-3.4 z m 71.16,-23.29 c 4.679,-7.334 8.482,-14.475 10.947,-21.323 -2.231,-1.429 -4.465,-2.858 -6.697,-4.286 -5.396,4.146 -9.822,12.707 -15.121,17.301 3.57,2.78 9.74,4.99 10.87,8.31 z M 20.45,261.4 c 22.375,-0.729 38.405,-7.802 37.494,-31.815 -20.151,-11.4 -57.583,13.64 -37.494,31.82 z"
   fill="#b5121b"
   id="path895" />
	<path
   d="M 140.89,75.056 C 129.867,68.281 117.297,63.048 97.715,64.83 c 2.377,-19.161 36.528,-18.066 42.041,-2.272 3.366,-1.651 -1.498,-4.432 0,-7.954 27.246,5.942 14.122,47.22 -5.682,51.129 -0.47,-8.423 6.27,-19.459 6.81,-30.674 z m -1.14,-6.817 c -4.914,-9.993 -25.743,-19.261 -35.224,-7.954 13.57,0.073 26.63,6.687 35.22,7.954 z m 1.14,28.405 c 7.45,-6.104 17.029,-28.272 3.408,-35.222 2.46,14.588 -4.56,25.733 -3.41,35.222 z"
   id="path897" />
	<path
   d="m 104.53,60.286 c 9.48,-11.308 30.31,-2.04 35.224,7.954 -8.59,-1.268 -21.65,-7.882 -35.22,-7.954 z"
   fill="#5d9732"
   id="path899" />
	<path
   d="m 107.94,130.73 c 6.099,21.251 -15.244,24.898 -26.132,32.95 6.028,-9.12 21.682,-18.46 26.132,-32.95 z"
   fill="#5d9732"
   id="path901" />
	<path
   d="M 35.222,156.86 C 43.197,135.293 52.12,114.676 61.355,94.369 108.77,103.08 74.516,180 35.222,156.86 Z m 20.452,-29.54 c -0.824,-3.476 1.96,-3.342 1.136,-6.817 h -3.409 c -1.748,1.74 -2.024,7.8 2.273,6.82 z M 65.9,144.36 c -2.043,-4.512 0.119,-9.718 4.544,-6.817 0.852,-4.26 -1.279,-5.537 -4.544,-5.681 -0.371,3.59 -5.124,10.43 0,12.5 z"
   fill="#f9b4a6"
   id="path903" />
</g>
<path
   d="m 52.497513,38.700582 c -7.262635,3.55229 -14.859481,6.665162 -22.128966,10.2084 C 24.582221,35.266465 46.024657,28.853796 52.498491,38.70156 Z m -21.630828,8.590186 c 6.833736,-2.70942 13.422563,-5.73935 19.977871,-8.814055 -6.473834,-7.415794 -23.475601,-2.556748 -19.976893,8.812832 z"
   id="path907"
   style="stroke-width:0.244665" />
<path
   d="m 41.000707,36.594017 c 0.603833,0.301182 0.03866,1.741525 -0.736442,1.30333 -0.117439,-0.910154 0.381678,-1.01536 0.736442,-1.304064 z"
   id="path909"
   style="stroke-width:0.244665" />
<path
   d="m 38.957755,41.36743 c 0.275492,0.03719 0.550985,0.07438 0.826233,0.111322 -0.118173,0.924589 -0.247112,1.836455 -1.324127,1.50469 -0.08808,-0.868561 0.415931,-0.96398 0.49667,-1.614789 z"
   id="path911"
   style="stroke-width:0.244665" />
<path
   d="M 50.846024,38.477937 C 44.290716,41.552886 37.7014,44.582572 30.868153,47.291991 27.366997,35.922411 44.368764,31.063366 50.845046,38.47916 Z M 40.264265,37.895634 c 0.775099,0.438195 1.340275,-1.002148 0.736442,-1.30333 -0.354764,0.291151 -0.853881,0.396357 -0.736442,1.304064 z m -1.805627,5.089031 c 1.077015,0.331521 1.205954,-0.580101 1.324127,-1.504689 -0.275248,-0.03695 -0.550741,-0.07413 -0.826234,-0.111323 -0.07829,0.648362 -0.582302,0.743781 -0.49667,1.614789 z"
   fill="#f9b4a6"
   id="path913"
   style="stroke-width:0.244665" />
<path
   d="m 48.663613,25.613454 c -0.826968,1.121544 -2.665625,0.569335 -3.606117,0.228272 -0.632214,1.912301 0.822074,2.806797 1.542368,4.059236 -2.316732,1.229197 -4.587223,2.552345 -7.411635,2.740248 0.148756,-1.5042 0.342286,-4.039908 -1.632894,-3.796466 -0.143374,0.644937 -0.992361,2.003561 -1.956341,2.266576 -0.61313,-0.210901 -1.226995,-0.422292 -1.840125,-0.633438 C 31.975262,24.953348 49.309773,17.44507 48.663858,25.61639 Z"
   fill="#c5c19d"
   id="path915"
   style="stroke-width:0.244665" />
<path
   d="m 49.632486,25.359002 c 1.962458,-4.90333 -5.614082,-4.018132 -8.58358,-3.249395 -4.244692,1.099035 -7.651896,3.509229 -8.7776,7.56186 1.204975,2.86576 4.911404,2.232812 6.152834,0.06068 -0.08832,1.501508 -0.01908,2.925458 0.310235,4.222672 2.904418,-1.667636 6.344896,-2.237706 9.096888,-4.218024 -0.924344,-1.007041 -1.740302,-2.066929 -2.430257,-3.188718 2.099225,0.702188 3.640614,0.281365 4.230257,-1.191518 z"
   fill="#c5c19d"
   id="path917"
   style="stroke-width:0.244665" />
<path
   d="m 45.402229,26.548074 c 0.689466,1.121789 1.505424,2.181677 2.430257,3.188718 -2.751991,1.980318 -6.19247,2.550143 -9.096887,4.218024 -0.329319,-1.297214 -0.398559,-2.721408 -0.310235,-4.222672 -1.24143,2.172135 -4.948349,2.805328 -6.152834,-0.06068 1.125703,-4.052631 4.532907,-6.46307 8.777599,-7.56186 2.969499,-0.768737 10.546038,-1.653935 8.58358,3.249395 -0.589642,1.47533 -2.131031,1.896154 -4.230257,1.191519 z m -11.643605,3.929319 c 0.613375,0.211146 1.22724,0.422536 1.840125,0.633438 0.96398,-0.262771 1.812968,-1.62164 1.956341,-2.266577 1.97518,-0.243441 1.781651,2.292266 1.632894,3.796466 2.824412,-0.187902 5.094903,-1.51105 7.411635,-2.740247 -0.719804,-1.25244 -2.174582,-2.14669 -1.542367,-4.059236 0.940981,0.341063 2.779149,0.893272 3.606116,-0.228272 0.645916,-8.173767 -16.688596,-0.665489 -14.904988,4.861492 z"
   id="path919"
   style="stroke-width:0.244665" />
<path
   d="m 46.968085,32.028569 c 1.505179,4.581106 9.526763,5.418594 11.061547,0.45263 -2.35857,-4.193557 -9.46364,-4.428436 -11.061303,-0.45263 z"
   id="path921"
   style="stroke-width:0.244665" />
<path
   d="m 58.029387,32.481199 c -1.534294,4.965964 -9.556368,4.128476 -11.061547,-0.45263 1.597662,-3.975806 8.702732,-3.740927 11.061302,0.45263 z m -9.776811,-0.981107 c 0.807394,3.686856 7.435123,4.245671 8.296833,0.744516 -1.262471,-3.033845 -6.483621,-3.31521 -8.296589,-0.743782 z"
   id="path923"
   style="stroke-width:0.244665" />
<path
   d="m 56.551611,32.243874 c -0.86171,3.501155 -7.489439,2.94234 -8.296833,-0.744516 1.81052,-2.571428 7.03167,-2.290063 8.296588,0.743782 z m -6.437135,-0.604323 c 0.493,1.785321 3.456626,2.065462 4.338643,0.324426 -0.567622,-2.003806 -4.098137,-1.8986 -4.337909,-0.325404 z"
   fill="#8a7967"
   id="path925"
   style="stroke-width:0.244665" />
<path
   d="m 54.452385,31.964956 c -0.882017,1.741036 -3.846132,1.460894 -4.338643,-0.324426 0.239772,-1.573195 3.770287,-1.678401 4.337909,0.325404 z"
   id="path927"
   style="stroke-width:0.244665" />
<metadata
   id="metadata929"><rdf:RDF><cc:Work><dc:format>image/svg+xml</dc:format><dc:type
         rdf:resource="http://purl.org/dc/dcmitype/StillImage" /><cc:license
         rdf:resource="http://creativecommons.org/publicdomain/zero/1.0/" /><dc:publisher><cc:Agent
           rdf:about="http://openclipart.org/"><dc:title>Openclipart</dc:title></cc:Agent></dc:publisher><dc:title>pizza slice</dc:title><dc:date>2006-11-03T06:42:23</dc:date><dc:description>a chunky slice of pizza pie</dc:description><dc:source>https://openclipart.org/detail/1207/pizza-slice-by-johnny_automatic</dc:source><dc:creator><cc:Agent><dc:title>johnny_automatic</dc:title></cc:Agent></dc:creator><dc:subject><rdf:Bag><rdf:li>food</rdf:li><rdf:li>italian</rdf:li><rdf:li>pizza</rdf:li><rdf:li>slice</rdf:li></rdf:Bag></dc:subject></cc:Work><cc:License
       rdf:about="http://creativecommons.org/publicdomain/zero/1.0/"><cc:permits
         rdf:resource="http://creativecommons.org/ns#Reproduction" /><cc:permits
         rdf:resource="http://creativecommons.org/ns#Distribution" /><cc:permits
         rdf:resource="http://creativecommons.org/ns#DerivativeWorks" /></cc:License></rdf:RDF></metadata></svg>
