<?xml version="1.0" encoding="UTF-8" standalone="no"?>
<svg
   xmlns:dc="http://purl.org/dc/elements/1.1/"
   xmlns:cc="http://creativecommons.org/ns#"
   xmlns:rdf="http://www.w3.org/1999/02/22-rdf-syntax-ns#"
   xmlns:svg="http://www.w3.org/2000/svg"
   xmlns="http://www.w3.org/2000/svg"
   xmlns:xlink="http://www.w3.org/1999/xlink"
   xmlns:sodipodi="http://sodipodi.sourceforge.net/DTD/sodipodi-0.dtd"
   xmlns:inkscape="http://www.inkscape.org/namespaces/inkscape"
   id="svg2"
   sodipodi:version="0.32"
   height="54.202026pt"
   width="37.192745pt"
   version="1.0"
   sodipodi:docname="619e682d-b0a7-4d28-99b6-0ee14e7d9614.svg"
   inkscape:version="1.0.1 (c497b03c, 2020-09-10)">
  <defs
     id="defs5">
    <linearGradient
       id="linearGradient2193">
      <stop
         id="stop2195"
         stop-color="#fff"
         stop-opacity=".79221"
         offset="0" />
      <stop
         id="stop2197"
         stop-color="#fff"
         stop-opacity="0"
         offset="1" />
    </linearGradient>
    <linearGradient
       id="linearGradient2397"
       y2="615.94"
       xlink:href="#linearGradient2193"
       gradientUnits="userSpaceOnUse"
       x2="1340.6"
       y1="631.71997"
       x1="1471.1" />
    <linearGradient
       id="linearGradient2399"
       y2="253.31"
       xlink:href="#linearGradient2193"
       gradientUnits="userSpaceOnUse"
       x2="1263.9"
       y1="190.45"
       x1="1275.6" />
    <linearGradient
       id="linearGradient2401"
       y2="249.74001"
       xlink:href="#linearGradient2193"
       gradientUnits="userSpaceOnUse"
       x2="1353.6"
       y1="224.2"
       x1="1347.9" />
    <linearGradient
       id="linearGradient2403"
       y2="211.57001"
       xlink:href="#linearGradient2193"
       gradientUnits="userSpaceOnUse"
       x2="1145"
       y1="192.28"
       x1="1184.3" />
    <linearGradient
       inkscape:collect="always"
       xlink:href="#linearGradient2193"
       id="linearGradient913"
       gradientUnits="userSpaceOnUse"
       x1="1471.1"
       y1="631.71997"
       x2="1340.6"
       y2="615.94" />
    <linearGradient
       inkscape:collect="always"
       xlink:href="#linearGradient2193"
       id="linearGradient915"
       gradientUnits="userSpaceOnUse"
       x1="1275.6"
       y1="190.45"
       x2="1263.9"
       y2="253.31" />
    <linearGradient
       inkscape:collect="always"
       xlink:href="#linearGradient2193"
       id="linearGradient917"
       gradientUnits="userSpaceOnUse"
       x1="1347.9"
       y1="224.2"
       x2="1353.6"
       y2="249.74001" />
    <linearGradient
       inkscape:collect="always"
       xlink:href="#linearGradient2193"
       id="linearGradient919"
       gradientUnits="userSpaceOnUse"
       x1="1184.3"
       y1="192.28"
       x2="1145"
       y2="211.57001" />
  </defs>
  <sodipodi:namedview
     id="base"
     bordercolor="#666666"
     borderopacity="1.0"
     pagecolor="#ffffff"
     inkscape:document-rotation="0"
     showgrid="false"
     fit-margin-top="0"
     fit-margin-left="0"
     fit-margin-right="0"
     fit-margin-bottom="0"
     inkscape:zoom="1.5890637"
     inkscape:cx="205.18662"
     inkscape:cy="299.53612"
     inkscape:window-width="1252"
     inkscape:window-height="1174"
     inkscape:window-x="661"
     inkscape:window-y="25"
     inkscape:window-maximized="0"
     inkscape:current-layer="svg2" />
  <g
     id="g2337"
     transform="matrix(-0.07266103,0,0,0.07266103,108.14205,-4.5518331)">
    <path
       id="path2339"
       d="m 1083,300.67 20.3,611.04 c 94.8,66.9 234.9,62.54 336,4.69 l 46.9,-609.47 c -157,-59.81 -283.4,-41.33 -403.2,-6.26 z"
       fill-rule="evenodd"
       sodipodi:nodetypes="ccccc"
       stroke="#000000"
       stroke-width="4"
       fill="#bedbff" />
    <path
       id="path2341"
       d="m 1098.4,327.83 34.9,522.31 c 92.6,39.02 190.7,41.7 284.4,-6.25 l 53.3,-512.2 c -139,56.3 -277.6,42.68 -372.6,-3.86 z"
       fill-rule="evenodd"
       sodipodi:nodetypes="ccccc"
       stroke="#000000"
       stroke-width="4"
       fill="#ffa2c2" />
    <path
       id="path2343"
       d="m 1096.9,309.16 c -0.5,0.65 76.7,40.61 176.7,42.07 104.6,1.52 202.8,-34.73 196.9,-38.85 0,0 -76.5,-33.19 -170.3,-35.15 -93.7,-1.95 -203.3,31.93 -203.3,31.93 z"
       fill-rule="evenodd"
       sodipodi:nodetypes="cscsc"
       fill-opacity="0.46599"
       stroke="#000000"
       stroke-width="4"
       fill="#ffffff" />
    <path
       id="path2345"
       d="m 1112.4,316.07 c 99,-34.5 250.8,-39.78 343.4,3.47 -118.8,53.15 -275.2,34.65 -343.4,-3.47 z"
       fill-rule="evenodd"
       sodipodi:nodetypes="ccc"
       stroke="#000000"
       stroke-width="4"
       fill="#ffa2c2" />
    <path
       id="path2347"
       d="m 1111.3,318.29 c 14.2,6.4 28.2,12.18 41.9,17.01 l 12.1,606.19 c -9.9,-3.31 -19.7,-7.07 -29.1,-12.47 z"
       fill-rule="evenodd"
       sodipodi:nodetypes="ccccc"
       fill-opacity="0.58503"
       fill="#ffffff" />
    <path
       id="path2349"
       d="m 1405.3,339.49 c 24.3,-6.89 46.9,-14.25 69.7,-24.77 l -63.6,613.71 c -23.6,10.39 -36.3,14.27 -52.1,18.94 z"
       sodipodi:nodetypes="ccccc"
       fill="url(#linearGradient2397)"
       fill-rule="evenodd"
       style="fill:url(#linearGradient2397)" />
    <path
       id="path2351"
       d="m 1351.4,948.64 45.6,-606.91 -16.5,4.51 -42.4,605.73 z"
       fill-rule="evenodd"
       sodipodi:nodetypes="ccccc"
       fill-opacity="0.4898"
       fill="#ffffff" />
    <path
       id="path2353"
       d="m 1420.2,318.91 c -5.2,-8.3 -18.5,-8.57 -28.1,-12.46"
       sodipodi:nodetypes="cc"
       stroke="#000000"
       stroke-width="5"
       fill="none" />
    <g
       id="g2355">
      <path
         id="path2357"
         stroke-linejoin="round"
         d="m 1337.7,205.24 -29.1,-43.7 32,25.64 -11.1,-37.29 35,36.12 0.6,-30.88 15.7,36.71 43.7,-17.48 -25.1,26.8 46.1,2.91 -33.8,10.49 34.4,26.8 z"
         fill-rule="evenodd"
         stroke="#000000"
         stroke-width="4"
         fill="#006f00" />
      <path
         id="path2359"
         d="m 1249.2,311.02 c -12.4,-0.4 -19.8,-124.31 48.2,-132.5 39.9,-4.81 62.3,22.09 62.3,22.09 41,-2.27 62.4,16.54 74.1,45.74 0,0 7.3,28.78 -7.1,48.9 -14.4,20.11 -50.5,31.54 -50.5,31.54 0,0 -43.2,-17.2 -68.4,-20.95 -25.2,-3.75 -33.1,6.55 -33.1,6.55 z"
         fill-rule="evenodd"
         sodipodi:nodetypes="csccscscc"
         stroke="#000000"
         stroke-width="4"
         fill="#f30600" />
      <g
         id="g2361"
         stroke="#000000"
         fill-rule="evenodd"
         fill="#ffca00">
        <path
           id="path2363"
           sodipodi:nodetypes="cscsc"
           stroke-width="4"
           d="m 1342.9,248.76 c 0,0 -7.3,2.93 -8.9,8.65 -1.5,5.71 2.8,14.21 2.8,14.21 0,0 6.7,-7.42 8.3,-13.14 1.5,-5.71 -2.2,-9.72 -2.2,-9.72 z" />
        <path
           id="path2365"
           sodipodi:nodetypes="cscsc"
           stroke-width="4"
           d="m 1385.5,231.24 c 0,0 -5.8,4.72 -6,9.67 -0.1,4.96 5.3,10.14 5.3,10.14 0,0 4,-5.08 4.2,-10.04 0.2,-4.95 -3.5,-9.77 -3.5,-9.77 z" />
        <path
           id="path2367"
           sodipodi:nodetypes="cscsc"
           stroke-width="3.7137"
           d="m 1406.9,254.31 c 0,0 -3.9,4.7 -3.7,9.27 0.2,4.57 4.4,9.01 4.4,9.01 0,0 4.1,-4.57 3.9,-9.14 -0.1,-4.57 -4.6,-9.14 -4.6,-9.14 z" />
        <path
           id="path2369"
           sodipodi:nodetypes="cscsc"
           stroke-width="2.9433"
           d="m 1368.5,271.98 c 0,0 -5.4,4.34 -6.6,10.22 -1.1,5.89 2.1,13.32 2.1,13.32 0,0 5.7,-5.06 6.9,-10.94 1.1,-5.89 -2.4,-12.6 -2.4,-12.6 z" />
        <path
           id="path2371"
           sodipodi:nodetypes="cscsc"
           stroke-width="3.2259"
           d="m 1300.3,201.15 c 0,0 0.4,7.74 -3.2,11.89 -3.5,4.14 -11,4.7 -11,4.7 0,0 0.2,-7.7 3.7,-11.85 3.5,-4.14 10.5,-4.74 10.5,-4.74 z" />
        <path
           id="path2373"
           sodipodi:nodetypes="cscsc"
           stroke-width="2.9918"
           d="m 1335,213.22 c 0,0 1.8,6.09 -0.5,10.79 -2.2,4.7 -8.6,8.01 -8.6,8.01 0,0 -2.7,-7.19 -0.4,-11.89 2.3,-4.7 9.5,-6.91 9.5,-6.91 z" />
        <path
           id="path2375"
           sodipodi:nodetypes="cscsc"
           stroke-width="4"
           d="m 1303.7,267.03 c 0,0 -5,5.72 -5.4,11.24 -0.4,5.52 3.8,10.85 3.8,10.85 0,0 4.6,-4.7 5,-10.22 0.4,-5.52 -3.4,-11.87 -3.4,-11.87 z" />
        <path
           id="path2377"
           sodipodi:nodetypes="cscsc"
           stroke-width="4"
           d="m 1260.9,270.43 c 0,0 5.2,6 6.1,12.04 0.8,6.03 -2.6,12.1 -2.6,12.1 0,0 -5.9,-4.85 -6.8,-10.88 -0.9,-6.04 3.3,-13.26 3.3,-13.26 z" />
        <path
           id="path2379"
           sodipodi:nodetypes="cscsc"
           stroke-width="3.7408"
           d="m 1271.1,226.36 c 0,0 3.6,8.57 2.6,13.71 -1,5.14 -6.6,6.86 -6.6,6.86 0,0 -3.7,-7.05 -2.7,-12.19 1,-5.14 6.7,-8.38 6.7,-8.38 z" />
      </g>
      <g
         id="g2381">
        <path
           id="path2383"
           d="m 1342.4,197.36 c -10.6,-6.5 -25.5,-17.28 -54.2,-9.03 0,0 -10.2,19.95 -12.3,38.69 -2,18.73 4.6,37.02 4.6,37.02 l 17.1,1.8 c 0,0 -6.8,-14.67 4.5,-31.6 11.3,-16.93 40.3,-36.88 40.3,-36.88 z"
           sodipodi:nodetypes="ccsccsc"
           fill="url(#linearGradient2399)"
           fill-rule="evenodd"
           style="fill:url(#linearGradient2399)" />
        <path
           id="path2385"
           sodipodi:rx="20.962624"
           sodipodi:ry="10.953444"
           sodipodi:type="arc"
           d="m 1343.7209,227.2108 a 20.962624,10.953444 0 0 1 27.5256,5.72981 20.962624,10.953444 0 0 1 -10.9357,14.38899 20.962624,10.953444 0 0 1 -27.5494,-5.69847 20.962624,10.953444 0 0 1 10.8756,-14.4014 l 8.3579,10.04519 z"
           transform="matrix(0.97179,-0.23583,0.23583,0.97179,-13.668,308.16)"
           sodipodi:cy="237.27492"
           sodipodi:cx="1351.9949"
           fill="url(#linearGradient2401)"
           sodipodi:end="4.3022877"
           sodipodi:start="4.3066449"
           style="fill:url(#linearGradient2401)"
           sodipodi:arc-type="slice" />
      </g>
      <path
         id="path2387"
         d="M 1216.3,317.23 1110.9,66.38 c -20.3,-4.372 -29.6,3.184 -32.8,17.408 l 97.3,237.53"
         fill-rule="evenodd"
         sodipodi:nodetypes="cccc"
         stroke="#000000"
         stroke-width="5"
         fill="#725eff" />
      <path
         id="path2389"
         d="m 1109.6,68.431 -8.7,12.447 99,236.82 h 13.7 l -104,-249.27 z"
         sodipodi:nodetypes="ccccc"
         fill="url(#linearGradient2403)"
         fill-rule="evenodd"
         style="fill:url(#linearGradient2403)" />
      <path
         id="path2391"
         d="m 1110.3,65.682 c 0,0 -13.2,-3.628 -21.4,0.946 -8.2,4.574 -11.4,17.349 -11.4,17.349 0,0 7.4,6.423 22.3,-0.974 12.9,-6.408 10.5,-17.321 10.5,-17.321 z"
         fill-rule="evenodd"
         sodipodi:nodetypes="cscsc"
         stroke="#000000"
         stroke-width="1px" />
    </g>
    <path
       id="path2393"
       d="m 1299.6,311.55 c -29.3,-12.39 -48.1,-2.42 -65.4,9.75"
       fill-rule="evenodd"
       sodipodi:nodetypes="cc"
       stroke="#000000"
       stroke-width="5"
       fill="#ffa2c2" />
    <path
       id="path2395"
       d="m 1209.5,321.89 c -11,-7.81 -28.6,-6.03 -36.8,-0.81"
       fill-rule="evenodd"
       sodipodi:nodetypes="cc"
       stroke="#000000"
       stroke-width="5"
       fill="#ffa2c2" />
  </g>
  <g
     id="g2306"
     transform="matrix(0.07266103,0,0,0.07266103,-58.551722,2.3061623)">
    <path
       id="path1308"
       d="m 1083,300.67 20.3,611.04 c 94.8,66.9 234.9,62.54 336,4.69 l 46.9,-609.47 c -157,-59.81 -283.4,-41.33 -403.2,-6.26 z"
       fill-rule="evenodd"
       sodipodi:nodetypes="ccccc"
       stroke="#000000"
       stroke-width="4"
       fill="#bedbff" />
    <path
       id="path1310"
       d="m 1098.4,327.83 34.9,522.31 c 92.6,39.02 190.7,41.7 284.4,-6.25 l 53.3,-512.2 c -139,56.3 -277.6,42.68 -372.6,-3.86 z"
       fill-rule="evenodd"
       sodipodi:nodetypes="ccccc"
       stroke="#000000"
       stroke-width="4"
       fill="#ffa2c2" />
    <path
       id="path2185"
       d="m 1096.9,309.16 c -0.5,0.65 76.7,40.61 176.7,42.07 104.6,1.52 202.8,-34.73 196.9,-38.85 0,0 -76.5,-33.19 -170.3,-35.15 -93.7,-1.95 -203.3,31.93 -203.3,31.93 z"
       fill-rule="evenodd"
       sodipodi:nodetypes="cscsc"
       fill-opacity="0.46599"
       stroke="#000000"
       stroke-width="4"
       fill="#ffffff" />
    <path
       id="path2187"
       d="m 1112.4,316.07 c 99,-34.5 250.8,-39.78 343.4,3.47 -118.8,53.15 -275.2,34.65 -343.4,-3.47 z"
       fill-rule="evenodd"
       sodipodi:nodetypes="ccc"
       stroke="#000000"
       stroke-width="4"
       fill="#ffa2c2" />
    <path
       id="path2189"
       d="m 1111.3,318.29 c 14.2,6.4 28.2,12.18 41.9,17.01 l 12.1,606.19 c -9.9,-3.31 -19.7,-7.07 -29.1,-12.47 z"
       fill-opacity="0.58503"
       sodipodi:nodetypes="ccccc"
       fill-rule="evenodd"
       fill="#ffffff" />
    <path
       id="path2191"
       d="m 1405.3,339.49 c 24.3,-6.89 46.9,-14.25 69.7,-24.77 l -63.6,613.71 c -23.6,10.39 -36.3,14.27 -52.1,18.94 z"
       sodipodi:nodetypes="ccccc"
       fill="url(#linearGradient2397)"
       fill-rule="evenodd"
       style="fill:url(#linearGradient913)" />
    <path
       id="path2201"
       d="m 1351.4,948.64 45.6,-606.91 -16.5,4.51 -42.4,605.73 z"
       fill-opacity="0.4898"
       sodipodi:nodetypes="ccccc"
       fill-rule="evenodd"
       fill="#ffffff" />
    <path
       id="path2281"
       d="m 1420.2,318.91 c -5.2,-8.3 -18.5,-8.57 -28.1,-12.46"
       sodipodi:nodetypes="cc"
       stroke="#000000"
       stroke-width="5"
       fill="none" />
    <g
       id="g2262">
      <path
         id="path2207"
         stroke-linejoin="round"
         d="m 1337.7,205.24 -29.1,-43.7 32,25.64 -11.1,-37.29 35,36.12 0.6,-30.88 15.7,36.71 43.7,-17.48 -25.1,26.8 46.1,2.91 -33.8,10.49 34.4,26.8 z"
         fill-rule="evenodd"
         stroke="#000000"
         stroke-width="4"
         fill="#006f00" />
      <path
         id="path2203"
         d="m 1249.2,311.02 c -12.4,-0.4 -19.8,-124.31 48.2,-132.5 39.9,-4.81 62.3,22.09 62.3,22.09 41,-2.27 62.4,16.54 74.1,45.74 0,0 7.3,28.78 -7.1,48.9 -14.4,20.11 -50.5,31.54 -50.5,31.54 0,0 -43.2,-17.2 -68.4,-20.95 -25.2,-3.75 -33.1,6.55 -33.1,6.55 z"
         fill-rule="evenodd"
         sodipodi:nodetypes="csccscscc"
         stroke="#000000"
         stroke-width="4"
         fill="#f30600" />
      <g
         id="g2247"
         stroke="#000000"
         fill-rule="evenodd"
         fill="#ffca00">
        <path
           id="path2229"
           sodipodi:nodetypes="cscsc"
           stroke-width="4"
           d="m 1342.9,248.76 c 0,0 -7.3,2.93 -8.9,8.65 -1.5,5.71 2.8,14.21 2.8,14.21 0,0 6.7,-7.42 8.3,-13.14 1.5,-5.71 -2.2,-9.72 -2.2,-9.72 z" />
        <path
           id="path2231"
           sodipodi:nodetypes="cscsc"
           stroke-width="4"
           d="m 1385.5,231.24 c 0,0 -5.8,4.72 -6,9.67 -0.1,4.96 5.3,10.14 5.3,10.14 0,0 4,-5.08 4.2,-10.04 0.2,-4.95 -3.5,-9.77 -3.5,-9.77 z" />
        <path
           id="path2233"
           sodipodi:nodetypes="cscsc"
           stroke-width="3.7137"
           d="m 1406.9,254.31 c 0,0 -3.9,4.7 -3.7,9.27 0.2,4.57 4.4,9.01 4.4,9.01 0,0 4.1,-4.57 3.9,-9.14 -0.1,-4.57 -4.6,-9.14 -4.6,-9.14 z" />
        <path
           id="path2235"
           sodipodi:nodetypes="cscsc"
           stroke-width="2.9433"
           d="m 1368.5,271.98 c 0,0 -5.4,4.34 -6.6,10.22 -1.1,5.89 2.1,13.32 2.1,13.32 0,0 5.7,-5.06 6.9,-10.94 1.1,-5.89 -2.4,-12.6 -2.4,-12.6 z" />
        <path
           id="path2237"
           sodipodi:nodetypes="cscsc"
           stroke-width="3.2259"
           d="m 1300.3,201.15 c 0,0 0.4,7.74 -3.2,11.89 -3.5,4.14 -11,4.7 -11,4.7 0,0 0.2,-7.7 3.7,-11.85 3.5,-4.14 10.5,-4.74 10.5,-4.74 z" />
        <path
           id="path2239"
           sodipodi:nodetypes="cscsc"
           stroke-width="2.9918"
           d="m 1335,213.22 c 0,0 1.8,6.09 -0.5,10.79 -2.2,4.7 -8.6,8.01 -8.6,8.01 0,0 -2.7,-7.19 -0.4,-11.89 2.3,-4.7 9.5,-6.91 9.5,-6.91 z" />
        <path
           id="path2241"
           sodipodi:nodetypes="cscsc"
           stroke-width="4"
           d="m 1303.7,267.03 c 0,0 -5,5.72 -5.4,11.24 -0.4,5.52 3.8,10.85 3.8,10.85 0,0 4.6,-4.7 5,-10.22 0.4,-5.52 -3.4,-11.87 -3.4,-11.87 z" />
        <path
           id="path2243"
           sodipodi:nodetypes="cscsc"
           stroke-width="4"
           d="m 1260.9,270.43 c 0,0 5.2,6 6.1,12.04 0.8,6.03 -2.6,12.1 -2.6,12.1 0,0 -5.9,-4.85 -6.8,-10.88 -0.9,-6.04 3.3,-13.26 3.3,-13.26 z" />
        <path
           id="path2245"
           sodipodi:nodetypes="cscsc"
           stroke-width="3.7408"
           d="m 1271.1,226.36 c 0,0 3.6,8.57 2.6,13.71 -1,5.14 -6.6,6.86 -6.6,6.86 0,0 -3.7,-7.05 -2.7,-12.19 1,-5.14 6.7,-8.38 6.7,-8.38 z" />
      </g>
      <g
         id="g2258">
        <path
           id="path2209"
           d="m 1342.4,197.36 c -10.6,-6.5 -25.5,-17.28 -54.2,-9.03 0,0 -10.2,19.95 -12.3,38.69 -2,18.73 4.6,37.02 4.6,37.02 l 17.1,1.8 c 0,0 -6.8,-14.67 4.5,-31.6 11.3,-16.93 40.3,-36.88 40.3,-36.88 z"
           sodipodi:nodetypes="ccsccsc"
           fill="url(#linearGradient2399)"
           fill-rule="evenodd"
           style="fill:url(#linearGradient915)" />
        <path
           id="path2219"
           sodipodi:rx="20.962624"
           sodipodi:ry="10.953444"
           sodipodi:type="arc"
           d="m 1343.7209,227.2108 a 20.962624,10.953444 0 0 1 27.5256,5.72981 20.962624,10.953444 0 0 1 -10.9357,14.38899 20.962624,10.953444 0 0 1 -27.5494,-5.69847 20.962624,10.953444 0 0 1 10.8756,-14.4014 l 8.3579,10.04519 z"
           transform="matrix(0.97179,-0.23583,0.23583,0.97179,-13.668,308.16)"
           sodipodi:cy="237.27492"
           sodipodi:cx="1351.9949"
           fill="url(#linearGradient2401)"
           sodipodi:end="4.3022877"
           sodipodi:start="4.3066449"
           style="fill:url(#linearGradient917)"
           sodipodi:arc-type="slice" />
      </g>
      <path
         id="path2285"
         d="M 1216.3,317.23 1110.9,66.38 c -20.3,-4.372 -29.6,3.184 -32.8,17.408 l 97.3,237.53"
         fill-rule="evenodd"
         sodipodi:nodetypes="cccc"
         stroke="#000000"
         stroke-width="5"
         fill="#725eff" />
      <path
         id="path2289"
         d="m 1109.6,68.431 -8.7,12.447 99,236.82 h 13.7 l -104,-249.27 z"
         sodipodi:nodetypes="ccccc"
         fill="url(#linearGradient2403)"
         fill-rule="evenodd"
         style="fill:url(#linearGradient919)" />
      <path
         id="path2287"
         d="m 1110.3,65.682 c 0,0 -13.2,-3.628 -21.4,0.946 -8.2,4.574 -11.4,17.349 -11.4,17.349 0,0 7.4,6.423 22.3,-0.974 12.9,-6.408 10.5,-17.321 10.5,-17.321 z"
         fill-rule="evenodd"
         sodipodi:nodetypes="cscsc"
         stroke="#000000"
         stroke-width="1px" />
    </g>
    <path
       id="path2279"
       d="m 1299.6,311.55 c -29.3,-12.39 -48.1,-2.42 -65.4,9.75"
       fill-rule="evenodd"
       sodipodi:nodetypes="cc"
       stroke="#000000"
       stroke-width="5"
       fill="#ffa2c2" />
    <path
       id="path2299"
       d="m 1209.5,321.89 c -11,-7.81 -28.6,-6.03 -36.8,-0.81"
       fill-rule="evenodd"
       sodipodi:nodetypes="cc"
       stroke="#000000"
       stroke-width="5"
       fill="#ffa2c2" />
  </g>
  <metadata
     id="metadata902">
    <rdf:RDF>
      <cc:Work>
        <dc:format>image/svg+xml</dc:format>
        <dc:type
           rdf:resource="http://purl.org/dc/dcmitype/StillImage" />
        <cc:license
           rdf:resource="http://creativecommons.org/publicdomain/zero/1.0/" />
        <dc:publisher>
          <cc:Agent
             rdf:about="http://openclipart.org/">
            <dc:title>Openclipart</dc:title>
          </cc:Agent>
        </dc:publisher>
        <dc:title></dc:title>
      </cc:Work>
      <cc:License
         rdf:about="http://creativecommons.org/publicdomain/zero/1.0/">
        <cc:permits
           rdf:resource="http://creativecommons.org/ns#Reproduction" />
        <cc:permits
           rdf:resource="http://creativecommons.org/ns#Distribution" />
        <cc:permits
           rdf:resource="http://creativecommons.org/ns#DerivativeWorks" />
      </cc:License>
    </rdf:RDF>
  </metadata>
</svg>
