<?xml version="1.0" encoding="UTF-8" standalone="no"?>
<svg
   xmlns:dc="http://purl.org/dc/elements/1.1/"
   xmlns:cc="http://creativecommons.org/ns#"
   xmlns:rdf="http://www.w3.org/1999/02/22-rdf-syntax-ns#"
   xmlns:svg="http://www.w3.org/2000/svg"
   xmlns="http://www.w3.org/2000/svg"
   xmlns:sodipodi="http://sodipodi.sourceforge.net/DTD/sodipodi-0.dtd"
   xmlns:inkscape="http://www.inkscape.org/namespaces/inkscape"
   viewBox="0 0 82 28.251095"
   version="1.1"
   id="svg869"
   sodipodi:docname="629dbe10-a2ad-49a2-83d3-33d258ae4f89.svg"
   inkscape:version="1.0.1 (c497b03c, 2020-09-10)"
   width="82"
   height="28.251095">
  <metadata
     id="metadata873">
    <rdf:RDF>
      <cc:Work
         rdf:about="">
        <dc:format>image/svg+xml</dc:format>
        <dc:type
           rdf:resource="http://purl.org/dc/dcmitype/StillImage" />
        <dc:title></dc:title>
      </cc:Work>
    </rdf:RDF>
  </metadata>
  <sodipodi:namedview
     pagecolor="#ffffff"
     bordercolor="#666666"
     borderopacity="1"
     objecttolerance="10"
     gridtolerance="10"
     guidetolerance="10"
     inkscape:pageopacity="0"
     inkscape:pageshadow="2"
     inkscape:window-width="1628"
     inkscape:window-height="1001"
     id="namedview871"
     showgrid="false"
     inkscape:zoom="0.73703025"
     inkscape:cx="191.98669"
     inkscape:cy="156.055"
     inkscape:window-x="849"
     inkscape:window-y="56"
     inkscape:window-maximized="0"
     inkscape:current-layer="svg869"
     inkscape:document-rotation="0"
     fit-margin-top="0"
     fit-margin-left="0"
     fit-margin-right="0"
     fit-margin-bottom="0" />
  <defs
     id="defs4">
    <filter
       id="filter3683"
       height="2.2816999"
       width="1.018"
       color-interpolation-filters="sRGB"
       y="-0.64083999"
       x="-0.0089942003">
      <feGaussianBlur
         id="feGaussianBlur3685"
         stdDeviation="3.0695829" />
    </filter>
    <linearGradient
       id="linearGradient3776"
       y2="425.13"
       gradientUnits="userSpaceOnUse"
       x2="445.84"
       y1="411.57001"
       x1="445.84">
      <stop
         id="stop3740"
         stop-color="#666"
         offset="0" />
      <stop
         id="stop3742"
         stop-color="#8a0"
         offset="1" />
    </linearGradient>
  </defs>
  <g
     id="layer1"
     transform="matrix(0.09051647,0,0,0.09051647,-6.3676843,-55.247633)">
    <g
       id="g3746">
      <path
         id="rect2844"
         d="m 142.98,754.9 h 790.35 l -1.0161,108.27 -163.04,8.6369 -435.36,-3.5564 -149.22,-13.717 -15.091,1.0161 -27.134,-4.0644 0.50805,-96.582 z"
         fill-opacity="0.99608" />
      <g
         id="g2881"
         fill-opacity="0.99608"
         transform="translate(-1.0161,-3.0483)">
        <path
           id="path2848"
           d="m 259.38,532.14 c 0,3.9682 -3.2168,7.185 -7.185,7.185 -3.9681,0 -7.185,-3.2168 -7.185,-7.185 0,-3.9681 3.2168,-7.185 7.185,-7.185 3.9681,0 7.185,3.2168 7.185,7.185 z"
           transform="matrix(9.75,0,0,9.75,-2206.3,-4348.3)"
           fill="#1a1a1a" />
        <path
           id="path2846"
           d="m 259.38,532.14 c 0,3.9682 -3.2168,7.185 -7.185,7.185 -3.9681,0 -7.185,-3.2168 -7.185,-7.185 0,-3.9681 3.2168,-7.185 7.185,-7.185 3.9681,0 7.185,3.2168 7.185,7.185 z"
           transform="matrix(7.6,0,0,7.6,-1664.1,-3204.2)"
           fill="#800000" />
        <path
           id="path2873"
           d="m 252.56,483.62 c -26.587,0 -48.156,21.57 -48.156,48.156 0,26.587 21.57,48.125 48.156,48.125 26.587,0 48.125,-21.538 48.125,-48.125 0,-26.587 -21.538,-48.156 -48.125,-48.156 z m 7.1875,32.719 c 1.8849,0 3.4062,1.5214 3.4062,3.4062 0,1.8849 -1.5214,3.4062 -3.4062,3.4062 -1.8849,0 -3.4375,-1.5214 -3.4375,-3.4062 0,-1.8849 1.5526,-3.4062 3.4375,-3.4062 z m -15.469,0.34375 c 1.8849,0 3.4062,1.5214 3.4062,3.4062 0,1.8849 -1.5214,3.4375 -3.4062,3.4375 -1.8849,0 -3.4062,-1.5526 -3.4062,-3.4375 0,-1.8849 1.5214,-3.4062 3.4062,-3.4062 z m 8.2812,7.9062 c 3.9681,0 7.1875,3.2194 7.1875,7.1875 0,3.9681 -3.2194,7.1875 -7.1875,7.1875 -3.9681,0 -7.1875,-3.2194 -7.1875,-7.1875 0,-3.9681 3.2194,-7.1875 7.1875,-7.1875 z m 13.469,6.4688 c 1.8849,0 3.4062,1.5214 3.4062,3.4062 0,1.8849 -1.5214,3.4062 -3.4062,3.4062 -1.8849,0 -3.4062,-1.5214 -3.4062,-3.4062 0,-1.8849 1.5214,-3.4062 3.4062,-3.4062 z m -25.15,1.44 c 1.8849,0 3.4062,1.5214 3.4062,3.4062 0,1.8849 -1.5214,3.4062 -3.4062,3.4062 -1.8849,0 -3.4062,-1.5214 -3.4062,-3.4062 0,-1.8849 1.5214,-3.4062 3.4062,-3.4062 z m 12.219,8.625 c 1.8849,0 3.4062,1.5214 3.4062,3.4062 0,1.8849 -1.5214,3.4062 -3.4062,3.4062 -1.8849,0 -3.4062,-1.5214 -3.4062,-3.4062 0,-1.8849 1.5214,-3.4062 3.4062,-3.4062 z"
           transform="translate(0,308.27)"
           fill="#999999" />
      </g>
      <path
         id="rect2869"
         d="m 435.91,302.09 c -113.77,0.32688 -134.31,16.79 -207.28,46.75 -14.75,6.0384 -35.954,16.148 -46.781,21.406 l -1.0312,-0.0312 -93.156,8.875 c 0,0 -3.0993,25.88 -3.9375,38.812 -0.83824,12.933 -1.0938,38.781 -1.0938,38.781 l -11.844,5.75 7.7188,37.375 -2.5938,6.4688 10.312,25.125 82.812,15.375 c -0.005,-0.39842 -0.0312,-0.78785 -0.0312,-1.1875 0,-49.8 36.846,-90.188 82.281,-90.188 45.435,0 82.25,40.387 82.25,90.188 0,4.291 -0.28365,8.4938 -0.8125,12.625 l 4.625,0.3125 c 0,0 197.92,-0.0625 315.94,3.5 34.26,1.0342 75.143,0.43686 115.91,-0.9375 -2.3263,-11.451 -2.623,-23.659 -0.46875,-36.062 8.5218,-49.066 51.735,-82.525 96.5,-74.75 44.544,7.7365 73.858,53.394 65.75,102.19 22.648,-1.5796 36.844,-2.7188 36.844,-2.7188 0,0 -3.0556,-7.5206 -2.7188,-23.312 0.33679,-15.792 11.246,-24.773 11.156,-39.562 -0.0922,-14.808 -18.844,-16.531 -18.844,-16.531 l 1.7812,-28.75 c 0,0 -4.0958,-13.19 -38.844,-21.594 -34.748,-8.4034 -169.62,-28.812 -169.62,-28.812 l -22,-0.8125 c -21.116,-12.329 -60.177,-35.175 -72.812,-41.531 -47.303,-27.412 -71.641,-44.526 -220,-46.75 h -5e-5 z"
         fill-opacity="0.99608"
         transform="translate(0,308.27)"
         fill="#88aa00" />
      <path
         id="path2872"
         d="m 949.85,591.77 c 0,3.1745 -183.36,5.748 -409.54,5.748 -226.18,0 -409.54,-2.5734 -409.54,-5.748 0,-3.1745 183.36,-5.748 409.54,-5.748 226.18,0 409.54,2.5734 409.54,5.748 z"
         fill-opacity="0.99608"
         transform="matrix(1,0,0,1.875,0,-211.69)"
         filter="url(#filter3683)" />
      <path
         id="path2831"
         d="m 477.19,311 c -93.882,-5.4468 -177.65,24.358 -231.56,58.281 l 13.375,26.875 433.59,6.5 c -36.1,-44.16 -115.61,-85.87 -215.4,-91.66 z"
         fill-opacity="0.99608"
         transform="translate(0,308.27)"
         fill="#4d4d4d" />
      <rect
         id="rect2840"
         opacity="0.4"
         fill-opacity="0.99608"
         transform="matrix(0.99091,-0.13451,0.20185,0.97942,0,0)"
         height="85.417999"
         width="1.8412"
         y="672.23999"
         x="274.26001"
         fill="#88aa00" />
      <rect
         id="rect2864"
         opacity="0.4"
         transform="translate(0,308.27)"
         fill-opacity="0.99608"
         rx="7"
         ry="7"
         height="28.74"
         width="40.953999"
         y="424.35999"
         x="156.63"
         fill="#88aa00" />
      <path
         id="path2882"
         d="m 952.78,439.31 c -8.6377,0.23681 -23.003,3.5864 -25.25,9.0312 -3.0306,7.3436 16.411,23.256 22.75,23.031 6.1337,-0.21733 6.6814,-9.1175 7.875,-13.938 l 1.0312,-17.031 c -0.10934,-0.0972 -0.22073,-0.16558 -0.34375,-0.25 -0.94615,-0.6493 -3.1833,-0.92269 -6.0625,-0.84375 z"
         fill-opacity="0.99608"
         transform="translate(0,308.27)"
         fill="#cccccc" />
      <path
         id="path2890"
         d="m 86.625,388.03 c -0.98331,8.7102 -2.3728,21.645 -2.9062,29.875 -0.61149,9.4344 -0.91294,25.555 -1.0312,33.688 13.073,-1.227 24.414,-3.8458 27.625,-7.25 6.5346,-6.9272 -9.4522,-38.872 -23.688,-56.312 z"
         fill-opacity="0.99608"
         transform="translate(0,308.27)"
         fill="#cccccc" />
      <path
         id="path2896"
         d="m 83.594,419.97 c -0.53157,9.577 -0.79594,24.043 -0.90625,31.625 13.073,-1.227 24.414,-3.8458 27.625,-7.25 3.2821,-3.4793 0.88039,-13.281 -4.125,-24.375 h -22.594 z"
         fill-opacity="0.99608"
         transform="translate(0,308.27)"
         fill="#aa0000" />
      <path
         id="path2917"
         opacity="0.4"
         d="m 692.67,403.76 c 21.177,21.781 20.077,40.599 20.077,72.695 0,29.952 -6.8635,58.194 -19.005,83.039"
         transform="translate(0,308.27)"
         stroke="#000000"
         stroke-width="3"
         fill="none" />
      <path
         id="path2903"
         opacity="0.4"
         d="m 465.12,558.74 c -4.016,-4.5815 -7.8548,-9.4004 -11.496,-14.453 -32.603,-45.236 -47.474,-109.64 -28.933,-146.4"
         transform="translate(0,308.27)"
         stroke="#000000"
         stroke-width="3"
         fill="none" />
      <path
         id="path2849"
         d="m 179.2,370.77 c 0,0 32.469,-15.746 47.842,-22.571 15.807,-7.0181 82.627,-31.614 82.627,-31.614 l 0.71849,1.437 c 0,0 -58.349,25.984 -68.976,30.598 -10.313,4.4778 -55.324,27.6 -55.324,27.6 l -6.8873,-5.4504 z"
         transform="translate(0,308.27)"
         fill="#4d4d4d" />
      <path
         id="path2855"
         d="m 740.73,390.99 c 0,0 -45.092,-24.248 -73.287,-39.877 -48.347,-26.799 -89.776,-36.32 -89.776,-36.32 l -3.5925,4.6702 c 0,0 63.228,29.099 79.394,40.236 16.166,11.137 54.606,39.877 54.606,39.877 0,0 5.4604,0.83978 16.166,-1.437 11.44,-2.433 15.771,-7.1488 16.489,-7.1488 z"
         transform="translate(0,308.27)"
         fill="#4d4d4d" />
      <path
         id="path2857"
         d="m 102.39,412.15 c 0,0 234.11,3.832 350.81,7.185 116.7,3.353 349.37,12.933 349.37,12.933"
         transform="translate(0,308.27)"
         stroke="#000000"
         stroke-width="1px"
         fill="none" />
      <path
         id="path2866"
         d="m 303.18,468.78 c 85.752,2.6838 198.27,5.1574 214.85,5.1574 22.992,0 259.38,5.748 259.38,5.748"
         transform="translate(0,308.27)"
         stroke="#000000"
         stroke-width="1px"
         fill="none" />
      <path
         id="path2859"
         d="m 82.627,458.13 c 0,0 99.871,5.0295 130.05,7.185"
         transform="translate(0,308.27)"
         stroke="#000000"
         stroke-width="1px"
         fill="none" />
      <path
         id="path2868"
         d="m 70.413,466.04 c 0,0 29.448,3.8399 52.45,5.0295 20.821,1.0768 61.072,2.1555 61.072,2.1555"
         transform="translate(0,308.27)"
         stroke="#666666"
         stroke-width="1px"
         fill="none" />
      <path
         id="path2870"
         d="m 317.58,475.38 c 0,0 117.11,2.9584 142.98,3.5925 29.458,0.72204 316.14,5.0295 316.14,5.0295"
         transform="translate(0,308.27)"
         stroke="#000000"
         stroke-width="1px"
         fill="none" />
      <g
         id="g2886"
         fill-opacity="0.99608"
         transform="translate(599.5,-5.0805)">
        <path
           id="path2888"
           d="m 259.38,532.14 c 0,3.9682 -3.2168,7.185 -7.185,7.185 -3.9681,0 -7.185,-3.2168 -7.185,-7.185 0,-3.9681 3.2168,-7.185 7.185,-7.185 3.9681,0 7.185,3.2168 7.185,7.185 z"
           transform="matrix(9.75,0,0,9.75,-2206.3,-4348.3)"
           fill="#1a1a1a" />
        <path
           id="path2891"
           d="m 259.38,532.14 c 0,3.9682 -3.2168,7.185 -7.185,7.185 -3.9681,0 -7.185,-3.2168 -7.185,-7.185 0,-3.9681 3.2168,-7.185 7.185,-7.185 3.9681,0 7.185,3.2168 7.185,7.185 z"
           transform="matrix(7.6,0,0,7.6,-1664.1,-3204.2)"
           fill="#800000" />
        <path
           id="path2893"
           d="m 252.56,483.62 c -26.587,0 -48.156,21.57 -48.156,48.156 0,26.587 21.57,48.125 48.156,48.125 26.587,0 48.125,-21.538 48.125,-48.125 0,-26.587 -21.538,-48.156 -48.125,-48.156 z m 7.1875,32.719 c 1.8849,0 3.4062,1.5214 3.4062,3.4062 0,1.8849 -1.5214,3.4062 -3.4062,3.4062 -1.8849,0 -3.4375,-1.5214 -3.4375,-3.4062 0,-1.8849 1.5526,-3.4062 3.4375,-3.4062 z m -15.469,0.34375 c 1.8849,0 3.4062,1.5214 3.4062,3.4062 0,1.8849 -1.5214,3.4375 -3.4062,3.4375 -1.8849,0 -3.4062,-1.5526 -3.4062,-3.4375 0,-1.8849 1.5214,-3.4062 3.4062,-3.4062 z m 8.2812,7.9062 c 3.9681,0 7.1875,3.2194 7.1875,7.1875 0,3.9681 -3.2194,7.1875 -7.1875,7.1875 -3.9681,0 -7.1875,-3.2194 -7.1875,-7.1875 0,-3.9681 3.2194,-7.1875 7.1875,-7.1875 z m 13.469,6.4688 c 1.8849,0 3.4062,1.5214 3.4062,3.4062 0,1.8849 -1.5214,3.4062 -3.4062,3.4062 -1.8849,0 -3.4062,-1.5214 -3.4062,-3.4062 0,-1.8849 1.5214,-3.4062 3.4062,-3.4062 z m -25.15,1.44 c 1.8849,0 3.4062,1.5214 3.4062,3.4062 0,1.8849 -1.5214,3.4062 -3.4062,3.4062 -1.8849,0 -3.4062,-1.5214 -3.4062,-3.4062 0,-1.8849 1.5214,-3.4062 3.4062,-3.4062 z m 12.219,8.625 c 1.8849,0 3.4062,1.5214 3.4062,3.4062 0,1.8849 -1.5214,3.4062 -3.4062,3.4062 -1.8849,0 -3.4062,-1.5214 -3.4062,-3.4062 0,-1.8849 1.5214,-3.4062 3.4062,-3.4062 z"
           transform="translate(0,308.27)"
           fill="#999999" />
      </g>
      <path
         id="path3687"
         d="m 462.71,417.54 c 0,4.1666 -6.9966,7.5442 -15.627,7.5442 -8.6307,0 -15.627,-3.3776 -15.627,-7.5442 0,-4.1666 6.9966,-7.5442 15.627,-7.5442 8.6307,0 15.627,3.3777 15.627,7.5442 z"
         transform="matrix(0.98851,0,0,1.1429,6.9108,250.42)"
         fill="url(#linearGradient3776)"
         style="fill:url(#linearGradient3776)" />
      <rect
         id="rect3711"
         fill-opacity="0.99608"
         rx="4"
         ry="4"
         height="8.2627001"
         width="47.061001"
         y="723.38"
         x="425.17001"
         fill="#668000" />
    </g>
  </g>
</svg>
