<?xml version="1.0" encoding="UTF-8" standalone="no"?>
<svg
   xmlns:dc="http://purl.org/dc/elements/1.1/"
   xmlns:cc="http://creativecommons.org/ns#"
   xmlns:rdf="http://www.w3.org/1999/02/22-rdf-syntax-ns#"
   xmlns:svg="http://www.w3.org/2000/svg"
   xmlns="http://www.w3.org/2000/svg"
   xmlns:xlink="http://www.w3.org/1999/xlink"
   xmlns:sodipodi="http://sodipodi.sourceforge.net/DTD/sodipodi-0.dtd"
   xmlns:inkscape="http://www.inkscape.org/namespaces/inkscape"
   id="svg2"
   viewBox="0 0 56.407421 71.999998"
   version="1.1"
   sodipodi:docname="7127a4b4-6a6e-414e-bd4c-0a41004169fe.svg"
   width="56.407421"
   height="72"
   inkscape:version="1.0.1 (c497b03c, 2020-09-10)">
  <sodipodi:namedview
     pagecolor="#ffffff"
     bordercolor="#666666"
     borderopacity="1"
     objecttolerance="10"
     gridtolerance="10"
     guidetolerance="10"
     inkscape:pageopacity="0"
     inkscape:pageshadow="2"
     inkscape:window-width="1732"
     inkscape:window-height="1175"
     id="namedview1712"
     showgrid="false"
     fit-margin-top="0"
     fit-margin-left="0"
     fit-margin-right="0"
     fit-margin-bottom="0"
     inkscape:zoom="2.7689264"
     inkscape:cx="143.68338"
     inkscape:cy="177.69199"
     inkscape:window-x="128"
     inkscape:window-y="171"
     inkscape:window-maximized="0"
     inkscape:current-layer="svg2" />
  <defs
     id="defs4">
    <pattern
       id="pattern5450"
       xlink:href="#sand_bitmap"
       patternTransform="translate(-.94437 -.70828)" />
    <pattern
       id="pattern5447"
       xlink:href="#pattern5396"
       patternTransform="translate(.045135 .45389)" />
    <pattern
       id="pattern5444"
       xlink:href="#sand_bitmap"
       patternTransform="translate(-.94437 -.70828)" />
    <pattern
       id="sand_bitmap"
       width="256"
       patternUnits="userSpaceOnUse"
       patternTransform="translate(-.94437 -.70828)"
       height="256" />
    <pattern
       id="pattern5396"
       xlink:href="#sand_bitmap-5"
       patternTransform="translate(.045135 .45389)" />
    <pattern
       id="sand_bitmap-5"
       width="256"
       patternUnits="userSpaceOnUse"
       height="256" />
    <linearGradient
       id="linearGradient5465"
       y2="619.15997"
       gradientUnits="userSpaceOnUse"
       x2="297.84"
       y1="520.03998"
       x1="420.98001">
      <stop
         id="stop5427"
         stop-color="#e6cc4b"
         offset="0" />
      <stop
         id="stop5429"
         stop-color="#f7b215"
         offset="1" />
    </linearGradient>
  </defs>
  <g
     id="layer1"
     transform="matrix(0.19777763,0,0,0.19777763,-48.632545,-61.618453)">
    <g
       id="g5457">
      <path
         id="path2996-6"
         d="m 246.96,589.91 c 0,0 61.39,81.588 64.164,83.09 2.7739,1.5015 3.7808,3.3166 8.309,2.308 4.6161,-1.0282 112.89,-92.951 112.89,-92.951 0,0 2.8746,-4.1439 2.413,-6.452 -0.46162,-2.308 1.0176,-34.463 1.0176,-34.463 0,0 -0.10499,-3.8606 -1.9409,-6.557 -1.6635,-2.4432 -35.911,-36.373 -35.911,-36.373 0,0 -4.7366,-2.287 -6.9241,-2.308 -1.6643,-0.016 -32.04,-0.91267 -32.04,-0.91267 0,0 -3.5774,0.40385 -5.4238,1.3271 -1.8464,0.92321 -107.02,86.83 -107.02,86.83 0,0 -1.6159,2.9902 0.4616,6.4625 z"
         fill="#e18a43" />
      <path
         id="path2996"
         d="m 252.06,589.01 c 0,0 58.298,77.48 60.933,78.906 2.6342,1.4259 3.5904,3.1496 7.8906,2.1918 4.3836,-0.97642 107.21,-88.271 107.21,-88.271 0,0 2.7299,-3.9353 2.2915,-6.1271 -0.43837,-2.1918 0.96641,-32.728 0.96641,-32.728 0,0 -0.0997,-3.6662 -1.8431,-6.2268 -1.5798,-2.3201 -34.103,-34.541 -34.103,-34.541 0,0 -4.4981,-2.1718 -6.5755,-2.1918 -1.5805,-0.0152 -30.427,-0.86671 -30.427,-0.86671 0,0 -3.3972,0.38351 -5.1507,1.2602 -1.7535,0.87673 -101.63,82.457 -101.63,82.457 0,0 -1.5345,2.8396 0.43836,6.1371 z"
         fill="url(#linearGradient5465)"
         style="fill:url(#linearGradient5465)" />
      <path
         id="path2998"
         d="m 396.37,538.16 c 0,2.8726 -2.3287,5.2012 -5.2012,5.2012 -2.8726,0 -5.2012,-2.3287 -5.2012,-5.2012 0,-2.8726 2.3287,-5.2012 5.2012,-5.2012 2.8726,0 5.2012,2.3287 5.2012,5.2012 z"
         transform="matrix(1.2755,0,0,1.2755,-108.02,-148.18)" />
      <path
         id="path3768"
         d="m 424.21,524.49 c 6.3634,-4.3821 11.684,-10.471 16.792,-16.126 9.4426,-10.454 24.281,-32.206 30.689,-50.923 6.4075,-18.717 7.082,-32.543 9.7799,-37.77 2.6979,-5.2272 7.7565,-11.635 7.9251,-15.851 0.16862,-4.2155 1.5168,-25.631 0.84277,-32.038 -0.475,-4.5153 0.6748,-7.5875 3.2041,-7.9247 2.5293,-0.33723 7.419,-23.101 9.2738,-29.003 1.8548,-5.9016 8.5994,-20.234 10.96,-22.763 4.0469,-0.16862 3.0356,0.16874 4.216,2.698 -1.6862,2.3607 -9.7799,19.56 -13.321,31.7 -5.3475,10.393 -0.42135,16.926 -0.17331,23.387 -0.18474,8.6396 -2.1559,11.894 -8.6433,15.289 -1.4368,0.75191 -0.47327,3.0556 -0.62604,4.3214 -1.1803,9.7799 0.6086,12.972 -1.8548,19.055 -3.8903,9.6064 -8.4305,10.285 -9.6109,19.897 -1.1803,9.6113 -4.046,17.197 -6.7439,27.82 -2.1005,8.2706 -14.332,30.089 -23.101,42.662 -11.524,16.523 -21.577,25.479 -26.559,28.972 z"
         stroke="#000000"
         stroke-width="1px"
         fill="url(#pattern5450)" />
      <path
         id="path3768-4"
         d="m 393.1,542.09 c -5.3649,-0.41154 -11.249,-13.578 -9.814,-21.469 1.4348,-7.8915 9.8929,-27.975 16.35,-38.736 6.4567,-10.761 32.287,-38.152 39.461,-43.533 7.1741,-5.3806 45.128,-49.957 45.128,-49.957 11.114,-14.233 5.8136,-10.296 9.256,-20.119 2.2223,-2.9294 2.8352,-3.2258 7.0046,-8.4845 10.636,-13.415 25.206,-37.963 26.494,-38.736 2.8052,-0.40164 2.6186,0.14739 3.6089,2.1954 -0.35871,3.2284 -26.207,39.414 -28.718,43.36 -8.1359,23.683 -14.932,23.43 -25.48,38.538 -4.2155,6.2389 -15.179,15.686 -29.51,32.377 -10.286,7.5878 -37.263,36.083 -41.648,43.839 0,0 -12.214,18.829 -15.549,33.351 -1.9204,8.3615 -2.2358,14.2 1.0053,17.932 3.6955,4.2547 2.7113,2.2809 4.1542,3.9324 1.4429,1.6514 3.6216,5.9226 -1.7432,5.511 z"
         stroke="#000000"
         stroke-width="1px"
         fill="url(#pattern5447)" />
      <path
         id="path5413"
         d="m 494.99,384.53 c 0,0 -5.1257,-1.4304 -6.0197,-3.8741 -0.89402,-2.4436 -2.7417,-6.8542 -0.77482,-11.563 1.9668,-4.7085 1.3708,-4.7681 5.1257,-5.9005 3.7549,-1.1324 6.9733,-0.83442 8.7018,0.59601 1.7284,1.4304 2.8013,4.1125 3.1589,6.9734 0.6062,4.8496 0.298,7.7482 -1.2516,8.821 -1.5496,1.0728 -1.6688,2.2649 -3.9933,3.7549 -2.0725,1.3285 -4.9469,1.192 -4.9469,1.192 z"
         stroke="#000000"
         stroke-width="1px"
         fill="url(#pattern5444)" />
    </g>
  </g>
  <metadata
     id="metadata1709">
    <rdf:RDF>
      <cc:Work>
        <dc:format>image/svg+xml</dc:format>
        <dc:type
           rdf:resource="http://purl.org/dc/dcmitype/StillImage" />
        <cc:license
           rdf:resource="http://creativecommons.org/publicdomain/zero/1.0/" />
        <dc:publisher>
          <cc:Agent
             rdf:about="http://openclipart.org/">
            <dc:title>Openclipart</dc:title>
          </cc:Agent>
        </dc:publisher>
        <dc:title></dc:title>
      </cc:Work>
      <cc:License
         rdf:about="http://creativecommons.org/publicdomain/zero/1.0/">
        <cc:permits
           rdf:resource="http://creativecommons.org/ns#Reproduction" />
        <cc:permits
           rdf:resource="http://creativecommons.org/ns#Distribution" />
        <cc:permits
           rdf:resource="http://creativecommons.org/ns#DerivativeWorks" />
      </cc:License>
    </rdf:RDF>
  </metadata>
</svg>
