<?xml version="1.0" encoding="UTF-8" standalone="no"?>
<svg
   xmlns:dc="http://purl.org/dc/elements/1.1/"
   xmlns:cc="http://creativecommons.org/ns#"
   xmlns:rdf="http://www.w3.org/1999/02/22-rdf-syntax-ns#"
   xmlns:svg="http://www.w3.org/2000/svg"
   xmlns="http://www.w3.org/2000/svg"
   xmlns:xlink="http://www.w3.org/1999/xlink"
   xmlns:sodipodi="http://sodipodi.sourceforge.net/DTD/sodipodi-0.dtd"
   xmlns:inkscape="http://www.inkscape.org/namespaces/inkscape"
   id="svg1432"
   viewBox="0 0 49.541809 71.999998"
   version="1.0"
   sodipodi:docname="d38b0121-f443-4e12-871f-01150c1bba5b.svg"
   width="49.541809"
   height="72"
   inkscape:version="1.0.1 (c497b03c, 2020-09-10)">
  <sodipodi:namedview
     pagecolor="#ffffff"
     bordercolor="#666666"
     borderopacity="1"
     objecttolerance="10"
     gridtolerance="10"
     guidetolerance="10"
     inkscape:pageopacity="0"
     inkscape:pageshadow="2"
     inkscape:window-width="1449"
     inkscape:window-height="1182"
     id="namedview1092"
     showgrid="false"
     fit-margin-top="0"
     fit-margin-left="0"
     fit-margin-right="0"
     fit-margin-bottom="0"
     inkscape:zoom="1.2276364"
     inkscape:cx="294.1871"
     inkscape:cy="415.46258"
     inkscape:window-x="176"
     inkscape:window-y="84"
     inkscape:window-maximized="0"
     inkscape:current-layer="svg1432" />
  <defs
     id="defs1435">
    <linearGradient
       id="linearGradient13999"
       y2="187.58"
       gradientUnits="userSpaceOnUse"
       y1="187.58"
       x2="267.54001"
       x1="254.25999">
      <stop
         id="stop13991"
         stop-color="#b3b3b3"
         offset="0" />
      <stop
         id="stop13993"
         stop-color="#b3b3b3"
         stop-opacity="0"
         offset="1" />
    </linearGradient>
    <linearGradient
       id="linearGradient16788"
       y2="793.63"
       gradientUnits="userSpaceOnUse"
       x2="458.5"
       y1="793.63"
       x1="420.16">
      <stop
         id="stop16770"
         offset="0" />
      <stop
         id="stop16772"
         stop-opacity="0"
         offset="1" />
    </linearGradient>
    <linearGradient
       inkscape:collect="always"
       xlink:href="#linearGradient13999"
       id="linearGradient1655"
       gradientUnits="userSpaceOnUse"
       x1="254.25999"
       y1="187.58"
       x2="267.54001"
       y2="187.58" />
    <linearGradient
       inkscape:collect="always"
       xlink:href="#linearGradient13999"
       id="linearGradient1657"
       gradientUnits="userSpaceOnUse"
       x1="254.25999"
       y1="187.58"
       x2="267.54001"
       y2="187.58" />
    <linearGradient
       inkscape:collect="always"
       xlink:href="#linearGradient13999"
       id="linearGradient1659"
       gradientUnits="userSpaceOnUse"
       x1="254.25999"
       y1="187.58"
       x2="267.54001"
       y2="187.58" />
    <linearGradient
       inkscape:collect="always"
       xlink:href="#linearGradient13999"
       id="linearGradient1661"
       gradientUnits="userSpaceOnUse"
       x1="254.25999"
       y1="187.58"
       x2="267.54001"
       y2="187.58" />
    <linearGradient
       inkscape:collect="always"
       xlink:href="#linearGradient13999"
       id="linearGradient1663"
       gradientUnits="userSpaceOnUse"
       x1="254.25999"
       y1="187.58"
       x2="267.54001"
       y2="187.58" />
    <linearGradient
       inkscape:collect="always"
       xlink:href="#linearGradient13999"
       id="linearGradient1665"
       gradientUnits="userSpaceOnUse"
       x1="254.25999"
       y1="187.58"
       x2="267.54001"
       y2="187.58" />
    <linearGradient
       inkscape:collect="always"
       xlink:href="#linearGradient13999"
       id="linearGradient1667"
       gradientUnits="userSpaceOnUse"
       x1="254.25999"
       y1="187.58"
       x2="267.54001"
       y2="187.58" />
    <linearGradient
       inkscape:collect="always"
       xlink:href="#linearGradient13999"
       id="linearGradient1669"
       gradientUnits="userSpaceOnUse"
       x1="254.25999"
       y1="187.58"
       x2="267.54001"
       y2="187.58" />
    <linearGradient
       inkscape:collect="always"
       xlink:href="#linearGradient13999"
       id="linearGradient1671"
       gradientUnits="userSpaceOnUse"
       x1="254.25999"
       y1="187.58"
       x2="267.54001"
       y2="187.58" />
    <linearGradient
       inkscape:collect="always"
       xlink:href="#linearGradient13999"
       id="linearGradient1673"
       gradientUnits="userSpaceOnUse"
       x1="254.25999"
       y1="187.58"
       x2="267.54001"
       y2="187.58" />
    <linearGradient
       inkscape:collect="always"
       xlink:href="#linearGradient13999"
       id="linearGradient1675"
       gradientUnits="userSpaceOnUse"
       x1="254.25999"
       y1="187.58"
       x2="267.54001"
       y2="187.58" />
    <linearGradient
       inkscape:collect="always"
       xlink:href="#linearGradient13999"
       id="linearGradient1677"
       gradientUnits="userSpaceOnUse"
       x1="254.25999"
       y1="187.58"
       x2="267.54001"
       y2="187.58" />
    <linearGradient
       inkscape:collect="always"
       xlink:href="#linearGradient13999"
       id="linearGradient1679"
       gradientUnits="userSpaceOnUse"
       x1="254.25999"
       y1="187.58"
       x2="267.54001"
       y2="187.58" />
    <linearGradient
       inkscape:collect="always"
       xlink:href="#linearGradient13999"
       id="linearGradient1681"
       gradientUnits="userSpaceOnUse"
       x1="254.25999"
       y1="187.58"
       x2="267.54001"
       y2="187.58" />
    <linearGradient
       inkscape:collect="always"
       xlink:href="#linearGradient13999"
       id="linearGradient1683"
       gradientUnits="userSpaceOnUse"
       x1="254.25999"
       y1="187.58"
       x2="267.54001"
       y2="187.58" />
    <linearGradient
       inkscape:collect="always"
       xlink:href="#linearGradient13999"
       id="linearGradient1685"
       gradientUnits="userSpaceOnUse"
       x1="254.25999"
       y1="187.58"
       x2="267.54001"
       y2="187.58" />
    <linearGradient
       inkscape:collect="always"
       xlink:href="#linearGradient13999"
       id="linearGradient1687"
       gradientUnits="userSpaceOnUse"
       x1="254.25999"
       y1="187.58"
       x2="267.54001"
       y2="187.58" />
    <linearGradient
       inkscape:collect="always"
       xlink:href="#linearGradient13999"
       id="linearGradient1689"
       gradientUnits="userSpaceOnUse"
       x1="254.25999"
       y1="187.58"
       x2="267.54001"
       y2="187.58" />
  </defs>
  <g
     id="g2597"
     transform="matrix(0.07762627,0.04058784,-0.04058784,0.07762627,23.286924,-21.361748)">
    <path
       id="path1449"
       d="m 316.14,473.85 -3.63,127.92 -5.09,7.26 -6.54,5.09 -9.45,2.91 -13.8,-2.18 -14.54,-6.54 -13.81,-15.27 -7.99,-17.44 -4.36,-21.07 -0.73,-14.54 1.11,-7.79 1.3,-3.03 0.71,-1.41 2.26,1.08 3.45,-7.3 -0.84,-0.45 -12.35,-5.81 -1.84,3.57 -1.91,3.42 2.3,1.73 -2.12,2.03 -2.97,2.33 -8.72,5.82 -7.27,11.62 -5.81,16.72 -1.46,22.53 v 18.9 l 3.64,22.53 7.99,24.71 6.54,18.16 7.27,23.26 5.09,23.26 -2.91,29.8 -7.27,21.07 -21.8,46.52 -8,18.89 -5.81,21.08 -6.18,31.25 -0.36,15.99 3.27,18.89 7.27,18.17 8.35,11.27 19.63,15.99 16.71,7.99 23.26,5.82 23.62,2.54 27.98,0.73 34.89,0.36 40.69,-0.36 17.81,-1.82 25.8,-4.36 18.17,-7.63 22.53,-16.72 13.08,-19.26 4.73,-13.08 1.81,-21.8 -0.72,-20.35 -2.18,-15.63 -3.64,-15.62 -7.63,-19.26 -9.81,-26.89 -8,-17.08 -4.72,-20.72 -1.09,-19.98 4.72,-22.53 5.82,-15.26 5.09,-10.18 9.44,-23.26 4.36,-24.71 -1.09,-21.07 -6.54,-13.08 -5.08,-3.27 -4.36,1.09 -2.55,2.18 -3.27,6.9 -3.63,11.99 -4.73,11.63 -9.81,16.72 -7.63,7.26 -8.36,5.09 -10.17,2.91 -7.27,0.36 -9.45,-1.09 -7.99,-4.72 -9.09,-5.82 -4.72,-5.08 -2.54,-4.73 -1.09,-3.99 -1.09,-175.16 h -54.88 v 0.37"
       fill-rule="evenodd"
       stroke="#000000"
       stroke-width="1px"
       fill="#b37925" />
    <path
       id="path1451"
       d="m 426.98,825.97 2.54,10.91 -1.45,6.54 -4,2.54 h -6.18 l -3.27,-2.54 -1.81,-2.55 -1.46,-4.72 2.91,-4.73 5.45,-1.45 5.45,1.45 3.63,1.82 z"
       fill-rule="evenodd"
       stroke="#000000"
       stroke-width="1px"
       fill="#5f6161" />
    <path
       id="path1453"
       d="m 426.25,825.97 -4,-2.9 -4.36,-0.37 -3.99,1.46 -2.91,2.54 -1.82,4.72 v 4.73 l 1.45,2.54 1.82,1.46 h 0.37"
       stroke="#000000"
       stroke-width="1px"
       fill="none" />
    <path
       id="path1455"
       d="m 464.41,855.41 3.27,9.81 -1.09,5.81 -2.18,2.55 -2.55,2.18 h -4.36 l -6.18,-3.27 -1.45,-3.27 0.73,-4.36 3.63,-4.36 4,-1.1 5.45,1.82 3.63,2.18 z"
       fill-rule="evenodd"
       stroke="#000000"
       stroke-width="1px"
       fill="#5f615f" />
    <path
       id="path1457"
       d="m 465.13,856.13 -3.99,-3.27 -5.82,-1.09 -4.36,2.55 -3.63,3.27 -1.09,3.63 0.36,4.73 3.27,4.36 1.45,1.09"
       stroke="#000000"
       stroke-width="1px"
       fill="none" />
    <path
       id="path1459"
       d="m 294.71,681.71 93.02,1.45 -0.73,47.24 -94.11,-1.09 z"
       fill-rule="evenodd"
       fill-opacity="0.75"
       stroke="#000000"
       stroke-width="1px"
       fill="#333333" />
    <path
       id="path1461"
       d="m 301.97,726.41 2.18,-40.7 75.22,1.45 -0.72,39.97 z"
       fill-rule="evenodd"
       fill-opacity="0.75"
       stroke="#000000"
       stroke-width="1px"
       fill="#333333" />
    <path
       id="path1463"
       d="m 306.54,692.24 3.99,-3.59 2.57,-0.52 56.78,0.13 4.5,2.83 1.8,3.6 -0.13,3.98 -1.16,2.95 -2.05,2.44 -2.83,1.67 -3.73,0.52 -55.37,-0.64 -1.93,-1.67 c 0,0 -1.41,-1.55 -1.54,-2.06 -0.13,-0.51 -1.28,-3.21 -1.28,-3.21 v -2.7 l 0.26,-1.93 z"
       fill-rule="evenodd"
       stroke="#000000"
       stroke-width="1px"
       fill="#232726" />
    <path
       id="path1467"
       d="m 292.93,792.46 92.63,0.89 -0.77,45.36 -93.15,-0.52 z"
       fill-rule="evenodd"
       fill-opacity="0.75"
       stroke="#000000"
       stroke-width="1px"
       fill="#333333" />
    <path
       id="path1469"
       d="m 302.18,796.18 -0.78,38.93 74.78,0.51 0.9,-38.8 z"
       fill-rule="evenodd"
       fill-opacity="0.75"
       stroke="#000000"
       stroke-width="1px"
       fill="#333333" />
    <path
       id="path1475"
       d="m 303.06,845.96 59.96,0.73 1.45,-1.46 2.55,-1.45 3.63,0.36 1.82,2.18 2.72,0.91 1.28,2 -0.55,13.45 8,0.36 1.27,0.91 0.54,17.62 0.18,1.82 -0.72,1.09 -0.37,3.27 -82.67,-0.36 -1.63,-3.46 -0.36,-1.09 1.45,-35.61 1.45,-1.45 v 0.36"
       fill-rule="evenodd"
       stroke="#000000"
       stroke-width="1px"
       fill="#686967" />
    <path
       id="path1477"
       d="m 306.33,860.68 h 10.9 l -0.18,18.71 -11.26,0.18 z"
       stroke="#000000"
       stroke-width="1px"
       fill="none" />
    <path
       id="path1479"
       d="m 339.76,862.13 h 10.91 l -0.19,18.71 -11.26,0.19 z"
       stroke="#000000"
       stroke-width="1px"
       fill="none" />
    <path
       id="path1481"
       d="m 328.5,859.77 h 10.9 l -0.18,18.71 -11.27,0.18 z"
       stroke="#000000"
       stroke-width="1px"
       fill="none" />
    <path
       id="path1483"
       d="m 317.05,859.95 h 10.9 l -0.18,18.71 -11.26,0.19 z"
       stroke="#000000"
       stroke-width="1px"
       fill="none" />
    <path
       id="path1485"
       d="m 361.93,858.86 h 10.9 l -0.18,18.71 -11.26,0.19 z"
       stroke="#000000"
       stroke-width="1px"
       fill="none" />
    <path
       id="path1487"
       d="m 350.67,860.5 h 10.9 l -0.18,18.71 -11.27,0.18 z"
       stroke="#000000"
       stroke-width="1px"
       fill="none" />
    <path
       id="path1489"
       d="m 312.51,602.86 -0.73,73.04 2.91,3.99 51.6,0.37 4,-2.55 1.45,-3.27 0.37,-24.71"
       stroke="#000000"
       stroke-width="1px"
       fill="none" />
    <path
       id="path1495"
       d="M 371.74,672.26 311.78,671.9"
       stroke="#000000"
       stroke-width="1px"
       fill="none" />
    <path
       id="path2257"
       d="m 428.61,832.7 -1.56,-6.46 -5.07,-3.46 -3.98,-0.07 -3.86,1.35 -2.95,2.57 -1.87,4.63 -0.19,4.81 1.67,3.02 1.74,0.52 -1.16,-3.47 2.83,-4.44 5.26,-1.73 9.13,3.08 0.06,-0.32 -0.13,-0.06"
       fill-rule="evenodd"
       stroke="#000000"
       stroke-width="1px"
       fill="#5f6161" />
    <path
       id="path2259"
       d="m 466.95,862.68 -2,-6.91 -3.72,-2.91 -5.91,-1.18 -4.54,2.64 -3,3.09 -1.36,3.81 v 4.54 l 3.81,4.55 0.28,-5.36 3.72,-4.36 4,-1.19 5.27,1.82 3.54,2.18 z"
       fill-rule="evenodd"
       stroke="#000000"
       stroke-width="1px"
       fill="#5f6161" />
    <path
       id="path2261"
       d="m 228.3,526.9 9.44,4.62 1.55,-3.21 2.12,0.96 3.66,-7.19 -13.11,-6.23 -3.85,6.74 2.31,1.86 z"
       fill-rule="evenodd"
       stroke="#000000"
       stroke-width="1px"
       fill="#7a726e" />
    <path
       id="path2263"
       d="m 316.12,473.58 -3.91,131.1 -0.79,70.99 3.18,4.12 50.52,0.51 4.44,-2.44 1.53,-4.11 -0.77,-200.17 z"
       fill-rule="evenodd"
       stroke="#000000"
       stroke-width="0.99403px"
       fill="#212121" />
    <rect
       id="rect2281"
       rx="0"
       ry="1.9986"
       height="1.0901999"
       width="59.972"
       y="619.77002"
       x="311.73001"
       fill="#d5cebc" />
    <rect
       id="rect2283"
       rx="0"
       ry="1.9986"
       height="1.0901999"
       width="60.870998"
       y="663.72998"
       x="311.16"
       fill="#d5cebc" />
    <rect
       id="rect2285"
       rx="0"
       ry="1.9986"
       height="1.0901999"
       width="60.870998"
       y="631.21997"
       x="311.42001"
       fill="#d5cebc" />
    <rect
       id="rect2287"
       rx="0"
       ry="1.9986"
       height="1.0901999"
       width="60.870998"
       y="641.69"
       x="311.42001"
       fill="#d5cebc" />
    <rect
       id="rect2289"
       rx="0"
       ry="1.9986"
       height="1.0901999"
       width="60.870998"
       y="652.51001"
       x="311.45001"
       fill="#d5cebc" />
    <rect
       id="rect2291"
       rx="0"
       ry="1.9986"
       height="1.0901999"
       width="60.870998"
       y="674.09998"
       x="311.34"
       fill="#d5cebc" />
    <path
       id="path10186"
       d="m 277.45,718.53 a 13.173,11.22 0 1 1 2.4,-0.94"
       stroke-width="0"
       fill="#cccccc"
       transform="matrix(0.1835,0,0,0.2026,263.91,552.55)" />
    <path
       id="path10190"
       d="m 277.45,718.53 a 13.173,11.22 0 1 1 2.4,-0.94"
       stroke-width="0"
       fill="#cccccc"
       transform="matrix(0.1835,0,0,0.2026,316.58,553.1)" />
    <path
       id="path10192"
       d="m 277.45,718.53 a 13.173,11.22 0 1 1 2.4,-0.94"
       stroke-width="0"
       fill="#cccccc"
       transform="matrix(0.1835,0,0,0.2026,306.06,552.91)" />
    <path
       id="path10194"
       d="m 277.45,718.53 a 13.173,11.22 0 1 1 2.4,-0.94"
       stroke-width="0"
       fill="#cccccc"
       transform="matrix(0.1835,0,0,0.2026,295.56,552.91)" />
    <path
       id="path10196"
       d="m 277.45,718.53 a 13.173,11.22 0 1 1 2.4,-0.94"
       stroke-width="0"
       fill="#cccccc"
       transform="matrix(0.1835,0,0,0.2026,285.07,552.82)" />
    <path
       id="path10198"
       d="m 277.45,718.53 a 13.173,11.22 0 1 1 2.4,-0.94"
       stroke-width="0"
       fill="#cccccc"
       transform="matrix(0.1835,0,0,0.2026,274.27,552.82)" />
    <path
       id="path10234"
       d="m 332.78,981.89 -10.51,-0.29 -0.07,3.56 -2.33,0.01 -0.34,8.06 14.51,0.23 0.7,-7.74 -2.88,-0.73 z"
       fill-rule="evenodd"
       stroke="#000000"
       stroke-width="1px"
       fill="#7a726e" />
    <path
       id="path10359"
       d="m 373.08,248.71 -0.09,-1.33 c 0,0 -0.58,-2.22 -0.27,-3.73 0.32,-1.52 0.84,-6.47 1.22,-8.29 0.37,-1.82 1.52,-9.8 1.52,-9.8 0,0 1.83,-4.07 4.99,-5.05 3.16,-0.97 9.67,-3.84 9.67,-3.84 l 6.99,-2.78 4.61,-3.22 1.29,-3.86 c 0,0 -1.63,-4.09 -2.26,-5.79 -0.64,-1.69 -2.45,-4.88 -2.68,-6.18 -0.22,-1.3 -10.28,-24.34 -10.28,-24.34 l -4.45,-7.15 c 0,0 -4.19,-3.63 -4.76,-5.63 -0.58,-2 -2.45,-4.88 -2.62,-6.49 -0.16,-1.61 -0.8,-3.3 -0.48,-4.82 0.31,-1.52 0.21,-3.43 2.3,-3.98 2.08,-0.55 3.16,-0.98 4.83,-1.92 1.68,-0.95 13.78,-9.38 13.78,-9.38 l 3.96,-9.65 -4.71,-10.67 -11.86,-9.5 -12.27,-5.164 c 0,0 -8.13,-1.226 -10.98,-1.766 -2.85,-0.54 -17.46,3.313 -17.46,3.313 l -7.26,6.507 -2.89,9.23 -23.68,107.78 5.9,4.9 2.63,8.73 1.16,6.16 -1.56,7.58 z"
       fill-rule="evenodd"
       stroke="#000000"
       stroke-width="0.90898px"
       fill="#b37925" />
    <g
       id="g13044"
       stroke="#000000"
       stroke-width="0.5"
       transform="matrix(0.96451,-0.26406,0.26406,0.96451,23.768,2.1432)"
       fill="url(#linearGradient13999)"
       style="fill:url(#linearGradient1659)">
      <path
         id="path11268"
         d="m 261.53,192.92 a 5.396,6.0384 0 1 1 3.46,-4.15"
         transform="translate(0.12848,-0.18949)"
         style="fill:url(#linearGradient1655)" />
      <path
         id="path12157"
         d="m 261.54,192.7 4.15,1.49 1.6,-2.38 -2.21,-3.35"
         fill-rule="evenodd"
         style="fill:url(#linearGradient1657)" />
    </g>
    <g
       id="g14001"
       stroke="#000000"
       stroke-width="0.5"
       transform="matrix(0.96451,-0.26406,0.26406,0.96451,19.293,21.158)"
       fill="url(#linearGradient13999)"
       style="fill:url(#linearGradient1665)">
      <path
         id="path14003"
         d="m 261.53,192.92 a 5.396,6.0384 0 1 1 3.46,-4.15"
         transform="translate(0.12848,-0.18949)"
         style="fill:url(#linearGradient1661)" />
      <path
         id="path14005"
         d="m 261.54,192.7 4.15,1.49 1.6,-2.38 -2.21,-3.35"
         fill-rule="evenodd"
         style="fill:url(#linearGradient1663)" />
    </g>
    <g
       id="g14007"
       stroke="#000000"
       stroke-width="0.5"
       transform="matrix(0.96451,-0.26406,0.26406,0.96451,15.439,40.385)"
       fill="url(#linearGradient13999)"
       style="fill:url(#linearGradient1671)">
      <path
         id="path14009"
         d="m 261.53,192.92 a 5.396,6.0384 0 1 1 3.46,-4.15"
         transform="translate(0.12848,-0.18949)"
         style="fill:url(#linearGradient1667)" />
      <path
         id="path14011"
         d="m 261.54,192.7 4.15,1.49 1.6,-2.38 -2.21,-3.35"
         fill-rule="evenodd"
         style="fill:url(#linearGradient1669)" />
    </g>
    <g
       id="g14013"
       stroke="#000000"
       stroke-width="0.5"
       transform="matrix(0.96451,-0.26406,0.26406,0.96451,11.231,60.258)"
       fill="url(#linearGradient13999)"
       style="fill:url(#linearGradient1677)">
      <path
         id="path14015"
         d="m 261.53,192.92 a 5.396,6.0384 0 1 1 3.46,-4.15"
         transform="translate(0.12848,-0.18949)"
         style="fill:url(#linearGradient1673)" />
      <path
         id="path14017"
         d="m 261.54,192.7 4.15,1.49 1.6,-2.38 -2.21,-3.35"
         fill-rule="evenodd"
         style="fill:url(#linearGradient1675)" />
    </g>
    <g
       id="g14019"
       stroke="#000000"
       stroke-width="0.5"
       transform="matrix(0.96451,-0.26406,0.26406,0.96451,6.264,79.543)"
       fill="url(#linearGradient13999)"
       style="fill:url(#linearGradient1683)">
      <path
         id="path14021"
         d="m 261.53,192.92 a 5.396,6.0384 0 1 1 3.46,-4.15"
         transform="translate(0.12848,-0.18949)"
         style="fill:url(#linearGradient1679)" />
      <path
         id="path14023"
         d="m 261.54,192.7 4.15,1.49 1.6,-2.38 -2.21,-3.35"
         fill-rule="evenodd"
         style="fill:url(#linearGradient1681)" />
    </g>
    <g
       id="g14025"
       stroke="#000000"
       stroke-width="0.5"
       transform="matrix(0.96451,-0.26406,0.26406,0.96451,2.485,98.341)"
       fill="url(#linearGradient13999)"
       style="fill:url(#linearGradient1689)">
      <path
         id="path14027"
         d="m 261.53,192.92 a 5.396,6.0384 0 1 1 3.46,-4.15"
         transform="translate(0.12848,-0.18949)"
         style="fill:url(#linearGradient1685)" />
      <path
         id="path14029"
         d="m 261.54,192.7 4.15,1.49 1.6,-2.38 -2.21,-3.35"
         fill-rule="evenodd"
         style="fill:url(#linearGradient1687)" />
    </g>
    <path
       id="path14067"
       d="m 265.52,184.94 a 7.1947,6.1668 0 1 1 0.04,-0.17"
       transform="matrix(0.67898,0,0,0.7921,147.03,70.356)"
       stroke="#000000"
       stroke-width="0.5"
       fill="#b3b3b3" />
    <path
       id="path14980"
       d="m 265.52,184.94 a 7.1947,6.1668 0 1 1 0.04,-0.17"
       transform="matrix(0.67898,0,0,0.7921,165.79,-26.515)"
       stroke="#000000"
       stroke-width="0.5"
       fill="#b3b3b3" />
    <path
       id="path14982"
       d="m 265.52,184.94 a 7.1947,6.1668 0 1 1 0.04,-0.17"
       transform="matrix(0.67898,0,0,0.7921,162.19,-7.7575)"
       stroke="#000000"
       stroke-width="0.5"
       fill="#b3b3b3" />
    <path
       id="path14984"
       d="m 265.52,184.94 a 7.1947,6.1668 0 1 1 0.04,-0.17"
       transform="matrix(0.67898,0,0,0.7921,157.56,14.34)"
       stroke="#000000"
       stroke-width="0.5"
       fill="#b3b3b3" />
    <path
       id="path14986"
       d="m 265.52,184.94 a 7.1947,6.1668 0 1 1 0.04,-0.17"
       transform="matrix(0.67898,0,0,0.7921,153.97,32.841)"
       stroke="#000000"
       stroke-width="0.5"
       fill="#b3b3b3" />
    <path
       id="path14988"
       d="m 265.52,184.94 a 7.1947,6.1668 0 1 1 0.04,-0.17"
       transform="matrix(0.67898,0,0,0.7921,150.11,51.727)"
       stroke="#000000"
       stroke-width="0.5"
       fill="#b3b3b3" />
    <path
       id="path14990"
       d="m 305.83,710.57 4.02,-3.56 2.58,-0.48 56.78,0.7 4.47,2.87 1.76,3.61 -0.17,3.99 -1.19,2.94 -2.08,2.42 -2.84,1.64 -3.73,0.48 -55.36,-1.2 -1.91,-1.69 c 0,0 -1.4,-1.56 -1.53,-2.07 -0.12,-0.52 -1.25,-3.23 -1.25,-3.23 l 0.03,-2.7 0.28,-1.92 z"
       fill-rule="evenodd"
       stroke="#000000"
       stroke-width="1px"
       fill="#232726" />
    <path
       id="path14992"
       d="m 304.54,801.99 3.99,-3.6 2.57,-0.51 56.78,0.12 4.5,2.83 1.8,3.6 -0.13,3.98 -1.16,2.96 -2.05,2.44 -2.83,1.67 -3.72,0.51 -55.38,-0.64 -1.92,-1.67 c 0,0 -1.42,-1.54 -1.55,-2.06 -0.12,-0.51 -1.28,-3.21 -1.28,-3.21 v -2.7 l 0.26,-1.92 z"
       fill-rule="evenodd"
       stroke="#000000"
       stroke-width="1px"
       fill="#232726" />
    <path
       id="path14994"
       d="m 304.73,820.52 3.98,-3.6 2.57,-0.51 56.79,0.13 4.49,2.82 1.8,3.6 -0.13,3.98 -1.15,2.96 -2.06,2.44 -2.83,1.67 -3.72,0.51 -55.38,-0.64 -1.92,-1.67 c 0,0 -1.42,-1.54 -1.54,-2.06 -0.13,-0.51 -1.29,-3.21 -1.29,-3.21 v -2.7 l 0.26,-1.92 z"
       fill-rule="evenodd"
       stroke="#000000"
       stroke-width="1px"
       fill="#232726" />
    <path
       id="path10222"
       d="m 277.45,718.53 a 13.173,11.22 0 1 1 2.4,-0.94"
       stroke-width="0"
       fill="#cccccc"
       transform="matrix(0.1835,0,0,0.2026,261.54,662.88)" />
    <path
       id="path10232"
       d="m 277.45,718.53 a 13.173,11.22 0 1 1 2.4,-0.94"
       stroke-width="0"
       fill="#cccccc"
       transform="matrix(0.1835,0,0,0.2026,272.45,662.66)" />
    <path
       id="path10220"
       d="m 277.45,718.53 a 13.173,11.22 0 1 1 2.4,-0.94"
       stroke-width="0"
       fill="#cccccc"
       transform="matrix(0.1835,0,0,0.2026,283.44,662.68)" />
    <path
       id="path10224"
       d="m 277.45,718.53 a 13.173,11.22 0 1 1 2.4,-0.94"
       stroke-width="0"
       fill="#cccccc"
       transform="matrix(0.1835,0,0,0.2026,293.94,662.92)" />
    <path
       id="path10230"
       d="m 277.45,718.53 a 13.173,11.22 0 1 1 2.4,-0.94"
       stroke-width="0"
       fill="#cccccc"
       transform="matrix(0.1835,0,0,0.2026,316.45,662.9)" />
    <path
       id="path10212"
       d="m 277.45,718.53 a 13.173,11.22 0 1 1 2.4,-0.94"
       stroke-width="0"
       fill="#cccccc"
       transform="matrix(0.1835,0,0,0.2026,304.94,662.8)" />
    <path
       id="path10210"
       d="m 277.45,718.53 a 13.173,11.22 0 1 1 2.4,-0.94"
       stroke-width="0"
       fill="#cccccc"
       transform="matrix(0.1835,0,0,0.2026,261.71,681.46)" />
    <path
       id="path10228"
       d="m 277.45,718.53 a 13.173,11.22 0 1 1 2.4,-0.94"
       stroke-width="0"
       fill="#cccccc"
       transform="matrix(0.1835,0,0,0.2026,272.23,681.41)" />
    <path
       id="path10218"
       d="m 277.45,718.53 a 13.173,11.22 0 1 1 2.4,-0.94"
       stroke-width="0"
       fill="#cccccc"
       transform="matrix(0.1835,0,0,0.2026,283.49,681.53)" />
    <path
       id="path10214"
       d="m 277.45,718.53 a 13.173,11.22 0 1 1 2.4,-0.94"
       stroke-width="0"
       fill="#cccccc"
       transform="matrix(0.1835,0,0,0.2026,294.23,681.4)" />
    <path
       id="path10216"
       d="m 277.45,718.53 a 13.173,11.22 0 1 1 2.4,-0.94"
       stroke-width="0"
       fill="#cccccc"
       transform="matrix(0.1835,0,0,0.2026,305.45,681.6)" />
    <path
       id="path10226"
       d="m 277.45,718.53 a 13.173,11.22 0 1 1 2.4,-0.94"
       stroke-width="0"
       fill="#cccccc"
       transform="matrix(0.1835,0,0,0.2026,316.24,682.01)" />
    <path
       id="path10202"
       d="m 277.45,718.53 a 13.173,11.22 0 1 1 2.4,-0.94"
       stroke-width="0"
       fill="#cccccc"
       transform="matrix(0.1835,0,0,0.2026,264.25,571.17)" />
    <path
       id="path10200"
       d="m 277.45,718.53 a 13.173,11.22 0 1 1 2.4,-0.94"
       stroke-width="0"
       fill="#cccccc"
       transform="matrix(0.1835,0,0,0.2026,274.43,571.36)" />
    <path
       id="path10188"
       d="m 277.45,718.53 a 13.173,11.22 0 1 1 2.4,-0.94"
       stroke-width="0"
       fill="#cccccc"
       transform="matrix(0.1835,0,0,0.2026,284.51,571.45)" />
    <path
       id="path10208"
       d="m 277.45,718.53 a 13.173,11.22 0 1 1 2.4,-0.94"
       stroke-width="0"
       fill="#cccccc"
       transform="matrix(0.1835,0,0,0.2026,295.47,571.7)" />
    <path
       id="path10206"
       d="m 277.45,718.53 a 13.173,11.22 0 1 1 2.4,-0.94"
       stroke-width="0"
       fill="#cccccc"
       transform="matrix(0.1835,0,0,0.2026,305.8,571.79)" />
    <path
       id="path10204"
       d="m 277.45,718.53 a 13.173,11.22 0 1 1 2.4,-0.94"
       stroke-width="0"
       fill="#cccccc"
       transform="matrix(0.1835,0,0,0.2026,316.41,572.14)" />
    <path
       id="path14996"
       d="m 421.16,776.92 36.34,33.43"
       fill-rule="evenodd"
       stroke="url(#linearGradient16788)"
       stroke-width="2"
       fill="#74ea25"
       style="stroke:url(#linearGradient16788)" />
    <path
       id="path17679"
       d="m 191.49,769.74 a 1.0902,5.0874 0 1 1 0.2,-0.43"
       transform="matrix(0.68571,-0.72788,0.72788,0.68571,-236.51,419.87)"
       stroke="#000000"
       stroke-width="0.4"
       fill="#808080" />
    <path
       id="path18570"
       d="m 377.99,931.7 a 8.7364,7.4516 0 1 1 1.58,-0.62"
       transform="translate(18.501,-40.598)"
       stroke="#000000"
       stroke-width="1.1"
       fill="#b3b3b3" />
    <path
       id="path17683"
       d="m 392.13,886.23 13.89,-0.32 69,-64.25 3.05,-16.63 -5.34,-0.88 -4.27,20.11 -63.55,59.86 L 391.7,884 Z"
       fill-rule="evenodd"
       stroke="#000000"
       stroke-width="0.906"
       fill="#b3b3b3" />
    <path
       id="path21227"
       d="m 475.23,821.68 3.02,-16.44 -5.48,-1.25 -4.54,20.13 z"
       stroke="#000000"
       stroke-width="0.1"
       fill-rule="evenodd" />
    <path
       id="path22114"
       d="m 468.74,824.57 1.67,1.03 3.92,-3.79 -5.52,1.67 z"
       stroke="#000000"
       stroke-width="1px"
       fill-rule="evenodd" />
    <path
       id="path22116"
       d="m 455.32,836.84 c 0.26,-0.06 1.86,1.48 1.86,1.48 l 13.49,-12.78 -2.38,-1.61 z"
       stroke="#000000"
       stroke-width="0.2"
       fill-rule="evenodd" />
    <path
       id="path23003"
       d="m 308.22,909.11 a 4.3699367,2.4419705 0 0 1 -3.13,-4.56 l 1.71,2.25 z"
       transform="matrix(0.15135,-0.45406,0.90973,0.30324,-503.6,752.23)"
       stroke="#000000"
       stroke-width="0.2"
       fill="#666666" />
    <path
       id="path23005"
       d="m 308.22,909.11 a 4.3699367,2.4419705 0 0 1 -3.13,-4.56 l 1.71,2.25 z"
       transform="matrix(0.15135,-0.45406,0.90973,0.30324,-515.77,752.41)"
       stroke="#000000"
       stroke-width="0.2"
       fill="#666666" />
    <path
       id="path23007"
       d="m 308.22,909.11 a 4.3699367,2.4419705 0 0 1 -3.13,-4.56 l 1.71,2.25 z"
       transform="matrix(0.15135,-0.45406,0.90973,0.30324,-560.92,752.23)"
       stroke="#000000"
       stroke-width="0.2"
       fill="#666666" />
    <path
       id="path23009"
       d="m 308.22,909.11 a 4.3699367,2.4419705 0 0 1 -3.13,-4.56 l 1.71,2.25 z"
       transform="matrix(0.15135,-0.45406,0.90973,0.30324,-527.04,752.41)"
       stroke="#000000"
       stroke-width="0.2"
       fill="#666666" />
    <path
       id="path23011"
       d="m 308.22,909.11 a 4.3699367,2.4419705 0 0 1 -3.13,-4.56 l 1.71,2.25 z"
       transform="matrix(0.15135,-0.45406,0.90973,0.30324,-538.2,752.32)"
       stroke="#000000"
       stroke-width="0.2"
       fill="#666666" />
    <path
       id="path23013"
       d="m 308.22,909.11 a 4.3699367,2.4419705 0 0 1 -3.13,-4.56 l 1.71,2.25 z"
       transform="matrix(0.15135,-0.45406,0.90973,0.30324,-549.93,752.23)"
       stroke="#000000"
       stroke-width="0.2"
       fill="#666666" />
    <g
       id="g24884">
      <rect
         id="rect2265"
         rx="0"
         ry="1.9986"
         height="1.0901999"
         width="57.327999"
         y="512.64001"
         x="314.42999"
         fill="#d5cebc" />
      <rect
         id="rect2267"
         rx="0"
         ry="1.9986"
         height="1.0901999"
         width="58.055"
         y="542.16998"
         x="313.39001"
         fill="#d5cebc" />
      <rect
         id="rect2269"
         rx="0"
         ry="1.9986"
         height="1.0901999"
         width="57.601002"
         y="526.65002"
         x="314.04001"
         fill="#d5cebc" />
      <rect
         id="rect2271"
         rx="0"
         ry="1.9986"
         height="1.0901999"
         width="59.844002"
         y="570.15997"
         x="312.39001"
         fill="#d5cebc" />
      <rect
         id="rect2273"
         rx="0"
         ry="1.9986"
         height="1.0901999"
         width="58.687"
         y="556.04999"
         x="312.95999"
         fill="#d5cebc" />
      <rect
         id="rect2275"
         rx="0"
         ry="1.9986"
         height="1.0901999"
         width="60.101002"
         y="583.46002"
         x="312.19"
         fill="#d5cebc" />
      <rect
         id="rect2277"
         rx="0"
         ry="1.9986"
         height="1.0901999"
         width="60.870998"
         y="595.13"
         x="311.53"
         fill="#d5cebc" />
      <rect
         id="rect2279"
         rx="0"
         ry="1.9986"
         height="1.0901999"
         width="60.870998"
         y="607.59998"
         x="311.56"
         fill="#d5cebc" />
      <rect
         id="rect3863"
         rx="0"
         ry="1.9986"
         height="1.0901999"
         width="56.328999"
         y="496.48999"
         x="315.01001"
         fill="#d5cebc" />
      <path
         id="path3843"
         d="m 316.23,473.36 3.18,-222.43 53.05,0.28 -1.53,221.58 z"
         fill-rule="evenodd"
         stroke="#000000"
         stroke-width="1.1772px"
         fill="#212121" />
      <rect
         id="rect3845"
         rx="0"
         ry="1.9986"
         height="1.0901999"
         width="54.880001"
         y="324.59"
         x="317.72"
         fill="#d5cebc" />
      <rect
         id="rect3847"
         rx="0"
         ry="1.9986"
         height="1.0901999"
         width="54.917999"
         y="345.35999"
         x="317.42001"
         fill="#d5cebc" />
      <rect
         id="rect3849"
         rx="0"
         ry="1.9986"
         height="1.0901999"
         width="55.008999"
         y="365.64001"
         x="317.09"
         fill="#d5cebc" />
      <rect
         id="rect3851"
         rx="0"
         ry="1.9986"
         height="1.0901999"
         width="55.280998"
         y="387.64999"
         x="316.60001"
         fill="#d5cebc" />
      <rect
         id="rect3853"
         rx="0"
         ry="1.9986"
         height="1.0901999"
         width="55.265999"
         y="409.29001"
         x="316.48999"
         fill="#d5cebc" />
      <rect
         id="rect3855"
         rx="0"
         ry="1.9986"
         height="1.0901999"
         width="55.228001"
         y="427.12"
         x="316.29999"
         fill="#d5cebc" />
      <rect
         id="rect3857"
         rx="0"
         ry="1.9986"
         height="1.0901999"
         width="55.688999"
         y="444.73999"
         x="316.03"
         fill="#d5cebc" />
      <rect
         id="rect3859"
         rx="0"
         ry="1.9986"
         height="1.0901999"
         width="55.688999"
         y="462.45001"
         x="315.76001"
         fill="#d5cebc" />
      <rect
         id="rect3861"
         rx="0"
         ry="1.9986"
         height="1.0901999"
         width="55.960999"
         y="480.59"
         x="315.31"
         fill="#d5cebc" />
      <rect
         id="rect3865"
         rx="0"
         ry="1.9986"
         height="1.0901999"
         width="54.403999"
         y="276.44"
         x="318.45001"
         fill="#d5cebc" />
      <rect
         id="rect3867"
         rx="0"
         ry="1.9986"
         height="1.0901999"
         width="54.533001"
         y="302.42001"
         x="318.09"
         fill="#d5cebc" />
      <rect
         id="rect3869"
         rx="0"
         ry="1.9986"
         height="2.5437"
         width="54.773998"
         y="248.83"
         x="318.48001"
         fill="#d5cebc" />
      <path
         id="path23015"
         d="m 335.77,265.34 -0.37,-3.87 9.44,3.74 -1.96,-6.64 18.36,6.9 -14.24,-1.42 1.38,4.88 z"
         stroke-width="0"
         fill="#b3b3b3"
         fill-rule="evenodd" />
      <path
         id="path23916"
         d="m 332.99,490.41 -0.37,-3.88 9.43,3.74 -1.95,-6.64 18.36,6.9 -14.24,-1.41 1.38,4.87 z"
         stroke-width="0"
         fill="#b3b3b3"
         fill-rule="evenodd" />
      <path
         id="path23918"
         d="m 332.94,438.27 -0.37,-3.87 9.44,3.74 -1.95,-6.65 18.36,6.9 -14.24,-1.41 1.37,4.88 z"
         stroke-width="0"
         fill="#b3b3b3"
         fill-rule="evenodd" />
      <path
         id="path23920"
         d="m 333.72,400.76 -0.37,-3.88 9.43,3.74 -1.95,-6.64 18.36,6.9 -14.24,-1.41 1.37,4.87 z"
         stroke-width="0"
         fill="#b3b3b3"
         fill-rule="evenodd" />
      <path
         id="path23922"
         d="m 334.49,356.82 -0.37,-3.88 9.43,3.74 -1.95,-6.64 18.36,6.9 -14.24,-1.41 1.38,4.87 z"
         stroke-width="0"
         fill="#b3b3b3"
         fill-rule="evenodd" />
      <path
         id="path23924"
         d="m 334.74,315.71 -0.37,-3.88 9.44,3.74 -1.95,-6.64 18.36,6.9 -14.25,-1.41 1.38,4.87 z"
         stroke-width="0"
         fill="#b3b3b3"
         fill-rule="evenodd" />
      <path
         id="path23932"
         d="m 332.95,590.65 -0.27,-2.51 6.78,2.43 -1.4,-4.32 13.2,4.49 -10.24,-0.92 0.99,3.16 z"
         stroke-width="0"
         fill="#b3b3b3"
         fill-rule="evenodd" />
      <path
         id="path23934"
         d="m 332.32,565.41 -0.37,-3.87 9.44,3.74 -1.95,-6.64 18.36,6.9 -14.25,-1.41 1.38,4.87 z"
         stroke-width="0"
         fill="#b3b3b3"
         fill-rule="evenodd" />
      <path
         id="path23936"
         d="m 331.96,535.62 -0.37,-3.88 9.44,3.74 -1.96,-6.64 18.36,6.9 -14.24,-1.41 1.38,4.87 z"
         stroke-width="0"
         fill="#b3b3b3"
         fill-rule="evenodd" />
    </g>
    <path
       id="path23938"
       d="m 334.04,638.62 -0.27,-2.51 6.78,2.42 -1.4,-4.31 13.2,4.48 -10.24,-0.91 0.99,3.16 z"
       stroke-width="0"
       fill="#b3b3b3"
       fill-rule="evenodd" />
    <path
       id="path23940"
       d="m 332.95,615 -0.27,-2.51 6.78,2.42 -1.4,-4.31 13.2,4.48 -10.24,-0.91 0.99,3.16 z"
       stroke-width="0"
       fill="#b3b3b3"
       fill-rule="evenodd" />
    <path
       id="path23942"
       d="m 335.13,660.06 -0.27,-2.51 6.78,2.42 -1.4,-4.31 13.2,4.48 -10.24,-0.91 0.99,3.16 z"
       stroke-width="0"
       fill="#b3b3b3"
       fill-rule="evenodd" />
    <path
       id="path23944"
       d="m 309.53,866.17 -0.23,8.73 4.02,-0.1 0.22,-8.72"
       stroke="#000000"
       stroke-width="1px"
       fill="none" />
    <path
       id="path23946"
       d="m 364.94,863.63 -0.22,8.72 4.01,-0.09 0.22,-8.73"
       stroke="#000000"
       stroke-width="1px"
       fill="none" />
    <path
       id="path23948"
       d="m 353.86,865.45 -0.22,8.72 4.01,-0.09 0.22,-8.73"
       stroke="#000000"
       stroke-width="1px"
       fill="none" />
    <path
       id="path23950"
       d="m 342.96,867.26 -0.23,8.73 4.02,-0.1 0.22,-8.72"
       stroke="#000000"
       stroke-width="1px"
       fill="none" />
    <path
       id="path23952"
       d="m 331.69,864.72 -0.22,8.72 4.01,-0.09 0.23,-8.73"
       stroke="#000000"
       stroke-width="1px"
       fill="none" />
    <path
       id="path23954"
       d="m 320.43,864.9 -0.23,8.73 4.02,-0.1 0.22,-8.72"
       stroke="#000000"
       stroke-width="1px"
       fill="none" />
    <path
       id="path23956"
       d="m 338.04,115.37 c 5.27,7.82 5.27,7.82 5.27,7.82"
       stroke="#000000"
       stroke-width="0.2"
       fill="none" />
    <path
       id="path24845"
       d="m 338.04,115.37 c 5.27,7.82 5.27,7.82 5.27,7.82"
       stroke="#000000"
       stroke-width="0.2"
       fill="none" />
    <path
       id="path24847"
       d="m 328.61,173.53 0.14,9.42"
       stroke="#000000"
       stroke-width="0.2"
       fill="none" />
    <path
       id="path24849"
       d="m 336.36,156.54 c -6.45,6.88 -6.45,6.88 -6.45,6.88"
       stroke="#000000"
       stroke-width="0.2"
       fill="none" />
    <path
       id="path24851"
       d="m 336.78,156.88 c -6.39,6.92 -6.39,6.92 -6.39,6.92"
       stroke="#000000"
       stroke-width="0.2"
       fill="none" />
    <path
       id="path24853"
       d="m 335.31,133.63 c 5.27,7.82 5.27,7.82 5.27,7.82"
       stroke="#000000"
       stroke-width="0.2"
       fill="none" />
    <path
       id="path24855"
       d="m 334.77,134.09 c 5.27,7.81 5.27,7.81 5.27,7.81"
       stroke="#000000"
       stroke-width="0.2"
       fill="none" />
    <path
       id="path24857"
       d="m 338.58,115.1 c 5.27,7.81 5.27,7.81 5.27,7.81"
       stroke="#000000"
       stroke-width="0.2"
       fill="none" />
    <path
       id="path24859"
       d="m 329.15,173.62 0.15,9.42"
       stroke="#000000"
       stroke-width="0.2"
       fill="none" />
    <path
       id="path24861"
       d="m 317.7,215.65 9.42,-0.14"
       stroke="#000000"
       stroke-width="0.2"
       fill="none" />
    <path
       id="path24863"
       d="m 327.31,216.02 -9.43,0.02"
       stroke="#000000"
       stroke-width="0.2"
       fill="none" />
    <path
       id="path24865"
       d="m 324.88,192.61 0.15,9.42"
       stroke="#000000"
       stroke-width="0.2"
       fill="none" />
    <path
       id="path24867"
       d="m 324.34,192.52 0.14,9.42"
       stroke="#000000"
       stroke-width="0.2"
       fill="none" />
    <g
       id="g25836"
       stroke="#000000"
       stroke-width="0.1"
       transform="matrix(2.3844,0,0,1,-444.25,0)"
       fill="none">
      <path
         id="path25818"
         d="m 320.8,248.84 0.04,2.51" />
      <path
         id="path25820"
         d="m 321.16,248.84 0.03,2.51" />
    </g>
    <path
       id="path25870"
       d="M 311.06,873.94 321.6,220.57"
       fill-rule="evenodd"
       stroke="#98a2a3"
       stroke-width="1px"
       fill="#808080" />
    <path
       id="path26757"
       d="m 321.96,871.4 7.99,-671.9"
       fill-rule="evenodd"
       stroke="#89959c"
       stroke-width="0.8"
       fill="#98a2a3" />
    <path
       id="path27644"
       d="m 333.59,871.4 4.36,-622.84 -4.36,-67.59"
       stroke="#779292"
       stroke-width="0.6"
       fill="none" />
    <path
       id="path28531"
       d="m 344.85,873.21 3.64,-624.65 -9.82,-87.58"
       stroke="#7f8d8d"
       stroke-width="0.5"
       fill="none" />
    <path
       id="path29418"
       d="M 355.75,872.49 358.3,251.1 342.67,139.54"
       stroke="#788b8a"
       stroke-width="0.2"
       fill="none" />
    <path
       id="path30305"
       d="m 366.66,869.58 1.81,-620.3 -23.98,-126.46"
       stroke="#768988"
       stroke-width="0.2"
       fill="none" />
    <text
       id="text32077"
       font-size="24.783px"
       xml:space="preserve"
       transform="matrix(-0.5074,-0.98635,0.80169,-0.41241,0,0)"
       line-height="125%"
       y="286.37091"
       x="-329.93231"
       font-family="Amaze"
       fill="#000000">       <tspan
   id="tspan32079"
   y="286.37091"
   x="-329.93231">Fender</tspan>    </text>
  </g>
  <metadata
     id="metadata1089">
    <rdf:RDF>
      <cc:Work>
        <dc:format>image/svg+xml</dc:format>
        <dc:type
           rdf:resource="http://purl.org/dc/dcmitype/StillImage" />
        <cc:license
           rdf:resource="http://creativecommons.org/publicdomain/zero/1.0/" />
        <dc:publisher>
          <cc:Agent
             rdf:about="http://openclipart.org/">
            <dc:title>Openclipart</dc:title>
          </cc:Agent>
        </dc:publisher>
        <dc:title></dc:title>
      </cc:Work>
      <cc:License
         rdf:about="http://creativecommons.org/publicdomain/zero/1.0/">
        <cc:permits
           rdf:resource="http://creativecommons.org/ns#Reproduction" />
        <cc:permits
           rdf:resource="http://creativecommons.org/ns#Distribution" />
        <cc:permits
           rdf:resource="http://creativecommons.org/ns#DerivativeWorks" />
      </cc:License>
    </rdf:RDF>
  </metadata>
</svg>
